<?xml version="1.0" encoding="utf-8"?>
<!-- Generator: Adobe Illustrator 22.1.0, SVG Export Plug-In . SVG Version: 6.00 Build 0)  -->
<svg version="1.1" xmlns="http://www.w3.org/2000/svg" xmlns:xlink="http://www.w3.org/1999/xlink" x="0px" y="0px"
	 viewBox="0 0 200 200" style="enable-background:new 0 0 200 200;" xml:space="preserve">
<style type="text/css">
	.st0{fill:#A5DAD1;}
	.st1{fill:#D5E2DF;}
	.st2{fill:#A67C52;}
	.st3{fill:#3CD3B6;}
	.st4{fill:#D5E2DF;stroke:#ED1E79;stroke-width:0.25;stroke-miterlimit:10;}
	.st5{font-family:'Futura-CondensedExtraBold';}
	.st6{font-size:33.0882px;}
	.st7{letter-spacing:1;}
	.st8{fill:#C7B299;}
	.st9{fill:#ED1E79;}
	.st10{font-size:23.9799px;}
	.st11{display:none;}
	.st12{display:inline;}
	.st13{fill:#DDCCA6;}
	.st14{fill:#473321;}
	.st15{fill:#281D14;}
</style>
<g id="Layer_1">
	<g>
		<rect class="st0" width="200" height="200"/>
	</g>
</g>
<g id="Layer_2">
	<g>
		<path class="st1" d="M13.3,48c-3.4-1.9-6.8-3.7-10.2-5.6c7.7-10.8,14.8-23,20.7-34.8c3.2-0.2,6.3,1.5,7.8,4.3
			C24.8,23.2,18.2,35.7,13.3,48z"/>
		<path class="st2" d="M13.3,48.9l-11-6c-0.1-0.1-0.1-0.2-0.1-0.3l0.4-0.8c0.1-0.1,0.2-0.1,0.3-0.1l11,6C14,47.8,14,47.9,14,48
			l-0.4,0.8C13.5,48.9,13.4,48.9,13.3,48.9z"/>
		<path class="st1" d="M13.1,49.3l-11-6C2,43.2,2,43.1,2,43l0.5-1l11.3,6.2l-0.5,1C13.3,49.3,13.2,49.3,13.1,49.3z"/>
		<path class="st3" d="M19.8,28.6c-1.9,6.3-8.1,8.3-9.1,7.4c-0.4-0.4,1-1.3,2.2-3.1c1.3-1.8,2.5-4.5,3.6-7.5
			c1.9-6.3,8.1-8.3,9.1-7.4c0.4,0.4-1,1.3-2.2,3.1C22.1,22.9,21,25.6,19.8,28.6z"/>
		<path class="st3" d="M29.7,9.4c-1-0.6-2-1.1-3-1.7c0.6-1.1,1.2-2.2,1.8-3.3c1.3-0.4,2.6,0.4,3,1.7C30.9,7.1,30.3,8.2,29.7,9.4z"/>
	</g>
	<g>
		<text transform="matrix(1 0 0 1 9.9541 189.1289)" class="st4 st5 st6 st7">P   WS</text>
	</g>
	<g>
		<path class="st1" d="M60.3,167.4c0.3,5.8-4.2,12-3.9,17.5c0.2,2.8,0.2,5.2-2.4,5.2c-0.3,0-0.5,0-0.8,0c-1.3,0-2.5-1-3-2.4
			c-0.9-3.1-1.7-5.3-3.3-5.3c-1.5,0-2.3,2.2-3.3,5.3c-0.4,1.5-1.6,2.4-3,2.4c-0.3,0-0.5,0-0.8,0c-2.5,0-2.5-2.3-2.4-5.2
			c0.3-5.4-4.2-11.6-3.9-17.5c0.2-2.9,4-4.3,6.2-4c4.7,0.7,9.4,0.7,14,0C56.3,163.1,60.2,164.4,60.3,167.4z"/>
		<path class="st8" d="M52.6,166c0,0.4-2.5,1.3-5.5,1.3s-5.5-1-5.5-1.3s2.5,0,5.5,0S52.6,165.6,52.6,166z"/>
	</g>
	<rect x="33" y="40" transform="matrix(-1 -1.224647e-16 1.224647e-16 -1 219 81)" class="st9" width="153" height="1"/>
	<rect x="11" y="194" transform="matrix(-1 -1.224647e-16 1.224647e-16 -1 121 389)" class="st9" width="99" height="1"/>
	<g>
		<text transform="matrix(1 0 0 1 31.8896 36.1108)" class="st4 st5 st10">Dental Month</text>
	</g>
</g>
<g id="toothbrush" class="st11">
	<g class="st12">
		<path class="st3" d="M171,145c0,2.7-1.5,4.7-3.4,4.7c-0.1,0-0.3,0-0.4,0c-44.3-6.7-88.6,4.4-132.9-2.3c-2.1-0.3-3.8-1.4-3.8-2.4
			c0-0.8,1.3-1.4,3-1.4c0.3,0,0.5,0,0.8,0c25.2,2.5,50.3-0.7,75.5-3.1c17.7-1.7,35.5-3,53.2-1.7c1.4,0.1,2.8,0.2,4.2,0.4
			C169.3,139.5,171,142.1,171,145z"/>
		<g>
			<path class="st1" d="M34.4,131.5c0.4,3.8-0.3,7.3-0.9,9.7c-0.5,2-0.9,3.3-1.3,3.3c-0.6,0-2.4-5.9-1-13.1
				C32.3,131.4,33.4,131.5,34.4,131.5z"/>
		</g>
		<g>
			<path class="st1" d="M36.4,131.6c0.4,3.8-0.3,7.3-0.9,9.7c-0.5,2-0.9,3.3-1.3,3.3c-0.3,0-0.8-1.3-1.2-3.3
				c-0.5-2.4-0.6-5.9,0.2-9.7C34.3,131.5,35.4,131.6,36.4,131.6z"/>
		</g>
		<g>
			<path class="st1" d="M38.4,131.7c0.4,3.8-0.3,7.3-0.9,9.7c-0.5,2-0.9,3.3-1.3,3.3c-0.3,0-0.8-1.3-1.2-3.3
				c-0.5-2.4-0.6-5.9,0.2-9.7C36.3,131.6,37.3,131.6,38.4,131.7z"/>
		</g>
		<g>
			<path class="st1" d="M40.4,131.8c0.4,3.8-0.3,7.3-0.9,9.7c-0.5,2-0.9,3.3-1.3,3.3c-0.3,0-0.8-1.3-1.2-3.3
				c-0.5-2.4-0.6-5.9,0.2-9.7C38.3,131.7,39.3,131.7,40.4,131.8z"/>
		</g>
		<g>
			<path class="st1" d="M42.4,131.9c0.4,3.8-0.3,7.3-0.9,9.7c-0.5,2-0.9,3.3-1.3,3.3c-0.3,0-0.8-1.3-1.2-3.3
				c-0.5-2.4-0.6-5.9,0.2-9.7C40.3,131.8,41.3,131.8,42.4,131.9z"/>
		</g>
		<g>
			<path class="st1" d="M44.4,132c0.4,3.8-0.3,7.3-0.9,9.7c-0.5,2-0.9,3.3-1.3,3.3c-0.3,0-0.8-1.3-1.2-3.3c-0.5-2.4-0.6-5.9,0.2-9.7
				C42.3,131.9,43.3,131.9,44.4,132z"/>
		</g>
		<g>
			<path class="st1" d="M46.4,132.1c0.4,3.8-0.3,7.3-0.9,9.7c-0.5,2-0.9,3.3-1.3,3.3c-0.3,0-0.8-1.3-1.2-3.3
				c-0.5-2.4-0.6-5.9,0.2-9.7C44.3,132,45.3,132,46.4,132.1z"/>
		</g>
		<g>
			<path class="st1" d="M48.4,132.2c0.4,3.8-0.3,7.3-0.9,9.7c-0.5,2-0.9,3.3-1.3,3.3c-0.3,0-0.8-1.3-1.2-3.3
				c-0.5-2.4-0.6-5.9,0.2-9.7C46.3,132.1,47.3,132.1,48.4,132.2z"/>
		</g>
		<g>
			<path class="st1" d="M50.4,132.3c0.4,3.8-0.3,7.3-0.9,9.7c-0.5,2-0.9,3.3-1.3,3.3c-0.3,0-0.8-1.3-1.2-3.3
				c-0.5-2.4-0.6-5.9,0.2-9.7C48.3,132.2,49.3,132.2,50.4,132.3z"/>
		</g>
		<g>
			<path class="st1" d="M52.4,132.4c0.4,3.8-0.3,7.3-0.9,9.7c-0.5,2-0.9,3.3-1.3,3.3c-0.3,0-0.8-1.3-1.2-3.3
				c-0.5-2.4-0.6-5.9,0.2-9.7C50.3,132.3,51.3,132.3,52.4,132.4z"/>
		</g>
		<g>
			<path class="st1" d="M54.4,132.5c0.4,3.8-0.3,7.3-0.9,9.7c-0.5,2-0.9,3.3-1.3,3.3c-0.3,0-0.8-1.3-1.2-3.3
				c-0.5-2.4-0.6-5.9,0.2-9.7C52.3,132.4,53.3,132.4,54.4,132.5z"/>
		</g>
		<path class="st1" d="M163.9,140c0,2.2-12.2,4-27.2,4c-13.6,0-24.9-1.5-26.9-3.4c17.7-1.7,35.5-3,53.2-1.7
			C163.6,139.3,163.9,139.6,163.9,140z"/>
	</g>
</g>
<g id="pug">
	<path class="st13" d="M150.1,109.7c0.6,29-17,45.9-47.2,45.4c-30.2,0.6-47.8-16.3-47.2-45.4c-0.6-29,17-45.9,47.2-45.4
		C133.1,63.8,150.7,80.7,150.1,109.7z"/>
	
		<ellipse transform="matrix(0.3422 -0.9396 0.9396 0.3422 -52.3416 151.9516)" class="st14" cx="82.4" cy="113.4" rx="14.6" ry="11.4"/>
	<circle cx="84.6" cy="110.8" r="7.5"/>
	<circle class="st1" cx="84.7" cy="107.2" r="2.1"/>
	
		<ellipse transform="matrix(0.9396 -0.3422 0.3422 0.9396 -31.3309 49.112)" class="st14" cx="123.5" cy="113.4" rx="11.4" ry="14.6"/>
	<circle cx="121.3" cy="110.8" r="7.5"/>
	<circle class="st1" cx="121.2" cy="107.2" r="2.1"/>
	<path class="st14" d="M85,144.9c-0.1,5.1,6.6,8.1,18,7.8c11.5,0,18.1-3.1,17.8-8.3c0.1-5.1-6.6-8.1-18-7.8
		C91.3,136.7,84.7,139.8,85,144.9z"/>
	<path class="st14" d="M162.6,76.6c0.6,13.5,7.1,15.3,7.6,27c0.3,7.6-14.2-3.4-27-7.7c-12.2-4.1-16.3-24.5-7.6-27
		C142.8,66.7,161.6,53.1,162.6,76.6z"/>
	<path class="st14" d="M44.7,76.6c-0.6,13.5-7.1,15.3-7.6,27c-0.3,7.6,14.2-3.4,27-7.7c12.2-4.1,16.3-24.5,7.6-27
		C64.4,66.7,45.6,53.1,44.7,76.6z"/>
	<g>
		<path class="st3" d="M173,145c0,2.7-1.5,4.7-3.4,4.7c-0.1,0-0.3,0-0.4,0c-44.3-6.7-88.6,4.4-132.9-2.3c-2.1-0.3-3.8-1.4-3.8-2.4
			c0-0.8,1.3-1.4,3-1.4c0.3,0,0.5,0,0.8,0c25.2,2.5,50.3-0.7,75.5-3.1c17.7-1.7,35.5-3,53.2-1.7c1.4,0.1,2.8,0.2,4.2,0.4
			C171.3,139.5,173,142.1,173,145z"/>
		<g>
			<path class="st1" d="M36.4,131.5c0.4,3.8-0.3,7.3-0.9,9.7c-0.5,2-0.9,3.3-1.3,3.3c-0.6,0-2.4-5.9-1-13.1
				C34.3,131.4,35.4,131.5,36.4,131.5z"/>
		</g>
		<g>
			<path class="st1" d="M38.4,131.6c0.4,3.8-0.3,7.3-0.9,9.7c-0.5,2-0.9,3.3-1.3,3.3c-0.3,0-0.8-1.3-1.2-3.3
				c-0.5-2.4-0.6-5.9,0.2-9.7C36.3,131.5,37.4,131.6,38.4,131.6z"/>
		</g>
		<g>
			<path class="st1" d="M40.4,131.7c0.4,3.8-0.3,7.3-0.9,9.7c-0.5,2-0.9,3.3-1.3,3.3c-0.3,0-0.8-1.3-1.2-3.3
				c-0.5-2.4-0.6-5.9,0.2-9.7C38.3,131.6,39.3,131.6,40.4,131.7z"/>
		</g>
		<g>
			<path class="st1" d="M42.4,131.8c0.4,3.8-0.3,7.3-0.9,9.7c-0.5,2-0.9,3.3-1.3,3.3c-0.3,0-0.8-1.3-1.2-3.3
				c-0.5-2.4-0.6-5.9,0.2-9.7C40.3,131.7,41.3,131.7,42.4,131.8z"/>
		</g>
		<g>
			<path class="st1" d="M44.4,131.9c0.4,3.8-0.3,7.3-0.9,9.7c-0.5,2-0.9,3.3-1.3,3.3c-0.3,0-0.8-1.3-1.2-3.3
				c-0.5-2.4-0.6-5.9,0.2-9.7C42.3,131.8,43.3,131.8,44.4,131.9z"/>
		</g>
		<g>
			<path class="st1" d="M46.4,132c0.4,3.8-0.3,7.3-0.9,9.7c-0.5,2-0.9,3.3-1.3,3.3c-0.3,0-0.8-1.3-1.2-3.3c-0.5-2.4-0.6-5.9,0.2-9.7
				C44.3,131.9,45.3,131.9,46.4,132z"/>
		</g>
		<g>
			<path class="st1" d="M48.4,132.1c0.4,3.8-0.3,7.3-0.9,9.7c-0.5,2-0.9,3.3-1.3,3.3c-0.3,0-0.8-1.3-1.2-3.3
				c-0.5-2.4-0.6-5.9,0.2-9.7C46.3,132,47.3,132,48.4,132.1z"/>
		</g>
		<g>
			<path class="st1" d="M50.4,132.2c0.4,3.8-0.3,7.3-0.9,9.7c-0.5,2-0.9,3.3-1.3,3.3c-0.3,0-0.8-1.3-1.2-3.3
				c-0.5-2.4-0.6-5.9,0.2-9.7C48.3,132.1,49.3,132.1,50.4,132.2z"/>
		</g>
		<g>
			<path class="st1" d="M52.4,132.3c0.4,3.8-0.3,7.3-0.9,9.7c-0.5,2-0.9,3.3-1.3,3.3c-0.3,0-0.8-1.3-1.2-3.3
				c-0.5-2.4-0.6-5.9,0.2-9.7C50.3,132.2,51.3,132.2,52.4,132.3z"/>
		</g>
		<g>
			<path class="st1" d="M54.4,132.4c0.4,3.8-0.3,7.3-0.9,9.7c-0.5,2-0.9,3.3-1.3,3.3c-0.3,0-0.8-1.3-1.2-3.3
				c-0.5-2.4-0.6-5.9,0.2-9.7C52.3,132.3,53.3,132.3,54.4,132.4z"/>
		</g>
		<g>
			<path class="st1" d="M56.4,132.5c0.4,3.8-0.3,7.3-0.9,9.7c-0.5,2-0.9,3.3-1.3,3.3c-0.3,0-0.8-1.3-1.2-3.3
				c-0.5-2.4-0.6-5.9,0.2-9.7C54.3,132.4,55.3,132.4,56.4,132.5z"/>
		</g>
		<path class="st1" d="M165.9,140c0,2.2-12.2,4-27.2,4c-13.6,0-24.9-1.5-26.9-3.4c17.7-1.7,35.5-3,53.2-1.7
			C165.6,139.3,165.9,139.6,165.9,140z"/>
	</g>
	<path class="st15" d="M105.2,127.3c4,3.9,0.9,9.8-8.1,15.7c-8.9,6.1-16.3,7.3-19.9,3.2c-4-3.9-0.9-9.8,8.1-15.7
		C94.2,124.4,101.6,123.2,105.2,127.3z"/>
	<path class="st15" d="M100.6,127.3c-4,3.9-0.9,9.8,8.1,15.7c8.9,6.1,16.3,7.3,19.9,3.2c4-3.9,0.9-9.8-8.1-15.7
		C111.7,124.4,104.2,123.2,100.6,127.3z"/>
	<path class="st14" d="M105.2,124.3c4,3.9,0.9,9.8-8.1,15.7c-8.9,6.1-16.3,7.3-19.9,3.2c-4-3.9-0.9-9.8,8.1-15.7
		C94.2,121.4,101.6,120.2,105.2,124.3z"/>
	<path class="st14" d="M100.6,124.3c-4,3.9-0.9,9.8,8.1,15.7c8.9,6.1,16.3,7.3,19.9,3.2c4-3.9,0.9-9.8-8.1-15.7
		C111.7,121.4,104.2,120.2,100.6,124.3z"/>
	<ellipse cx="102.9" cy="124.3" rx="11.1" ry="4"/>
	<path d="M105.6,132.2h-5.4c-2.4,0-4.3-2-4.3-4.3v-0.3c0-2.4,2-4.3,4.3-4.3h5.4c2.4,0,4.3,2,4.3,4.3v0.3
		C110,130.3,108,132.2,105.6,132.2z"/>
</g>
</svg>
