<?xml version="1.0" encoding="utf-8"?>
<!-- Generator: Adobe Illustrator 22.1.0, SVG Export Plug-In . SVG Version: 6.00 Build 0)  -->
<svg version="1.1" id="Layer_1" xmlns="http://www.w3.org/2000/svg" xmlns:xlink="http://www.w3.org/1999/xlink" x="0px" y="0px"
	 viewBox="0 0 200 200" style="enable-background:new 0 0 200 200;" xml:space="preserve">
<style type="text/css">
	.st0{fill:#CCE1E6;}
	.st1{fill:#F4E46A;}
	.st2{fill:#FFAC5E;}
	.st3{fill:#9CDAF3;}
	.st4{fill:#F4A8CC;}
	.st5{fill:#B2D45C;}
	.st6{fill:#B399D4;}
	.st7{clip-path:url(#SVGID_2_);}
	.st8{fill:none;stroke:#F4E46A;stroke-width:2;stroke-miterlimit:10;}
	.st9{clip-path:url(#SVGID_2_);fill:#F4E46A;}
	.st10{fill:#FFFFFF;stroke:#020202;stroke-width:0.25;stroke-miterlimit:10;}
	.st11{font-family:'Helvetica-Bold';}
	.st12{font-size:18px;}
	.st13{clip-path:url(#SVGID_4_);}
	.st14{clip-path:url(#SVGID_4_);fill:none;stroke:#F4E46A;stroke-width:0.5;stroke-miterlimit:10;}
	.st15{clip-path:url(#SVGID_4_);fill:#F4E46A;}
	.st16{font-family:'Helvetica-Light';}
	.st17{font-size:13.5643px;}
	.st18{fill:#B2D45C;stroke:#020202;stroke-width:0.5;stroke-miterlimit:10;}
	.st19{fill:#F4A8CC;stroke:#020202;stroke-width:0.5;stroke-miterlimit:10;}
	.st20{fill:#B399D4;stroke:#020202;stroke-width:0.5;stroke-miterlimit:10;}
</style>
<g>
	<rect x="15" y="-26" class="st0" width="16" height="16"/>
</g>
<g>
	<rect x="36" y="-26" class="st1" width="16" height="16"/>
</g>
<g>
	<rect x="57" y="-26" class="st2" width="16" height="16"/>
</g>
<g>
	<rect x="78" y="-26" class="st3" width="16" height="16"/>
</g>
<g>
	<rect x="99" y="-26" class="st4" width="16" height="16"/>
</g>
<g>
	<rect x="120" y="-26" class="st5" width="16" height="16"/>
</g>
<g>
	<rect x="141" y="-26" class="st6" width="16" height="16"/>
</g>
<g>
	<path class="st3" d="M-9,50c0,20.4-16.6,31-37,31s-37-10.6-37-31s16.6-70,37-70S-9,29.6-9,50z"/>
</g>
<g>
	<path class="st3" d="M314,127c0,20.4-16.6,31-37,31s-37-10.6-37-31s16.6-70,37-70S314,106.6,314,127z"/>
</g>
<g>
	<g>
		<g>
			<path class="st1" d="M-51.3,114.8h-26.9c0.9-2.3,1.9-4.5,3-6.5c2.9-5.3,6.5-9.3,10.5-9.3c4,0,7.6,4,10.5,9.3
				C-53.2,110.3-52.2,112.6-51.3,114.8z"/>
		</g>
		<g>
			<path class="st1" d="M-47.6,133c-0.7,8.6-8.1,13-17.2,13s-16.4-4.4-17.2-13H-47.6z"/>
		</g>
		<g>
			<path class="st3" d="M-51.3,114.8h-26.9c0.9-2.3,1.9-4.5,3-6.5h21C-53.2,110.3-52.2,112.6-51.3,114.8z"/>
		</g>
		<g>
			<g>
				<path class="st1" d="M-48.1,126.3c-1-1.4-1.6-3.5-3.5-3.5c-2.7,0-2.7,4.7-5.4,4.7c-2.7,0-2.7-4.7-5.4-4.7
					c-2.7,0-2.7,4.7-5.4,4.7c-2.7,0-2.7-4.7-5.4-4.7c-2.7,0-2.7,4.7-5.4,4.7c-1.4,0-2.1-1.2-2.7-2.4c-0.5,2.5-0.8,4.8-0.8,6.6
					c0,0.5,0,0.9,0.1,1.4h34.3c0-0.5,0.1-0.9,0.1-1.4C-47.6,130.1-47.8,128.3-48.1,126.3C-48.1,126.3-48.1,126.3-48.1,126.3z"/>
			</g>
			<g>
				<path class="st4" d="M-78.5,127.4c2.7,0,2.7-4.7,5.4-4.7c2.7,0,2.7,4.7,5.4,4.7c2.7,0,2.7-4.7,5.4-4.7c2.7,0,2.7,4.7,5.4,4.7
					c2.7,0,2.7-4.7,5.4-4.7c1.8,0,2.4,2.1,3.5,3.5c-0.6-3.5-1.7-7.5-3.2-11.4h-26.9c-1.3,3.4-2.3,7-3,10.2
					C-80.5,126.2-79.9,127.4-78.5,127.4z"/>
			</g>
		</g>
		<g>
			<path class="st5" d="M-47.6,133c-0.7,8.6-8.1,13-17.2,13s-16.4-4.4-17.2-13H-47.6z"/>
		</g>
		<circle class="st4" cx="-73.2" cy="125.5" r="1.4"/>
		<circle class="st4" cx="-62.5" cy="125.5" r="1.4"/>
	</g>
	<circle class="st4" cx="-51.8" cy="125.5" r="1.4"/>
</g>
<g>
	<g>
		<path class="st4" d="M-10.8,131.6c0,9.5-7.7,14.4-17.2,14.4s-17.2-4.9-17.2-14.4S-37.5,99-28,99S-10.8,122.1-10.8,131.6z"/>
	</g>
	<g>
		<defs>
			<path id="SVGID_1_" d="M-10.8,131.6c0,9.5-7.7,14.4-17.2,14.4s-17.2-4.9-17.2-14.4S-37.5,99-28,99S-10.8,122.1-10.8,131.6z"/>
		</defs>
		<clipPath id="SVGID_2_">
			<use xlink:href="#SVGID_1_"  style="overflow:visible;"/>
		</clipPath>
		<g class="st7">
			<rect x="-46.7" y="106" class="st5" width="35.9" height="16.8"/>
		</g>
		<g class="st7">
			<rect x="-46.2" y="126.9" class="st3" width="36.3" height="8.4"/>
		</g>
		<g class="st7">
			<rect x="-45.2" y="137.6" class="st1" width="35.4" height="6"/>
		</g>
		<g class="st7">
			<path class="st8" d="M-48,112c3.8,0,3.8,4,7.6,4c3.8,0,3.8-4,7.6-4c3.8,0,3.8,4,7.6,4c3.8,0,3.8-4,7.6-4s3.8,4,7.6,4"/>
		</g>
		<circle class="st9" cx="-25" cy="112" r="1"/>
		<circle class="st9" cx="-17" cy="116" r="1"/>
		<circle class="st9" cx="-33" cy="116" r="1"/>
		<circle class="st9" cx="-40" cy="112" r="1"/>
	</g>
	<g>
		<circle class="st4" cx="-39.5" cy="140.5" r="1.5"/>
	</g>
	<g>
		<circle class="st4" cx="-33.8" cy="140.5" r="1.5"/>
	</g>
	<g>
		<circle class="st4" cx="-28" cy="140.5" r="1.5"/>
	</g>
	<g>
		<circle class="st4" cx="-22.2" cy="140.5" r="1.5"/>
	</g>
	<g>
		<circle class="st4" cx="-16.5" cy="140.5" r="1.5"/>
	</g>
</g>
<g>
	<g>
		<circle class="st3" cx="9.5" cy="6.5" r="5.5"/>
	</g>
	<g>
		<circle class="st6" cx="25.5" cy="17.5" r="5.5"/>
	</g>
	<g>
		<circle class="st4" cx="14.5" cy="29.5" r="5.5"/>
	</g>
	<circle class="st1" cx="23" cy="3" r="3"/>
	<g>
		<circle class="st2" cx="18.5" cy="10.5" r="1.5"/>
	</g>
	<g>
		<circle class="st4" cx="26.5" cy="8.5" r="1.5"/>
	</g>
	<g>
		<path class="st2" d="M3.1,0h2.8C5.6,0.8,4.8,1.2,4,0.9C3.6,0.8,3.2,0.4,3.1,0z"/>
	</g>
	<g>
		<circle class="st5" cx="15.5" cy="18.5" r="1.5"/>
	</g>
	<g>
		<path class="st3" d="M30.6,1.6c-0.6,0.6-1.5,0.6-2.1,0c-0.4-0.4-0.5-1-0.3-1.6h2.8C31.1,0.5,31,1.1,30.6,1.6z"/>
	</g>
	<g>
		<circle class="st6" cx="2.5" cy="13.5" r="1.5"/>
	</g>
	<g>
		<circle class="st2" cx="5.5" cy="29.5" r="1.5"/>
	</g>
	<g>
		<circle class="st3" cx="27" cy="31" r="3"/>
	</g>
	<circle class="st1" cx="8" cy="20" r="3"/>
</g>
<g>
	<g>
		<circle class="st5" cx="9.5" cy="45.5" r="5.5"/>
	</g>
	<g>
		<circle class="st6" cx="25.5" cy="56.5" r="5.5"/>
	</g>
	<g>
		<circle class="st3" cx="14.5" cy="68.5" r="5.5"/>
	</g>
	<g>
		<circle class="st2" cx="23" cy="42" r="3"/>
	</g>
	<g>
		<circle class="st3" cx="18.5" cy="49.5" r="1.5"/>
	</g>
	<g>
		<circle class="st5" cx="26.5" cy="47.5" r="1.5"/>
	</g>
	<g>
		<circle class="st6" cx="15.5" cy="37.5" r="1.5"/>
	</g>
	<circle class="st1" cx="4.5" cy="38.5" r="1.5"/>
	<circle class="st1" cx="15.5" cy="57.5" r="1.5"/>
	<g>
		<circle class="st4" cx="29.5" cy="39.5" r="1.5"/>
	</g>
	<circle class="st1" cx="2.5" cy="52.5" r="1.5"/>
	<g>
		<circle class="st5" cx="5.5" cy="68.5" r="1.5"/>
	</g>
	<circle class="st1" cx="27" cy="70" r="3"/>
	<g>
		<circle class="st4" cx="8" cy="59" r="3"/>
	</g>
</g>
<g>
	<g>
		<circle class="st4" cx="9.5" cy="84.5" r="5.5"/>
	</g>
	<g>
		<circle class="st5" cx="25.5" cy="95.5" r="5.5"/>
	</g>
	<g>
		<circle class="st6" cx="14.5" cy="107.5" r="5.5"/>
	</g>
	<g>
		<circle class="st6" cx="23" cy="81" r="3"/>
	</g>
	<g>
		<circle class="st3" cx="18.5" cy="88.5" r="1.5"/>
	</g>
	<g>
		<circle class="st2" cx="26.5" cy="86.5" r="1.5"/>
	</g>
	<circle class="st1" cx="15.5" cy="76.5" r="1.5"/>
	<g>
		<circle class="st2" cx="4.5" cy="77.5" r="1.5"/>
	</g>
	<g>
		<circle class="st2" cx="15.5" cy="96.5" r="1.5"/>
	</g>
	<g>
		<circle class="st4" cx="29.5" cy="78.5" r="1.5"/>
	</g>
	<circle class="st1" cx="2.5" cy="91.5" r="1.5"/>
	<g>
		<circle class="st4" cx="5.5" cy="107.5" r="1.5"/>
	</g>
	<circle class="st1" cx="27" cy="109" r="3"/>
	<g>
		<circle class="st3" cx="8" cy="98" r="3"/>
	</g>
</g>
<g>
	<g>
		<circle class="st3" cx="9.5" cy="123.5" r="5.5"/>
	</g>
	<g>
		<circle class="st4" cx="25.5" cy="134.5" r="5.5"/>
	</g>
	<g>
		<circle class="st5" cx="14.5" cy="146.5" r="5.5"/>
	</g>
	<g>
		<circle class="st5" cx="23" cy="120" r="3"/>
	</g>
	<circle class="st1" cx="18.5" cy="127.5" r="1.5"/>
	<g>
		<circle class="st2" cx="26.5" cy="125.5" r="1.5"/>
	</g>
	<g>
		<circle class="st4" cx="15.5" cy="115.5" r="1.5"/>
	</g>
	<circle class="st1" cx="4.5" cy="116.5" r="1.5"/>
	<g>
		<circle class="st2" cx="15.5" cy="135.5" r="1.5"/>
	</g>
	<g>
		<circle class="st3" cx="29.5" cy="117.5" r="1.5"/>
	</g>
	<g>
		<circle class="st4" cx="2.5" cy="130.5" r="1.5"/>
	</g>
	<circle class="st1" cx="5.5" cy="146.5" r="1.5"/>
	<g>
		<circle class="st3" cx="27" cy="148" r="3"/>
	</g>
	<g>
		<circle class="st6" cx="8" cy="137" r="3"/>
	</g>
</g>
<g>
	<g>
		<circle class="st3" cx="8.5" cy="162.5" r="5.5"/>
	</g>
	<g>
		<circle class="st6" cx="24.5" cy="173.5" r="5.5"/>
	</g>
	<g>
		<circle class="st4" cx="13.5" cy="185.5" r="5.5"/>
	</g>
	<circle class="st1" cx="22" cy="159" r="3"/>
	<g>
		<circle class="st2" cx="17.5" cy="166.5" r="1.5"/>
	</g>
	<g>
		<circle class="st4" cx="25.5" cy="164.5" r="1.5"/>
	</g>
	<g>
		<circle class="st5" cx="14.5" cy="154.5" r="1.5"/>
	</g>
	<g>
		<circle class="st2" cx="3.5" cy="155.5" r="1.5"/>
	</g>
	<g>
		<circle class="st5" cx="14.5" cy="174.5" r="1.5"/>
	</g>
	<g>
		<circle class="st3" cx="28.5" cy="156.5" r="1.5"/>
	</g>
	<g>
		<circle class="st6" cx="1.5" cy="169.5" r="1.5"/>
	</g>
	<g>
		<circle class="st2" cx="4.5" cy="185.5" r="1.5"/>
	</g>
	<g>
		<circle class="st3" cx="26" cy="187" r="3"/>
	</g>
	<circle class="st1" cx="7" cy="176" r="3"/>
</g>
<g>
	<g>
		<path class="st5" d="M13.8,200H3.2c0.6-2.3,2.8-4,5.3-4S13.1,197.7,13.8,200z"/>
	</g>
	<g>
		<path class="st2" d="M24.8,199c-0.1,0.4-0.3,0.7-0.6,1h-4.5c-0.7-0.8-1-1.9-0.6-3c0.1-0.4,0.3-0.7,0.6-1c0.8-0.9,2.1-1.3,3.3-0.9
			c0.6,0.2,1.1,0.7,1.5,1.2C25,197.1,25.2,198.1,24.8,199z"/>
	</g>
	<g>
		<circle class="st6" cx="14.5" cy="193.5" r="1.5"/>
	</g>
	<circle class="st1" cx="3.5" cy="194.5" r="1.5"/>
	<g>
		<circle class="st4" cx="28.5" cy="195.5" r="1.5"/>
	</g>
</g>
<g>
	<g>
		<path class="st6" d="M178.8,200h-10.6c0.6-2.3,2.8-4,5.3-4h0c1,0,1.9,0.3,2.7,0.8C177.5,197.4,178.4,198.6,178.8,200z"/>
	</g>
	<g>
		<circle class="st4" cx="184.5" cy="189.5" r="5.5"/>
	</g>
	<g>
		<path class="st5" d="M184.9,200h-2.8c0.1-0.2,0.2-0.4,0.3-0.6c0.6-0.6,1.5-0.6,2.1,0C184.7,199.6,184.8,199.8,184.9,200z"/>
	</g>
	<g>
		<circle class="st2" cx="193.5" cy="189.5" r="1.5"/>
	</g>
	<g>
		<circle class="st3" cx="172" cy="188" r="3"/>
	</g>
	<path class="st1" d="M194,199.2c0,0.3-0.1,0.6-0.2,0.8h-5.7c-0.1-0.4-0.2-0.8-0.2-1.2c0.1-1.6,1.5-2.9,3.2-2.8
		C192.8,196.1,194.1,197.5,194,199.2z"/>
</g>
<g>
	<g>
		<circle class="st5" cx="189.5" cy="173.5" r="5.5"/>
	</g>
	<g>
		<circle class="st6" cx="173.5" cy="162.5" r="5.5"/>
	</g>
	<g>
		<circle class="st3" cx="184.5" cy="150.5" r="5.5"/>
	</g>
	<g>
		<circle class="st2" cx="176" cy="177" r="3"/>
	</g>
	<g>
		<circle class="st3" cx="180.5" cy="169.5" r="1.5"/>
	</g>
	<g>
		<circle class="st5" cx="172.5" cy="171.5" r="1.5"/>
	</g>
	<g>
		<circle class="st6" cx="183.5" cy="181.5" r="1.5"/>
	</g>
	<circle class="st1" cx="194.5" cy="180.5" r="1.5"/>
	<circle class="st1" cx="183.5" cy="161.5" r="1.5"/>
	<g>
		<circle class="st4" cx="169.5" cy="179.5" r="1.5"/>
	</g>
	<circle class="st1" cx="196.5" cy="166.5" r="1.5"/>
	<g>
		<circle class="st5" cx="193.5" cy="150.5" r="1.5"/>
	</g>
	<circle class="st1" cx="172" cy="149" r="3"/>
	<g>
		<circle class="st4" cx="191" cy="160" r="3"/>
	</g>
</g>
<g>
	<g>
		<circle class="st4" cx="189.5" cy="134.5" r="5.5"/>
	</g>
	<g>
		<circle class="st5" cx="173.5" cy="123.5" r="5.5"/>
	</g>
	<g>
		<circle class="st6" cx="184.5" cy="111.5" r="5.5"/>
	</g>
	<g>
		<circle class="st6" cx="176" cy="138" r="3"/>
	</g>
	<g>
		<circle class="st3" cx="180.5" cy="130.5" r="1.5"/>
	</g>
	<g>
		<circle class="st2" cx="172.5" cy="132.5" r="1.5"/>
	</g>
	<circle class="st1" cx="183.5" cy="142.5" r="1.5"/>
	<g>
		<circle class="st2" cx="194.5" cy="141.5" r="1.5"/>
	</g>
	<g>
		<circle class="st2" cx="183.5" cy="122.5" r="1.5"/>
	</g>
	<g>
		<circle class="st4" cx="169.5" cy="140.5" r="1.5"/>
	</g>
	<circle class="st1" cx="196.5" cy="127.5" r="1.5"/>
	<g>
		<circle class="st4" cx="193.5" cy="111.5" r="1.5"/>
	</g>
	<circle class="st1" cx="172" cy="110" r="3"/>
	<g>
		<circle class="st3" cx="191" cy="121" r="3"/>
	</g>
</g>
<g>
	<g>
		<circle class="st3" cx="189.5" cy="95.5" r="5.5"/>
	</g>
	<g>
		<circle class="st4" cx="173.5" cy="84.5" r="5.5"/>
	</g>
	<g>
		<circle class="st5" cx="184.5" cy="72.5" r="5.5"/>
	</g>
	<g>
		<circle class="st5" cx="176" cy="99" r="3"/>
	</g>
	<circle class="st1" cx="180.5" cy="91.5" r="1.5"/>
	<g>
		<circle class="st2" cx="172.5" cy="93.5" r="1.5"/>
	</g>
	<g>
		<circle class="st4" cx="183.5" cy="103.5" r="1.5"/>
	</g>
	<circle class="st1" cx="194.5" cy="102.5" r="1.5"/>
	<g>
		<circle class="st2" cx="183.5" cy="83.5" r="1.5"/>
	</g>
	<g>
		<circle class="st3" cx="169.5" cy="101.5" r="1.5"/>
	</g>
	<g>
		<circle class="st4" cx="196.5" cy="88.5" r="1.5"/>
	</g>
	<circle class="st1" cx="193.5" cy="72.5" r="1.5"/>
	<g>
		<circle class="st3" cx="172" cy="71" r="3"/>
	</g>
	<g>
		<circle class="st6" cx="191" cy="82" r="3"/>
	</g>
</g>
<g>
	<g>
		<circle class="st3" cx="190.5" cy="56.5" r="5.5"/>
	</g>
	<g>
		<circle class="st6" cx="174.5" cy="45.5" r="5.5"/>
	</g>
	<g>
		<circle class="st4" cx="185.5" cy="33.5" r="5.5"/>
	</g>
	<circle class="st1" cx="177" cy="60" r="3"/>
	<g>
		<circle class="st2" cx="181.5" cy="52.5" r="1.5"/>
	</g>
	<g>
		<circle class="st4" cx="173.5" cy="54.5" r="1.5"/>
	</g>
	<g>
		<circle class="st5" cx="184.5" cy="64.5" r="1.5"/>
	</g>
	<g>
		<circle class="st2" cx="195.5" cy="63.5" r="1.5"/>
	</g>
	<g>
		<circle class="st5" cx="184.5" cy="44.5" r="1.5"/>
	</g>
	<g>
		<circle class="st3" cx="170.5" cy="62.5" r="1.5"/>
	</g>
	<g>
		<circle class="st6" cx="197.5" cy="49.5" r="1.5"/>
	</g>
	<g>
		<circle class="st2" cx="194.5" cy="33.5" r="1.5"/>
	</g>
	<g>
		<circle class="st3" cx="173" cy="32" r="3"/>
	</g>
	<circle class="st1" cx="192" cy="43" r="3"/>
</g>
<g>
	<g>
		<circle class="st5" cx="190.5" cy="17.5" r="5.5"/>
	</g>
	<g>
		<circle class="st6" cx="174.5" cy="6.5" r="5.5"/>
	</g>
	<g>
		<circle class="st2" cx="177" cy="21" r="3"/>
	</g>
	<g>
		<circle class="st3" cx="181.5" cy="13.5" r="1.5"/>
	</g>
	<g>
		<circle class="st5" cx="173.5" cy="15.5" r="1.5"/>
	</g>
	<g>
		<circle class="st6" cx="184.5" cy="25.5" r="1.5"/>
	</g>
	<circle class="st1" cx="195.5" cy="24.5" r="1.5"/>
	<circle class="st1" cx="184.5" cy="5.5" r="1.5"/>
	<g>
		<circle class="st4" cx="170.5" cy="23.5" r="1.5"/>
	</g>
	<circle class="st1" cx="197.5" cy="10.5" r="1.5"/>
	<g>
		<circle class="st4" cx="192" cy="4" r="3"/>
	</g>
</g>
<path class="st3" d="M200,0v45.9c-0.5,0.9-1,1.8-1.5,2.5c-0.6,0.9-1.2,1.7-2,2.2c-0.8,0.7-1.8,1.2-2.9,1.3c-0.2,0-0.4,0-0.6,0
	c-1.2,0-2.2-0.4-3.1-1c-1.8-1.2-3-3.3-4.2-5.6c-0.4-0.8-0.8-1.6-1.3-2.4c-1.7-3.1-3.6-5.8-6.8-5.8c-2.3,0-3.9,1.3-5.3,3.2
	c0,0,0,0,0,0c-1.2,1.7-2.2,3.8-3.2,5.7c-1.7,3.1-3.6,5.8-6.9,5.8c-7.7,0-7.7-14.8-15.4-14.8c-7.7,0-7.7,14.8-15.4,14.8
	s-7.7-14.8-15.4-14.8c-7.7,0-7.7,14.8-15.4,14.8c-7.7,0-7.7-14.8-15.4-14.8S77.6,52,69.9,52c-7.7,0-7.7-14.8-15.4-14.8
	S46.8,52,39.1,52c-5.2,0-6.9-6.7-9.7-11c-0.4-0.6-0.9-1.2-1.3-1.7c-1.2-1.2-2.5-2-4.3-2c-4.6,0-6.5,5.3-8.9,9.6v0c0,0,0,0,0,0
	c-0.7,1.2-1.4,2.3-2.3,3.2C11.4,51.2,10,52,8.3,52c-4.3,0-6.2-4.5-8.3-8.6V0H200z"/>
<path class="st3" d="M200,190.6v9.4H0v-11.9c1.7-3.2,3.6-6.1,7-6.1c0.7,0,1.4,0.1,2,0.3c3,1.2,4.6,4.9,6.4,8.3
	c1.2,2.2,2.5,4.3,4.3,5.4c0.8,0.5,1.7,0.7,2.7,0.7c0.8,0,1.5-0.1,2.1-0.4c5.7-2.4,6.4-14.3,13.3-14.3c7.7,0,7.7,14.8,15.4,14.8
	c7.7,0,7.7-14.8,15.4-14.8s7.7,14.8,15.4,14.8c7.7,0,7.7-14.8,15.4-14.8c7.7,0,7.7,14.8,15.4,14.8s7.7-14.8,15.4-14.8
	c7.7,0,7.7,14.8,15.4,14.8s7.7-14.8,15.4-14.8c6.6,0,7.6,11,12.6,14c0.8,0.5,1.7,0.7,2.7,0.8h0c2.2,0,3.7-1.2,5-2.8
	c2.1-2.7,3.5-6.8,5.6-9.4c1.2-1.5,2.8-2.6,4.8-2.6C195.9,182,197.8,186.5,200,190.6z"/>
<text transform="matrix(1 0 0 1 2.9575 25.3374)" class="st10 st11 st12">Paws Family Members</text>
<g>
	<g>
		<path class="st4" d="M60.6,79.2c-0.9,4.1-4.7,5.5-8.8,4.6s-6.9-3.7-6-7.8s6.4-13.3,10.5-12.4S61.5,75.1,60.6,79.2z"/>
	</g>
	<g>
		<defs>
			<path id="SVGID_3_" d="M60.6,79.2c-0.9,4.1-4.7,5.5-8.8,4.6s-6.9-3.7-6-7.8s6.4-13.3,10.5-12.4S61.5,75.1,60.6,79.2z"/>
		</defs>
		<clipPath id="SVGID_4_">
			<use xlink:href="#SVGID_3_"  style="overflow:visible;"/>
		</clipPath>
		<g class="st13">
			
				<rect x="50.8" y="62.2" transform="matrix(0.2132 -0.977 0.977 0.2132 -25.6399 108.4103)" class="st5" width="7.4" height="15.8"/>
		</g>
		<g class="st13">
			
				<rect x="51.4" y="69.4" transform="matrix(0.2132 -0.977 0.977 0.2132 -33.7329 112.9011)" class="st3" width="3.7" height="16"/>
		</g>
		<g class="st13">
			
				<rect x="51.2" y="73.8" transform="matrix(0.2132 -0.977 0.977 0.2132 -38.3289 115.4835)" class="st1" width="2.7" height="15.6"/>
		</g>
		<path class="st14" d="M46,67.2c1.6,0.4,1.3,2.1,2.9,2.4c1.6,0.4,2-1.4,3.6-1c1.6,0.4,1.3,2.1,2.9,2.4c1.6,0.4,2-1.4,3.6-1
			c1.6,0.4,1.3,2.1,2.9,2.4"/>
		<circle class="st15" cx="56.3" cy="69.5" r="0.4"/>
		<circle class="st15" cx="59.4" cy="71.9" r="0.4"/>
		<circle class="st15" cx="52.5" cy="70.4" r="0.4"/>
		<circle class="st15" cx="49.9" cy="68.1" r="0.4"/>
	</g>
	<g>
		<circle class="st4" cx="47.4" cy="80.4" r="0.7"/>
	</g>
	<g>
		<circle class="st4" cx="49.9" cy="80.9" r="0.7"/>
	</g>
	<g>
		<circle class="st4" cx="52.4" cy="81.4" r="0.7"/>
	</g>
	<g>
		<circle class="st4" cx="54.8" cy="82" r="0.7"/>
	</g>
	<g>
		<circle class="st4" cx="57.3" cy="82.5" r="0.7"/>
	</g>
</g>
<g>
	<g>
		<g>
			<path class="st1" d="M151.3,67.4L141,73.3c-0.2-1.1-0.3-2.1-0.3-3.1c-0.1-2.7,0.4-5,1.9-5.9c1.5-0.9,3.8-0.2,6,1.2
				C149.6,66.1,150.5,66.7,151.3,67.4z"/>
		</g>
		<g>
			<path class="st1" d="M156.7,73.5c1.6,3.4-0.2,6.8-3.7,8.7c-3.4,2-7.2,1.9-9.4-1.2L156.7,73.5z"/>
		</g>
		<g>
			<path class="st3" d="M151.3,67.4L141,73.3c-0.2-1.1-0.3-2.1-0.3-3.1l8-4.6C149.6,66.1,150.5,66.7,151.3,67.4z"/>
		</g>
		<g>
			<g>
				<path class="st1" d="M155,71.1c-0.7-0.3-1.4-1-2.1-0.6c-1,0.6,0,2.4-1,3c-1,0.6-2.1-1.2-3.1-0.6c-1,0.6,0,2.4-1,3
					c-1,0.6-2-1.2-3.1-0.6c-1,0.6,0,2.4-1,3c-0.5,0.3-1,0-1.6-0.3c0.4,1.1,0.8,2,1.2,2.7c0.1,0.2,0.2,0.4,0.3,0.5l13.1-7.5
					c-0.1-0.2-0.2-0.4-0.3-0.5C156.1,72.4,155.6,71.8,155,71.1C155,71.1,155,71.1,155,71.1z"/>
			</g>
			<g>
				<path class="st4" d="M143.7,78.2c1-0.6,0-2.4,1-3c1-0.6,2,1.2,3.1,0.6c1-0.6,0-2.4,1-3c1-0.6,2,1.2,3.1,0.6c1-0.6,0-2.4,1-3
					c0.7-0.4,1.4,0.3,2.1,0.6c-1-1.2-2.3-2.5-3.7-3.7L141,73.3c0.3,1.6,0.6,3.2,1.1,4.5C142.7,78.2,143.2,78.5,143.7,78.2z"/>
			</g>
		</g>
		<g>
			<path class="st5" d="M156.7,73.5c1.6,3.4-0.2,6.8-3.7,8.7c-3.4,2-7.2,1.9-9.4-1.2L156.7,73.5z"/>
		</g>
		<circle class="st4" cx="145.3" cy="76.3" r="0.6"/>
		<circle class="st4" cx="149.4" cy="73.9" r="0.6"/>
	</g>
	<circle class="st4" cx="153.5" cy="71.6" r="0.6"/>
</g>
<text transform="matrix(1 0 0 1 67.8271 71.5757)"><tspan x="0" y="0" class="st16 st17">We will be</tspan><tspan x="61.8" y="0" class="st11 st17"> </tspan><tspan x="4.5" y="16.3" class="st18 st11 st17">CLOSED</tspan><tspan x="-25.2" y="32.6" class="st19 st11 st17">EASTER SUNDAY</tspan><tspan x="-3" y="48.8" class="st20 st11 st17">APRIL 21st</tspan><tspan x="-20" y="65.1" class="st16 st17">we will reopen on</tspan><tspan x="-24.9" y="81.4" class="st16 st17">Monday April 22nd</tspan><tspan x="-20.7" y="97.7" class="st16 st17">with normal hours</tspan></text>
</svg>
