<?xml version="1.0" encoding="utf-8"?>
<!-- Generator: Adobe Illustrator 22.1.0, SVG Export Plug-In . SVG Version: 6.00 Build 0)  -->
<svg version="1.1" xmlns="http://www.w3.org/2000/svg" xmlns:xlink="http://www.w3.org/1999/xlink" x="0px" y="0px"
	 viewBox="0 0 1280 1024" style="enable-background:new 0 0 1280 1024;" xml:space="preserve">
<style type="text/css">
	.st0{fill:#F2F2E0;}
	.st1{fill:#EAC839;}
	.st2{fill:#6D3B1F;}
	.st3{fill:#D6A538;}
	.st4{fill:#CE7019;}
	.st5{fill:#F2F2E0;stroke:#DD530E;stroke-width:5;stroke-miterlimit:10;}
	.st6{fill:#DD530E;}
	.st7{fill:#EA6013;}
	.st8{fill:#EA7321;}
	.st9{fill:#BF3C02;}
	.st10{fill:#D8D9DA;}
	.st11{fill:#C9CACC;}
	.st12{fill:#17172C;}
	.st13{fill:#F37579;}
	.st14{fill:#8D8B00;}
	.st15{fill:#605B03;}
	.st16{fill:#FFFFFF;}
	.st17{display:none;}
	.st18{display:inline;fill:#000018;}
	.st19{display:inline;fill:#17172C;}
	.st20{display:inline;fill:#F37321;}
	.st21{display:inline;}
	.st22{fill:#F37321;}
	.st23{fill:#FD8D2C;}
	.st24{display:inline;fill:#FD8D2C;}
	.st25{fill:#5B351F;stroke:#FFFFE9;stroke-width:2;stroke-miterlimit:10;}
	.st26{fill:none;}
</style>
<g id="background">
	<rect y="-4" class="st0" width="1280" height="1024"/>
	<g>
		<ellipse class="st1" cx="336.2" cy="269.5" rx="26.2" ry="62.2"/>
		
			<ellipse transform="matrix(0.7505 -0.6608 0.6608 0.7505 -79.3097 251.4657)" class="st1" cx="293.4" cy="230.8" rx="56.1" ry="29.1"/>
		<ellipse class="st1" cx="328.6" cy="152.2" rx="35.2" ry="62.2"/>
		
			<ellipse transform="matrix(0.7677 -0.6408 0.6408 0.7677 -63.3051 295.6447)" class="st1" cx="376.1" cy="235.1" rx="28.4" ry="57.5"/>
		
			<ellipse transform="matrix(0.6435 -0.7654 0.7654 0.6435 4.1436 353.9525)" class="st1" cx="382.1" cy="172.5" rx="29.2" ry="55.9"/>
		
			<ellipse transform="matrix(0.6063 -0.7952 0.7952 0.6063 62.9985 347.086)" class="st1" cx="382.1" cy="109.9" rx="29.4" ry="55.5"/>
		
			<ellipse transform="matrix(0.8698 -0.4934 0.4934 0.8698 -45.8625 164.1666)" class="st1" cx="288.1" cy="169" rx="54.6" ry="29.9"/>
		
			<ellipse transform="matrix(0.8698 -0.4934 0.4934 0.8698 -15.3098 156.4897)" class="st1" cx="288.9" cy="107.3" rx="54.6" ry="29.9"/>
		<polygon class="st2" points="330.1,-5.8 335.5,-5.9 341,-6 339.9,109.9 338.8,225.9 334.4,110.1 		"/>
		<polygon class="st2" points="337.6,195.5 338.4,196.9 339.2,198.4 308.2,220.8 277.2,243.2 307.4,219.3 		"/>
		<polygon class="st2" points="336.5,197.5 337.5,196.3 338.5,195.1 364.1,225.6 389.7,256 363.1,226.8 		"/>
		<polygon class="st2" points="337.4,147.1 338.2,145.7 339,144.3 368.7,169.1 398.4,193.8 367.9,170.5 		"/>
		<polygon class="st2" points="336.1,87.5 337,85.7 338,83.9 368.5,107.3 399,130.7 367.6,109.1 		"/>
		<polygon class="st2" points="338.9,213.7 338.8,213.7 338.8,213.7 338.4,213.8 338.4,215.1 338.4,216.5 338.7,228.6 339.4,256.5 
			340.3,299.3 339.8,256.5 339.4,230.1 		"/>
		<polygon class="st2" points="338.6,148.4 339.1,149.6 339.5,150.9 305.5,166.3 271.6,181.8 305.1,165.1 		"/>
		<polygon class="st2" points="339.4,82.3 340.1,84.5 340.9,86.7 306.8,101.6 272.7,116.6 306,99.4 		"/>
	</g>
	<g>
		<ellipse class="st3" cx="127.6" cy="62.8" rx="26.2" ry="62.2"/>
		
			<ellipse transform="matrix(0.7508 -0.6605 0.6605 0.7508 -24.6444 137.7953)" class="st3" cx="170.3" cy="101.6" rx="56.1" ry="29.1"/>
		<ellipse class="st3" cx="135.1" cy="180.1" rx="35.2" ry="62.2"/>
		
			<ellipse transform="matrix(0.7679 -0.6406 0.6406 0.7679 -41.9078 78.6733)" class="st3" cx="87.6" cy="97.2" rx="28.4" ry="57.5"/>
		
			<ellipse transform="matrix(0.6438 -0.7652 0.7652 0.6438 -93.1818 119.3545)" class="st3" cx="81.6" cy="159.8" rx="29.2" ry="55.9"/>
		
			<ellipse transform="matrix(0.6067 -0.795 0.795 0.6067 -144.6833 152.3542)" class="st3" cx="81.6" cy="222.4" rx="29.4" ry="55.6"/>
		<ellipse transform="matrix(0.87 -0.493 0.493 0.87 -57.7176 107.7779)" class="st3" cx="175.5" cy="163.4" rx="54.6" ry="29.9"/>
		<ellipse transform="matrix(0.87 -0.493 0.493 0.87 -88.2487 115.4317)" class="st3" cx="174.8" cy="225.1" rx="54.6" ry="29.9"/>
		<polygon class="st2" points="133.6,338.1 128.1,338.2 122.6,338.3 123.8,222.4 124.9,106.4 129.2,222.3 		"/>
		<polygon class="st2" points="126.1,136.8 125.3,135.4 124.5,133.9 155.5,111.5 186.5,89.1 156.3,113 		"/>
		<polygon class="st2" points="127.2,134.8 126.2,136 125.2,137.2 99.6,106.7 74,76.3 100.6,105.5 		"/>
		<polygon class="st2" points="126.3,185.2 125.5,186.6 124.7,188 95,163.2 65.3,138.5 95.8,161.8 		"/>
		<polygon class="st2" points="127.5,244.9 126.6,246.6 125.7,248.4 95.2,225 64.7,201.6 96.1,223.2 		"/>
		<polygon class="st2" points="124.8,118.6 124.9,118.6 124.9,118.6 125.3,118.6 125.3,117.3 125.3,115.8 125,103.7 124.4,75.8 
			123.4,33 124,75.8 124.3,102.2 		"/>
		<polygon class="st2" points="125,183.9 124.6,182.7 124.2,181.4 158.1,166 192.1,150.6 158.6,167.2 		"/>
		<polygon class="st2" points="124.3,250.1 123.5,247.9 122.8,245.6 156.9,230.7 191,215.7 157.6,232.9 		"/>
	</g>
	<g>
		<ellipse class="st4" cx="533.7" cy="65.7" rx="26.2" ry="62.2"/>
		
			<ellipse transform="matrix(0.7508 -0.6605 0.6605 0.7508 74.6609 406.7766)" class="st4" cx="576.4" cy="104.4" rx="56.1" ry="29.1"/>
		<ellipse class="st4" cx="541.2" cy="183" rx="35.2" ry="62.2"/>
		
			<ellipse transform="matrix(0.7679 -0.6406 0.6406 0.7679 50.5059 339.4938)" class="st4" cx="493.7" cy="100.1" rx="28.4" ry="57.5"/>
		
			<ellipse transform="matrix(0.6438 -0.7652 0.7652 0.6438 49.2653 431.1404)" class="st4" cx="487.7" cy="162.7" rx="29.2" ry="55.9"/>
		
			<ellipse transform="matrix(0.6067 -0.795 0.795 0.6067 12.776 476.3488)" class="st4" cx="487.7" cy="225.3" rx="29.4" ry="55.6"/>
		<ellipse transform="matrix(0.87 -0.493 0.493 0.87 -6.3517 308.378)" class="st4" cx="581.7" cy="166.2" rx="54.6" ry="29.9"/>
		<ellipse transform="matrix(0.87 -0.493 0.493 0.87 -36.8828 316.0318)" class="st4" cx="580.9" cy="228" rx="54.6" ry="29.9"/>
		<polygon class="st2" points="539.7,341 534.2,341.1 528.7,341.2 529.9,225.3 531,109.3 535.4,225.1 		"/>
		<polygon class="st2" points="532.2,139.7 531.4,138.3 530.6,136.8 561.6,114.4 592.7,92 562.4,115.9 		"/>
		<polygon class="st2" points="533.4,137.7 532.3,138.9 531.3,140.1 505.8,109.6 480.2,79.2 506.8,108.4 		"/>
		<polygon class="st2" points="532.4,188.1 531.6,189.5 530.8,190.9 501.1,166.1 471.4,141.3 501.9,164.7 		"/>
		<polygon class="st2" points="533.7,247.7 532.8,249.5 531.8,251.3 501.3,227.9 470.8,204.5 502.2,226.1 		"/>
		<polygon class="st2" points="530.9,121.5 531,121.5 531.1,121.5 531.4,121.4 531.4,120.1 531.4,118.7 531.1,106.6 530.5,78.6 
			529.5,35.9 530.1,78.7 530.4,105.1 		"/>
		<polygon class="st2" points="531.2,186.8 530.7,185.6 530.3,184.3 564.3,168.9 598.2,153.4 564.7,170.1 		"/>
		<polygon class="st2" points="530.4,252.9 529.7,250.7 528.9,248.5 563,233.6 597.1,218.6 563.8,235.8 		"/>
	</g>
	<g>
		<ellipse class="st1" cx="939.2" cy="69.6" rx="26.2" ry="62.2"/>
		
			<ellipse transform="matrix(0.6608 -0.7505 0.7505 0.6608 222.775 709.5735)" class="st1" cx="896.5" cy="108.3" rx="29.1" ry="56.1"/>
		<ellipse class="st1" cx="931.7" cy="186.9" rx="35.2" ry="62.2"/>
		
			<ellipse transform="matrix(0.6408 -0.7677 0.7677 0.6408 271.879 789.0151)" class="st1" cx="979.2" cy="103.9" rx="57.5" ry="28.4"/>
		
			<ellipse transform="matrix(0.7654 -0.6435 0.6435 0.7654 123.9074 673.0297)" class="st1" cx="985.1" cy="166.6" rx="55.9" ry="29.2"/>
		
			<ellipse transform="matrix(0.7952 -0.6063 0.6063 0.7952 62.7889 644.235)" class="st1" cx="985.1" cy="229.2" rx="55.5" ry="29.4"/>
		
			<ellipse transform="matrix(0.4934 -0.8698 0.8698 0.4934 303.5459 861.3527)" class="st1" cx="891.2" cy="170.1" rx="29.9" ry="54.6"/>
		
			<ellipse transform="matrix(0.4934 -0.8698 0.8698 0.4934 250.2215 893.2609)" class="st1" cx="891.9" cy="231.8" rx="29.9" ry="54.6"/>
		<polygon class="st2" points="933.1,344.9 938.6,345 944.1,345.1 943,229.1 941.9,113.2 937.5,229 		"/>
		<polygon class="st2" points="940.7,143.6 941.5,142.1 942.3,140.7 911.3,118.3 880.2,95.9 910.5,119.7 		"/>
		<polygon class="st2" points="939.5,141.5 940.6,142.8 941.6,144 967.2,113.5 992.8,83.1 966.2,112.3 		"/>
		<polygon class="st2" points="940.5,192 941.3,193.4 942.1,194.8 971.8,170 1001.5,145.2 971,168.6 		"/>
		<polygon class="st2" points="939.2,251.6 940.1,253.4 941,255.1 971.6,231.8 1002.1,208.4 970.6,230 		"/>
		<polygon class="st2" points="942.5,109 942.8,82.5 943.4,39.7 942.4,82.5 941.8,110.5 941.5,122.6 941.5,124 941.5,125.3 
			941.8,125.3 941.9,125.3 942,125.3 		"/>
		<polygon class="st2" points="941.7,190.7 942.1,189.4 942.6,188.2 908.6,172.7 874.7,157.3 908.2,174 		"/>
		<polygon class="st2" points="942.4,256.8 943.2,254.6 944,252.4 909.8,237.4 875.7,222.5 909.1,239.6 		"/>
	</g>
	<g>
		<ellipse class="st3" cx="725.6" cy="277.3" rx="26.2" ry="62.2"/>
		
			<ellipse transform="matrix(0.6605 -0.7508 0.7508 0.6605 81.7563 657.8605)" class="st3" cx="768.4" cy="238.5" rx="29.1" ry="56.1"/>
		<ellipse class="st3" cx="733.1" cy="160" rx="35.2" ry="62.2"/>
		
			<ellipse transform="matrix(0.6406 -0.7679 0.7679 0.6406 59.9298 613.8561)" class="st3" cx="685.7" cy="242.9" rx="57.5" ry="28.4"/>
		
			<ellipse transform="matrix(0.7652 -0.6438 0.6438 0.7652 43.5229 479.9452)" class="st3" cx="679.7" cy="180.3" rx="55.9" ry="29.2"/>
		
			<ellipse transform="matrix(0.795 -0.6067 0.6067 0.795 67.9577 436.4673)" class="st3" cx="679.7" cy="117.7" rx="55.6" ry="29.4"/>
		<ellipse transform="matrix(0.493 -0.87 0.87 0.493 238.4649 762.6688)" class="st3" cx="773.6" cy="176.7" rx="29.9" ry="54.6"/>
		<ellipse transform="matrix(0.493 -0.87 0.87 0.493 291.7921 730.7193)" class="st3" cx="772.9" cy="115" rx="29.9" ry="54.6"/>
		<polygon class="st2" points="731.6,2 726.2,1.9 720.7,1.8 721.8,117.7 723,233.7 727.3,117.8 		"/>
		<polygon class="st2" points="724.1,203.2 723.3,204.7 722.5,206.2 753.6,228.6 784.6,251 754.4,227.1 		"/>
		<polygon class="st2" points="725.3,205.3 724.3,204.1 723.3,202.9 697.7,233.3 672.1,263.8 698.7,234.5 		"/>
		<polygon class="st2" points="724.4,154.9 723.6,153.5 722.7,152.1 693.1,176.8 663.4,201.6 693.9,178.2 		"/>
		<polygon class="st2" points="725.6,95.2 724.7,93.5 723.8,91.7 693.3,115.1 662.7,138.5 694.2,116.8 		"/>
		<polygon class="st2" points="722.4,237.9 722,264.3 721.5,307.1 722.4,264.3 723.1,236.3 723.3,224.3 723.4,222.8 723.4,221.5 
			723,221.5 723,221.5 722.9,221.5 		"/>
		<polygon class="st2" points="723.1,156.2 722.7,157.4 722.3,158.6 756.2,174.1 790.2,189.5 756.6,172.8 		"/>
		<polygon class="st2" points="722.4,90 721.6,92.2 720.8,94.4 755,109.4 789.1,124.4 755.7,107.2 		"/>
	</g>
	<g>
		<ellipse class="st4" cx="1143.8" cy="272.4" rx="26.2" ry="62.2"/>
		
			<ellipse transform="matrix(0.6605 -0.7508 0.7508 0.6605 227.364 970.1357)" class="st4" cx="1186.5" cy="233.6" rx="29.1" ry="56.1"/>
		<ellipse class="st4" cx="1151.3" cy="155.1" rx="35.2" ry="62.2"/>
		
			<ellipse transform="matrix(0.6406 -0.7679 0.7679 0.6406 213.9722 933.1884)" class="st4" cx="1103.8" cy="238" rx="57.5" ry="28.4"/>
		
			<ellipse transform="matrix(0.7652 -0.6438 0.6438 0.7652 144.8563 748.0044)" class="st4" cx="1097.8" cy="175.4" rx="55.9" ry="29.2"/>
		
			<ellipse transform="matrix(0.795 -0.6067 0.6067 0.795 156.6506 689.1277)" class="st4" cx="1097.8" cy="112.8" rx="55.6" ry="29.4"/>
		
			<ellipse transform="matrix(0.493 -0.87 0.87 0.493 454.7025 1123.9792)" class="st4" cx="1191.8" cy="171.8" rx="29.9" ry="54.6"/>
		<ellipse transform="matrix(0.493 -0.87 0.87 0.493 508.0298 1092.0298)" class="st4" cx="1191" cy="110.1" rx="29.9" ry="54.6"/>
		<polygon class="st2" points="1149.8,-2.9 1144.3,-3 1138.8,-3.1 1140,112.8 1141.1,228.8 1145.4,112.9 		"/>
		<polygon class="st2" points="1142.3,198.4 1141.5,199.8 1140.7,201.3 1171.7,223.7 1202.7,246.1 1172.5,222.2 		"/>
		<polygon class="st2" points="1143.4,200.4 1142.4,199.2 1141.4,198 1115.8,228.4 1090.2,258.9 1116.8,229.7 		"/>
		<polygon class="st2" points="1142.5,150 1141.7,148.6 1140.9,147.2 1111.2,172 1081.5,196.7 1112,173.4 		"/>
		<polygon class="st2" points="1143.7,90.3 1142.8,88.6 1141.9,86.8 1111.4,110.2 1080.9,133.6 1112.3,112 		"/>
		<polygon class="st2" points="1140.5,233 1140.2,259.4 1139.6,302.2 1140.6,259.4 1141.2,231.5 1141.5,219.4 1141.5,217.9 
			1141.5,216.6 1141.2,216.6 1141.1,216.6 1141,216.6 		"/>
		<polygon class="st2" points="1141.2,151.3 1140.8,152.5 1140.4,153.8 1174.3,169.2 1208.3,184.6 1174.8,168 		"/>
		<polygon class="st2" points="1140.5,85.1 1139.7,87.3 1139,89.6 1173.1,104.5 1207.2,119.5 1173.9,102.3 		"/>
	</g>
	<g>
		<ellipse class="st1" cx="288.2" cy="955.4" rx="26.2" ry="62.2"/>
		
			<ellipse transform="matrix(0.7505 -0.6608 0.6608 0.7505 -544.5576 390.8711)" class="st1" cx="245.4" cy="916.7" rx="56.1" ry="29.1"/>
		<ellipse class="st1" cx="280.6" cy="838.1" rx="35.2" ry="62.2"/>
		
			<ellipse transform="matrix(0.7677 -0.6408 0.6408 0.7677 -514.0189 424.2531)" class="st1" cx="328.1" cy="921.1" rx="28.4" ry="57.5"/>
		
			<ellipse transform="matrix(0.6435 -0.7654 0.7654 0.6435 -537.9847 561.7421)" class="st1" cx="334.1" cy="858.4" rx="29.2" ry="55.9"/>
		
			<ellipse transform="matrix(0.6063 -0.7952 0.7952 0.6063 -501.3469 578.9595)" class="st1" cx="334.1" cy="795.8" rx="29.4" ry="55.5"/>
		
			<ellipse transform="matrix(0.8698 -0.4934 0.4934 0.8698 -390.5378 229.7947)" class="st1" cx="240.2" cy="854.9" rx="54.6" ry="29.9"/>
		
			<ellipse transform="matrix(0.8698 -0.4934 0.4934 0.8698 -359.985 222.1178)" class="st1" cx="240.9" cy="793.2" rx="54.6" ry="29.9"/>
		<polygon class="st2" points="282.1,680.1 287.6,680 293,679.9 291.9,795.9 290.8,911.8 286.4,796 		"/>
		<polygon class="st2" points="289.6,881.4 290.4,882.9 291.2,884.3 260.2,906.7 229.2,929.1 259.4,905.3 		"/>
		<polygon class="st2" points="288.5,883.5 289.5,882.2 290.5,881 316.1,911.5 341.7,941.9 315.1,912.7 		"/>
		<polygon class="st2" points="289.4,833 290.2,831.6 291,830.2 320.7,855 350.4,879.8 319.9,856.4 		"/>
		<polygon class="st2" points="288.1,773.4 289.1,771.6 290,769.9 320.5,793.2 351,816.6 319.6,795 		"/>
		<polygon class="st2" points="290.9,899.7 290.8,899.7 290.8,899.7 290.4,899.7 290.4,901 290.5,902.4 290.7,914.5 291.4,942.5 
			292.3,985.3 291.8,942.5 291.4,916 		"/>
		<polygon class="st2" points="290.7,834.3 291.1,835.6 291.5,836.8 257.6,852.3 223.6,867.7 257.1,851 		"/>
		<polygon class="st2" points="291.4,768.2 292.1,770.4 292.9,772.6 258.8,787.6 224.7,802.5 258,785.4 		"/>
	</g>
	<g>
		<ellipse class="st3" cx="93.6" cy="744.7" rx="26.2" ry="62.2"/>
		
			<ellipse transform="matrix(0.7508 -0.6605 0.6605 0.7508 -483.5434 285.2849)" class="st3" cx="136.3" cy="783.5" rx="56.1" ry="29.1"/>
		<ellipse class="st3" cx="101.1" cy="862" rx="35.2" ry="62.2"/>
		
			<ellipse transform="matrix(0.7679 -0.6406 0.6406 0.7679 -486.6056 215.1735)" class="st3" cx="53.6" cy="779.1" rx="28.4" ry="57.5"/>
		
			<ellipse transform="matrix(0.6438 -0.7652 0.7652 0.6438 -627.07 336.2323)" class="st3" cx="47.6" cy="841.7" rx="29.2" ry="55.9"/>
		
			<ellipse transform="matrix(0.6067 -0.795 0.795 0.6067 -700.1539 393.5701)" class="st3" cx="47.6" cy="904.3" rx="29.4" ry="55.6"/>
		<ellipse transform="matrix(0.87 -0.493 0.493 0.87 -398.3255 179.6565)" class="st3" cx="141.6" cy="845.3" rx="54.6" ry="29.9"/>
		<ellipse transform="matrix(0.87 -0.493 0.493 0.87 -428.8567 187.3103)" class="st3" cx="140.8" cy="907" rx="54.6" ry="29.9"/>
		<polygon class="st2" points="99.6,1020 94.1,1020.1 88.6,1020.2 89.8,904.3 90.9,788.3 95.3,904.2 		"/>
		<polygon class="st2" points="92.1,818.8 91.3,817.3 90.5,815.8 121.5,793.4 152.6,771 122.3,794.9 		"/>
		<polygon class="st2" points="93.2,816.7 92.2,817.9 91.2,819.1 65.6,788.7 40,758.2 66.6,787.5 		"/>
		<polygon class="st2" points="92.3,867.1 91.5,868.5 90.7,869.9 61,845.2 31.3,820.4 61.8,843.8 		"/>
		<polygon class="st2" points="93.6,926.8 92.6,928.5 91.7,930.3 61.2,906.9 30.7,883.5 62.1,905.2 		"/>
		<polygon class="st2" points="90.8,800.5 90.9,800.5 91,800.5 91.3,800.5 91.3,799.2 91.3,797.7 91,785.7 90.4,757.7 89.4,714.9 
			90,757.7 90.3,784.1 		"/>
		<polygon class="st2" points="91.1,865.8 90.6,864.6 90.2,863.4 124.2,847.9 158.1,832.5 124.6,849.2 		"/>
		<polygon class="st2" points="90.3,932 89.5,929.8 88.8,927.6 122.9,912.6 157,897.6 123.7,914.8 		"/>
	</g>
	<g>
		<ellipse class="st4" cx="476.7" cy="745.6" rx="26.2" ry="62.2"/>
		
			<ellipse transform="matrix(0.7508 -0.6605 0.6605 0.7508 -388.6487 538.5756)" class="st4" cx="519.4" cy="784.4" rx="56.1" ry="29.1"/>
		<ellipse class="st4" cx="484.2" cy="862.9" rx="35.2" ry="62.2"/>
		
			<ellipse transform="matrix(0.7679 -0.6406 0.6406 0.7679 -398.2488 460.7969)" class="st4" cx="436.8" cy="780" rx="28.4" ry="57.5"/>
		
			<ellipse transform="matrix(0.6438 -0.7652 0.7652 0.6438 -491.2845 629.707)" class="st4" cx="430.8" cy="842.6" rx="29.2" ry="55.9"/>
		
			<ellipse transform="matrix(0.6067 -0.795 0.795 0.6067 -550.1516 698.4937)" class="st4" cx="430.8" cy="905.2" rx="29.4" ry="55.6"/>
		<ellipse transform="matrix(0.87 -0.493 0.493 0.87 -348.9631 368.6575)" class="st4" cx="524.7" cy="846.2" rx="54.6" ry="29.9"/>
		<ellipse transform="matrix(0.87 -0.493 0.493 0.87 -379.4942 376.3112)" class="st4" cx="523.9" cy="907.9" rx="54.6" ry="29.9"/>
		<polygon class="st2" points="482.7,1020.9 477.2,1021 471.7,1021.1 472.9,905.2 474.1,789.2 478.4,905.1 		"/>
		<polygon class="st2" points="475.2,819.6 474.4,818.2 473.6,816.7 504.6,794.3 535.7,771.9 505.5,795.8 		"/>
		<polygon class="st2" points="476.4,817.6 475.4,818.8 474.4,820 448.8,789.6 423.2,759.1 449.8,788.3 		"/>
		<polygon class="st2" points="475.4,868 474.6,869.4 473.8,870.8 444.1,846 414.4,821.3 444.9,844.6 		"/>
		<polygon class="st2" points="476.7,927.7 475.8,929.4 474.8,931.2 444.3,907.8 413.8,884.4 445.3,906 		"/>
		<polygon class="st2" points="473.9,801.4 474.1,801.4 474.1,801.4 474.5,801.4 474.4,800.1 474.4,798.6 474.1,786.5 473.5,758.6 
			472.6,715.8 473.1,758.6 473.4,785 		"/>
		<polygon class="st2" points="474.2,866.7 473.8,865.5 473.3,864.2 507.3,848.8 541.2,833.4 507.7,850 		"/>
		<polygon class="st2" points="473.4,932.9 472.7,930.7 471.9,928.4 506,913.5 540.2,898.5 506.8,915.7 		"/>
	</g>
	<g>
		<ellipse class="st1" cx="926.2" cy="748.5" rx="26.2" ry="62.2"/>
		
			<ellipse transform="matrix(0.6608 -0.7505 0.7505 0.6608 -291.1816 930.0983)" class="st1" cx="883.5" cy="787.2" rx="29.1" ry="56.1"/>
		<ellipse class="st1" cx="918.7" cy="865.8" rx="35.2" ry="62.2"/>
		
			<ellipse transform="matrix(0.6408 -0.7677 0.7677 0.6408 -253.9732 1022.8892)" class="st1" cx="966.2" cy="782.9" rx="57.5" ry="28.4"/>
		
			<ellipse transform="matrix(0.7654 -0.6435 0.6435 0.7654 -316.0373 823.9304)" class="st1" cx="972.2" cy="845.5" rx="55.9" ry="29.2"/>
		
			<ellipse transform="matrix(0.7952 -0.6063 0.6063 0.7952 -351.5161 775.3948)" class="st1" cx="972.1" cy="908.1" rx="55.5" ry="29.4"/>
		
			<ellipse transform="matrix(0.4934 -0.8698 0.8698 0.4934 -293.5609 1194.0067)" class="st1" cx="878.2" cy="849" rx="29.9" ry="54.6"/>
		
			<ellipse transform="matrix(0.4934 -0.8698 0.8698 0.4934 -346.8853 1225.9149)" class="st1" cx="879" cy="910.7" rx="29.9" ry="54.6"/>
		<polygon class="st2" points="920.2,1023.8 925.6,1023.9 931.1,1024 930,908.1 928.9,792.1 924.5,907.9 		"/>
		<polygon class="st2" points="927.7,822.5 928.5,821.1 929.3,819.6 898.3,797.2 867.3,774.8 897.5,798.7 		"/>
		<polygon class="st2" points="926.6,820.5 927.6,821.7 928.6,822.9 954.2,792.4 979.8,762 953.2,791.2 		"/>
		<polygon class="st2" points="927.5,870.9 928.3,872.3 929.1,873.7 958.8,848.9 988.5,824.2 958,847.5 		"/>
		<polygon class="st2" points="926.2,930.5 927.1,932.3 928.1,934.1 958.6,910.7 989.1,887.3 957.6,908.9 		"/>
		<polygon class="st2" points="929.5,787.9 929.8,761.5 930.4,718.7 929.4,761.5 928.8,789.4 928.5,801.5 928.5,802.9 928.5,804.2 
			928.8,804.3 928.9,804.3 929,804.3 		"/>
		<polygon class="st2" points="928.7,869.6 929.2,868.4 929.6,867.1 895.6,851.7 861.7,836.2 895.2,852.9 		"/>
		<polygon class="st2" points="929.5,935.7 930.2,933.5 931,931.3 896.9,916.4 862.8,901.4 896.1,918.6 		"/>
	</g>
	<g>
		<ellipse class="st3" cx="692.7" cy="965.2" rx="26.2" ry="62.2"/>
		
			<ellipse transform="matrix(0.6605 -0.7508 0.7508 0.6605 -445.9296 866.6244)" class="st3" cx="735.4" cy="926.4" rx="29.1" ry="56.1"/>
		<ellipse class="st3" cx="700.2" cy="847.9" rx="35.2" ry="62.2"/>
		
			<ellipse transform="matrix(0.6406 -0.7679 0.7679 0.6406 -480.1856 835.7953)" class="st3" cx="652.7" cy="930.8" rx="57.5" ry="28.4"/>
		
			<ellipse transform="matrix(0.7652 -0.6438 0.6438 0.7652 -407.1259 620.2552)" class="st3" cx="646.7" cy="868.2" rx="55.9" ry="29.2"/>
		
			<ellipse transform="matrix(0.795 -0.6067 0.6067 0.795 -356.1348 557.5056)" class="st3" cx="646.7" cy="805.6" rx="55.6" ry="29.4"/>
		
			<ellipse transform="matrix(0.493 -0.87 0.87 0.493 -376.7658 1082.7448)" class="st3" cx="740.6" cy="864.6" rx="29.9" ry="54.6"/>
		
			<ellipse transform="matrix(0.493 -0.87 0.87 0.493 -323.4385 1050.7953)" class="st3" cx="739.9" cy="802.9" rx="29.9" ry="54.6"/>
		<polygon class="st2" points="698.7,689.9 693.2,689.8 687.7,689.7 688.8,805.6 690,921.6 694.3,805.7 		"/>
		<polygon class="st2" points="691.2,891.2 690.4,892.6 689.6,894.1 720.6,916.5 751.6,938.9 721.4,915 		"/>
		<polygon class="st2" points="692.3,893.2 691.3,892 690.3,890.8 664.7,921.3 639.1,951.7 665.7,922.5 		"/>
		<polygon class="st2" points="691.4,842.8 690.6,841.4 689.8,840 660.1,864.8 630.4,889.5 660.9,866.2 		"/>
		<polygon class="st2" points="692.6,783.1 691.7,781.4 690.8,779.6 660.3,803 629.8,826.4 661.2,804.8 		"/>
		<polygon class="st2" points="689.4,925.8 689,952.2 688.5,995 689.5,952.2 690.1,924.3 690.3,912.2 690.4,910.7 690.4,909.4 
			690,909.4 690,909.4 689.9,909.4 		"/>
		<polygon class="st2" points="690.1,844.1 689.7,845.3 689.3,846.6 723.2,862 757.2,877.4 723.7,860.8 		"/>
		<polygon class="st2" points="689.4,777.9 688.6,780.1 687.9,782.4 722,797.3 756.1,812.3 722.7,795.1 		"/>
	</g>
	<g>
		<ellipse class="st4" cx="1149.8" cy="952.3" rx="26.2" ry="62.2"/>
		
			<ellipse transform="matrix(0.6605 -0.7508 0.7508 0.6605 -281.0763 1205.4651)" class="st4" cx="1192.5" cy="913.6" rx="29.1" ry="56.1"/>
		<ellipse class="st4" cx="1157.3" cy="835" rx="35.2" ry="62.2"/>
		
			<ellipse transform="matrix(0.6406 -0.7679 0.7679 0.6406 -305.9818 1182.2004)" class="st4" cx="1109.8" cy="917.9" rx="57.5" ry="28.4"/>
		
			<ellipse transform="matrix(0.7652 -0.6438 0.6438 0.7652 -291.4835 911.545)" class="st4" cx="1103.8" cy="855.3" rx="55.9" ry="29.2"/>
		
			<ellipse transform="matrix(0.795 -0.6067 0.6067 0.795 -254.5923 832.1852)" class="st4" cx="1103.8" cy="792.7" rx="55.6" ry="29.4"/>
		
			<ellipse transform="matrix(0.493 -0.87 0.87 0.493 -133.7952 1473.9303)" class="st4" cx="1197.8" cy="851.8" rx="29.9" ry="54.6"/>
		<ellipse transform="matrix(0.493 -0.87 0.87 0.493 -80.4679 1441.9808)" class="st4" cx="1197" cy="790" rx="29.9" ry="54.6"/>
		<polygon class="st2" points="1155.8,677 1150.3,676.9 1144.8,676.8 1146,792.7 1147.1,908.7 1151.5,792.9 		"/>
		<polygon class="st2" points="1148.3,878.3 1147.5,879.7 1146.7,881.2 1177.7,903.6 1208.8,926 1178.5,902.1 		"/>
		<polygon class="st2" points="1149.4,880.3 1148.4,879.1 1147.4,877.9 1121.8,908.4 1096.2,938.8 1122.8,909.6 		"/>
		<polygon class="st2" points="1148.5,829.9 1147.7,828.5 1146.9,827.1 1117.2,851.9 1087.5,876.7 1118,853.3 		"/>
		<polygon class="st2" points="1149.8,770.3 1148.8,768.5 1147.9,766.7 1117.4,790.1 1086.9,813.5 1118.3,791.9 		"/>
		<polygon class="st2" points="1146.5,912.9 1146.2,939.3 1145.6,982.1 1146.6,939.4 1147.2,911.4 1147.5,899.3 1147.5,897.9 
			1147.5,896.6 1147.2,896.5 1147.1,896.5 1147,896.5 		"/>
		<polygon class="st2" points="1147.3,831.2 1146.8,832.4 1146.4,833.7 1180.4,849.1 1214.3,864.6 1180.8,847.9 		"/>
		<polygon class="st2" points="1146.5,765.1 1145.8,767.3 1145,769.5 1179.1,784.4 1213.2,799.4 1179.9,782.2 		"/>
	</g>
	<g>
		
			<ellipse transform="matrix(1.429889e-03 -1 1 1.429889e-03 569.5888 1412.3198)" class="st1" cx="992" cy="421" rx="62.2" ry="26.2"/>
		
			<ellipse transform="matrix(0.7521 -0.6591 0.6591 0.7521 -46.52 795.9111)" class="st1" cx="1034.6" cy="459.8" rx="56.1" ry="29.1"/>
		
			<ellipse transform="matrix(1.276486e-03 -1 1 1.276486e-03 459.7419 1536.8541)" class="st1" cx="999.3" cy="538.3" rx="62.2" ry="35.2"/>
		
			<ellipse transform="matrix(0.769 -0.6392 0.6392 0.769 -71.1119 713.6305)" class="st1" cx="952" cy="455.2" rx="28.3" ry="57.6"/>
		
			<ellipse transform="matrix(0.6453 -0.7639 0.7639 0.6453 -60.0788 906.2177)" class="st1" cx="945.9" cy="517.8" rx="29.2" ry="56"/>
		
			<ellipse transform="matrix(0.6082 -0.7938 0.7938 0.6082 -90.1967 978.0909)" class="st1" cx="945.8" cy="580.4" rx="29.4" ry="55.6"/>
		
			<ellipse transform="matrix(0.8711 -0.4911 0.4911 0.8711 -122.1265 577.9258)" class="st1" cx="1039.8" cy="521.6" rx="54.5" ry="29.9"/>
		
			<ellipse transform="matrix(0.8711 -0.4911 0.4911 0.8711 -152.5531 585.4683)" class="st1" cx="1038.9" cy="583.3" rx="54.5" ry="29.9"/>
		<polygon class="st2" points="997.5,696.3 992.1,696.3 986.6,696.4 987.9,580.5 989.2,464.6 993.4,580.4 		"/>
		<polygon class="st2" points="990.4,495 989.6,493.5 988.8,492 1019.8,469.7 1050.9,447.4 1020.6,471.2 		"/>
		<polygon class="st2" points="991.5,492.9 990.5,494.1 989.5,495.3 964,464.8 938.4,434.3 965,463.6 		"/>
		<polygon class="st2" points="990.5,543.4 989.7,544.8 988.9,546.1 959.2,521.3 929.6,496.5 960,519.9 		"/>
		<polygon class="st2" points="991.7,603 990.7,604.7 989.8,606.5 959.3,583.1 928.9,559.6 960.3,581.3 		"/>
		<polygon class="st2" points="989.1,476.7 989.2,476.7 989.3,476.7 989.6,476.7 989.6,475.4 989.6,473.9 989.3,461.9 988.7,433.9 
			987.9,391.1 988.3,433.9 988.6,460.3 		"/>
		<polygon class="st2" points="989.3,542.1 988.8,540.8 988.4,539.6 1022.4,524.2 1056.4,508.8 1022.8,525.4 		"/>
		<polygon class="st2" points="988.4,608.2 987.6,606 986.9,603.8 1021,588.9 1055.2,574 1021.8,591.1 		"/>
	</g>
	<g>
		
			<ellipse transform="matrix(1.726232e-03 -1 1 1.726232e-03 578.9672 1798.2496)" class="st3" cx="1190.2" cy="609.1" rx="62.2" ry="26.2"/>
		
			<ellipse transform="matrix(0.7523 -0.6588 0.6588 0.7523 -91.4996 897.1992)" class="st3" cx="1147.5" cy="570.3" rx="56.1" ry="29.1"/>
		
			<ellipse transform="matrix(1.541036e-03 -1 1 1.541036e-03 689.2294 1673.959)" class="st3" cx="1182.9" cy="491.8" rx="62.2" ry="35.2"/>
		
			<ellipse transform="matrix(0.7693 -0.6389 0.6389 0.7693 -83.48 918.6241)" class="st3" cx="1230.2" cy="574.9" rx="28.3" ry="57.6"/>
		
			<ellipse transform="matrix(0.6456 -0.7637 0.7637 0.6456 46.881 1125.6495)" class="st3" cx="1236.3" cy="512.3" rx="29.2" ry="56"/>
		
			<ellipse transform="matrix(0.6086 -0.7935 0.7935 0.6086 127.132 1157.1184)" class="st3" cx="1236.4" cy="449.7" rx="29.4" ry="55.6"/>
		
			<ellipse transform="matrix(0.8713 -0.4908 0.4908 0.8713 -102.516 626.0593)" class="st3" cx="1142.4" cy="508.5" rx="54.5" ry="29.9"/>
		
			<ellipse transform="matrix(0.8713 -0.4908 0.4908 0.8713 -72.1112 618.5397)" class="st3" cx="1143.2" cy="446.8" rx="54.5" ry="29.9"/>
		<polygon class="st2" points="1184.7,333.8 1190.2,333.7 1195.6,333.7 1194.3,449.6 1192.9,565.5 1188.8,449.7 		"/>
		<polygon class="st2" points="1191.8,535.1 1192.6,536.6 1193.4,538.1 1162.3,560.4 1131.2,582.7 1161.5,558.9 		"/>
		<polygon class="st2" points="1190.6,537.2 1191.6,536 1192.7,534.8 1218.2,565.3 1243.7,595.8 1217.2,566.5 		"/>
		<polygon class="st2" points="1191.7,486.7 1192.5,485.4 1193.3,484 1222.9,508.8 1252.6,533.7 1222.1,510.2 		"/>
		<polygon class="st2" points="1190.5,427.1 1191.5,425.4 1192.4,423.6 1222.8,447 1253.3,470.5 1221.9,448.8 		"/>
		<polygon class="st2" points="1193,553.4 1192.9,553.4 1192.9,553.4 1192.5,553.4 1192.5,554.7 1192.6,556.2 1192.8,568.2 
			1193.4,596.2 1194.3,639 1193.8,596.2 1193.5,569.8 		"/>
		<polygon class="st2" points="1192.9,488 1193.3,489.3 1193.8,490.5 1159.8,505.9 1125.8,521.2 1159.4,504.6 		"/>
		<polygon class="st2" points="1193.8,421.9 1194.5,424.1 1195.3,426.3 1161.2,441.2 1127,456.1 1160.4,439 		"/>
	</g>
	<g>
		
			<ellipse transform="matrix(1.726232e-03 -1 1 1.726232e-03 171.386 1432.2047)" class="st4" cx="803" cy="630.3" rx="62.2" ry="26.2"/>
		
			<ellipse transform="matrix(0.7523 -0.6588 0.6588 0.7523 -201.293 647.3951)" class="st4" cx="760.4" cy="591.4" rx="56.1" ry="29.1"/>
		
			<ellipse transform="matrix(1.541036e-03 -1 1 1.541036e-03 281.5765 1307.9178)" class="st4" cx="795.8" cy="513" rx="62.2" ry="35.2"/>
		
			<ellipse transform="matrix(0.7693 -0.6389 0.6389 0.7693 -186.2944 676.1534)" class="st4" cx="843" cy="596" rx="28.3" ry="57.6"/>
		
			<ellipse transform="matrix(0.6456 -0.7637 0.7637 0.6456 -106.4362 837.5012)" class="st4" cx="849.2" cy="533.4" rx="29.2" ry="56"/>
		
			<ellipse transform="matrix(0.6086 -0.7935 0.7935 0.6086 -41.1612 858.1981)" class="st4" cx="849.3" cy="470.8" rx="29.4" ry="55.6"/>
		
			<ellipse transform="matrix(0.8713 -0.4908 0.4908 0.8713 -162.7044 438.7933)" class="st4" cx="755.2" cy="529.6" rx="54.5" ry="29.9"/>
		
			<ellipse transform="matrix(0.8713 -0.4908 0.4908 0.8713 -132.2995 431.2738)" class="st4" cx="756.1" cy="467.9" rx="54.5" ry="29.9"/>
		<polygon class="st2" points="797.5,355 803,354.9 808.5,354.8 807.1,470.7 805.8,586.7 801.7,470.8 		"/>
		<polygon class="st2" points="804.7,556.2 805.5,557.7 806.3,559.2 775.2,581.5 744.1,603.8 774.4,580 		"/>
		<polygon class="st2" points="803.5,558.3 804.5,557.1 805.5,555.9 831.1,586.4 856.6,616.9 830.1,587.6 		"/>
		<polygon class="st2" points="804.5,507.9 805.3,506.5 806.2,505.1 835.8,529.9 865.4,554.8 835,531.3 		"/>
		<polygon class="st2" points="803.4,448.2 804.3,446.5 805.2,444.7 835.7,468.2 866.2,491.6 834.8,469.9 		"/>
		<polygon class="st2" points="805.9,574.5 805.8,574.5 805.8,574.5 805.4,574.5 805.4,575.8 805.4,577.3 805.7,589.3 806.3,617.3 
			807.1,660.1 806.7,617.3 806.4,590.9 		"/>
		<polygon class="st2" points="805.8,509.2 806.2,510.4 806.6,511.6 772.6,527 738.7,542.4 772.2,525.8 		"/>
		<polygon class="st2" points="806.7,443 807.4,445.2 808.2,447.5 774,462.3 739.9,477.2 773.3,460.1 		"/>
	</g>
	<g>
		
			<ellipse transform="matrix(2.022574e-03 -1 1 2.022574e-03 -250.6127 979.6297)" class="st1" cx="365.5" cy="615.4" rx="62.2" ry="26.2"/>
		
			<ellipse transform="matrix(0.6626 -0.749 0.749 0.6626 -294.219 500.4484)" class="st1" cx="408.3" cy="576.8" rx="29.1" ry="56.2"/>
		
			<ellipse transform="matrix(1.805586e-03 -1 1 1.805586e-03 -125.5262 870.4662)" class="st1" cx="373.3" cy="498.1" rx="62.2" ry="35.2"/>
		
			<ellipse transform="matrix(0.6425 -0.7663 0.7663 0.6425 -328.7309 457.2122)" class="st1" cx="325.6" cy="580.9" rx="57.5" ry="28.4"/>
		
			<ellipse transform="matrix(0.7669 -0.6417 0.6417 0.7669 -258.0687 325.9908)" class="st1" cx="319.8" cy="518.3" rx="55.9" ry="29.2"/>
		
			<ellipse transform="matrix(0.7967 -0.6044 0.6044 0.7967 -210.367 285.9992)" class="st1" cx="319.9" cy="455.7" rx="55.5" ry="29.4"/>
		
			<ellipse transform="matrix(0.4956 -0.8685 0.8685 0.4956 -238.6249 619.0554)" class="st1" cx="413.7" cy="515" rx="29.9" ry="54.6"/>
		
			<ellipse transform="matrix(0.4956 -0.8685 0.8685 0.4956 -185.3176 587.3869)" class="st1" cx="413.1" cy="453.3" rx="29.9" ry="54.6"/>
		<polygon class="st2" points="372.1,340.1 366.6,340 361.1,339.9 362,455.8 362.9,571.8 367.5,455.9 		"/>
		<polygon class="st2" points="364.2,541.4 363.4,542.8 362.6,544.3 393.5,566.8 424.5,589.3 394.3,565.3 		"/>
		<polygon class="st2" points="365.3,543.4 364.3,542.2 363.3,541 337.7,571.4 312,601.7 338.7,572.6 		"/>
		<polygon class="st2" points="364.5,493 363.7,491.6 362.9,490.2 333.1,514.9 303.4,539.6 334,516.3 		"/>
		<polygon class="st2" points="365.9,433.3 365,431.6 364,429.8 333.5,453.1 302.9,476.4 334.4,454.9 		"/>
		<polygon class="st2" points="362.3,576 361.9,602.4 361.3,645.2 362.3,602.4 363,574.4 363.3,562.4 363.3,560.9 363.4,559.6 
			363,559.6 363,559.6 362.8,559.6 		"/>
		<polygon class="st2" points="363.2,494.3 362.8,495.5 362.4,496.7 396.3,512.3 430.2,527.8 396.7,511.1 		"/>
		<polygon class="st2" points="362.6,428.1 361.9,430.3 361.1,432.5 395.2,447.6 429.3,462.7 396,445.4 		"/>
	</g>
	<g>
		
			<ellipse transform="matrix(1.726232e-03 -1 1 1.726232e-03 166.2595 1020.9577)" class="st3" cx="594.5" cy="427.2" rx="62.2" ry="26.2"/>
		
			<ellipse transform="matrix(0.6623 -0.7493 0.7493 0.6623 -162.7125 570.6794)" class="st3" cx="551.7" cy="465.8" rx="29.1" ry="56.2"/>
		
			<ellipse transform="matrix(1.541036e-03 -1 1 1.541036e-03 41.3943 1130.4065)" class="st3" cx="586.8" cy="544.5" rx="62.2" ry="35.2"/>
		
			<ellipse transform="matrix(0.6422 -0.7665 0.7665 0.6422 -126.8979 651.453)" class="st3" cx="634.4" cy="461.7" rx="57.5" ry="28.4"/>
		
			<ellipse transform="matrix(0.7667 -0.642 0.642 0.7667 -187.2149 533.3842)" class="st3" cx="640.3" cy="524.3" rx="55.9" ry="29.2"/>
		
			<ellipse transform="matrix(0.7964 -0.6047 0.6047 0.7964 -224.5957 506.5859)" class="st3" cx="640.1" cy="586.9" rx="55.5" ry="29.4"/>
		
			<ellipse transform="matrix(0.4953 -0.8687 0.8687 0.4953 -182.6124 740.921)" class="st3" cx="546.3" cy="527.6" rx="29.9" ry="54.6"/>
		
			<ellipse transform="matrix(0.4953 -0.8687 0.8687 0.4953 -235.9227 772.6306)" class="st3" cx="546.9" cy="589.3" rx="29.9" ry="54.6"/>
		<polygon class="st2" points="588,702.5 593.5,702.6 598.9,702.7 598,586.8 597.1,470.8 592.5,586.6 		"/>
		<polygon class="st2" points="595.8,501.2 596.7,499.8 597.5,498.3 566.5,475.8 535.5,453.4 565.7,477.3 		"/>
		<polygon class="st2" points="594.7,499.2 595.7,500.4 596.7,501.6 622.3,471.2 648,440.8 621.3,470 		"/>
		<polygon class="st2" points="595.5,549.6 596.3,551 597.1,552.4 626.9,527.7 656.6,503 626.1,526.3 		"/>
		<polygon class="st2" points="594.2,609.2 595.1,611 596,612.8 626.6,589.5 657.1,566.2 625.6,587.7 		"/>
		<polygon class="st2" points="597.7,466.6 598.1,440.2 598.7,397.4 597.7,440.2 597,468.1 596.7,480.2 596.7,481.6 596.6,483 
			597,483 597,483 597.2,483 		"/>
		<polygon class="st2" points="596.8,548.3 597.2,547.1 597.6,545.8 563.7,530.3 529.8,514.8 563.3,531.5 		"/>
		<polygon class="st2" points="597.4,614.5 598.2,612.2 598.9,610 564.8,595 530.8,579.9 564.1,597.2 		"/>
	</g>
	<g>
		
			<ellipse transform="matrix(1.726232e-03 -1 1 1.726232e-03 -292.9541 550.7186)" class="st4" cx="129.4" cy="422.1" rx="62.2" ry="26.2"/>
		
			<ellipse transform="matrix(0.6623 -0.7493 0.7493 0.6623 -315.9669 220.4454)" class="st4" cx="86.6" cy="460.7" rx="29.1" ry="56.2"/>
		
			<ellipse transform="matrix(1.541036e-03 -1 1 1.541036e-03 -417.9055 660.1663)" class="st4" cx="121.6" cy="539.4" rx="62.2" ry="35.2"/>
		
			<ellipse transform="matrix(0.6422 -0.7665 0.7665 0.6422 -289.4006 293.0812)" class="st4" cx="169.2" cy="456.5" rx="57.5" ry="28.4"/>
		
			<ellipse transform="matrix(0.7667 -0.642 0.642 0.7667 -292.4541 233.5628)" class="st4" cx="175.1" cy="519.2" rx="55.9" ry="29.2"/>
		
			<ellipse transform="matrix(0.7964 -0.6047 0.6047 0.7964 -316.1897 224.2634)" class="st4" cx="175" cy="581.8" rx="55.5" ry="29.4"/>
		
			<ellipse transform="matrix(0.4953 -0.8687 0.8687 0.4953 -412.9412 334.2559)" class="st4" cx="81.2" cy="522.5" rx="29.9" ry="54.6"/>
		
			<ellipse transform="matrix(0.4953 -0.8687 0.8687 0.4953 -466.2515 365.9655)" class="st4" cx="81.8" cy="584.2" rx="29.9" ry="54.6"/>
		<polygon class="st2" points="122.8,697.4 128.3,697.5 133.8,697.6 132.9,581.6 131.9,465.7 127.4,581.5 		"/>
		<polygon class="st2" points="130.7,496.1 131.5,494.6 132.3,493.2 101.3,470.7 70.3,448.2 100.5,472.2 		"/>
		<polygon class="st2" points="129.6,494 130.6,495.3 131.6,496.5 157.2,466.1 182.9,435.7 156.2,464.9 		"/>
		<polygon class="st2" points="130.4,544.5 131.2,545.9 132,547.3 161.7,522.6 191.5,497.9 160.9,521.2 		"/>
		<polygon class="st2" points="129,604.1 130,605.9 130.9,607.6 161.4,584.4 192,561.1 160.5,582.6 		"/>
		<polygon class="st2" points="132.6,461.5 132.9,435.1 133.6,392.2 132.5,435 131.9,463 131.6,475.1 131.5,476.5 131.5,477.8 
			131.9,477.8 131.9,477.8 132,477.8 		"/>
		<polygon class="st2" points="131.7,543.2 132.1,542 132.5,540.7 98.6,525.2 64.7,509.7 98.2,526.4 		"/>
		<polygon class="st2" points="132.3,609.3 133,607.1 133.8,604.9 99.7,589.9 65.6,574.8 99,592.1 		"/>
	</g>
</g>
<g id="circle">
	<circle class="st5" cx="649" cy="583" r="433.5"/>
</g>
<g id="pumpkin">
	<g>
		<path class="st6" d="M852.4,838.3c28.5,103.9-17.9,120.5-58.1,131.5c-40.1,11-100.4,31-128.8-72.9
			c-28.5-103.9-14.4-292.5,25.7-303.5S823.9,734.3,852.4,838.3z"/>
		<path class="st6" d="M612.8,886.5C579,988.8,531.1,977,491.6,963.9s-100.7-29.7-66.9-132.1s149.9-251.6,189.4-238.5
			C653.6,606.4,646.6,784.2,612.8,886.5z"/>
		<path class="st7" d="M669.9,882.7c-17,106.4-66.1,102.4-107.2,95.8c-41.1-6.6-104.2-13.2-87.2-119.7s107.7-272.3,148.8-265.7
			C665.4,599.7,686.9,776.3,669.9,882.7z"/>
		<path class="st7" d="M802.3,855.9c17.7,106.3-30.2,118.1-71.2,124.9c-41,6.8-103,20.6-120.7-85.8C592.7,788.7,626,602.6,667,595.8
			C708.1,588.9,784.6,749.6,802.3,855.9z"/>
		<path class="st8" d="M717.5,868.3c6,31.1,14.9,80.5-11.3,103.4c-14.7,12.9-35.9,13.4-59.3,14c-23.2,0.6-56.6,1.5-75.8-17.3
			c-23.9-23.3-15.6-67.2-10.2-94.3c37.6-186.6,56.3-279.8,86-278.8C665.1,596.1,682.6,686.8,717.5,868.3z"/>
		<g>
			<path class="st9" d="M599.2,789.1c-14.3,0-28.6,0-42.9,0c-14.3,0-28.6,0-42.9,0c-4.1-10.9,1.7-24.7,10.6-38.9
				c10.4-18,25.8-36.5,33.4-50.3c8.1,14,23.9,33.1,34.2,51.5C599.3,765.3,603.6,778.6,599.2,789.1z"/>
		</g>
		<g>
			<path class="st9" d="M761.7,789.1c-14.3,0-28.6,0-42.9,0s-28.6,0-42.9,0c-4.1-10.9,1.7-24.7,10.6-38.9
				c10.4-18,25.8-36.5,33.4-50.3c8.1,14,23.9,33.1,34.2,51.5C761.8,765.3,766.2,778.6,761.7,789.1z"/>
		</g>
		<circle class="st7" cx="559.8" cy="782.9" r="20.2"/>
		<circle class="st7" cx="720.5" cy="783.4" r="20"/>
		<g>
			<path class="st9" d="M767.3,837.7c-0.4-0.2-6.4,16.2-26.6,34.6c-19.6,18.1-53.3,38.1-95.3,38.6c-42,1.7-78.9-17.5-100.8-36.3
				c-22.6-18.9-30.2-37.5-30.8-36.9c-0.1-0.5,16.7,10.8,41.3,18.9c24.6,8.6,57.1,14.1,89.4,12.8
				C708.5,870.3,766.4,838.2,767.3,837.7z"/>
		</g>
		<rect x="598" y="852.7" class="st8" width="27.3" height="35.6"/>
		<rect x="655.8" y="853.7" class="st8" width="27.3" height="35.6"/>
	</g>
</g>
<g id="body">
	<path class="st10" d="M328,932"/>
	<path class="st11" d="M740.6,547.8c11.9,38.4,35.9,54.7,25.2,64.7c-10.4,9.7-46.7,10.6-64.2,0c-11.4-6.9-9.8-26-10-59.6
		c-0.2-29.2,4.3-39.4,9-46.2c0.7-1,13.9-20.1,24.1-17.1C735.3,492.6,730.3,514.5,740.6,547.8z"/>
	<path class="st10" d="M689.8,619.1c-9.4,3.1-56,7.7-84.7,8.1c-23.7,0.3-50.3,2.4-65.3-0.8c-6.4-1.4-27.4-18.9-33.1-48.4
		c-4.5-23.3,9.7-52.7,17.7-59.7c36.2-31.6,65.3-20.2,80.2-56.3c1.1-2.7,2.2-5.5,3.2-8.2c0.1-0.4,0.3-0.7,0.4-1.1
		c0.2-0.5,0.4-1,0.6-1.5c12.6-34.4,20.2-70.8,39.8-64.5c2.9,0.9,5.8,2,8.6,3.2c3.9,1.7,7.7,3.6,11.4,5.9h0
		c17.2,10.3,32.4,26.4,42.2,48.2c1.2,2.6,5.4,2.7,8,4.3c0.6,0.4,1.1,0.9,1.5,1.5c1.2,2.1,2.2,4.2,3.1,6.3c9.5,22.6,5.1,48.6,5,56.6
		C727.9,546.1,737.8,603.6,689.8,619.1z"/>
	<path class="st11" d="M610.5,567.3c4.8,26.9-7.7,43.7-5,45.9c1,1,5.8-1.6,10.4-9.4c4.5-7.6,8.9-20.4,6.6-36
		c-1.9-15.6-10.8-29.4-19.5-37.5c-8.7-8.3-17.3-11.1-18.4-10.2c-1.6,1.2,4.1,5.7,10.5,13.9C601.3,542.1,608.3,554,610.5,567.3z"/>
	<path class="st11" d="M689.8,559.9c11.9,38.4,35.9,54.7,25.2,64.7c-10.4,9.7-46.7,10.6-64.2,0c-11.4-6.9-9.8-26-10-59.6
		c-0.2-29.2,4.3-39.4,9-46.2c0.7-1,13.9-20.1,24.1-17.1C684.5,504.7,679.4,526.6,689.8,559.9z"/>
	<path class="st10" d="M689.7,559.8c7.3,40.3,23.7,55,15,65.3c-6.8,8-24.2,8.1-35.9,4c-3.4-1.2-7.2-2.5-10.6-5.6
		c-10-9.2-5.4-23.9-2.5-59.1c2.9-35,0.3-49.8,12-59.1c2.1-1.7,6.4-5.1,10.6-3.8C687.7,504.6,683.9,528,689.7,559.8z"/>
</g>
<g id="HEAD">
	<path class="st10" d="M584.2,575.2c0.8,1.7-14.5,14.1-43.5,28.8c-41.2,20.9-76.4,38.4-120.8,35.1c-12.9-1-80.8-6.1-110.9-60
		c-32.6-58.4-0.8-137.9,20-139c26.5-1.4,24.7,125,96,149c36.7,12.4,97.4-1.3,111.3-3.8C565.1,580.2,583.1,572.8,584.2,575.2z"/>
	<polygon class="st12" points="-165,-30 -165,-30 -165,-30 -165,-30 	"/>
	<g>
		<g>
			<g>
				<path class="st11" d="M820.5,370c0,6.7-0.8,13-2.2,18.9c-0.1,0.3-0.1,0.6-0.2,0.9c-0.5,1.8-1,3.5-1.5,5.3c0,0.2-0.1,0.3-0.2,0.5
					c-0.7,2-1.5,4-2.3,5.9c-1.5-0.5-3-1-4.5-1.6c-16.2,24.6-47.7,39.2-86.4,47.5c-1.4,0.3-2.7,0.6-4.1,0.9c0.6,0.4,1.1,0.9,1.5,1.5
					c1.2,2.1,2.2,4.2,3.1,6.3c0.2,1.5,0.5,3,1,4.2c-11.9,2.8-21.8,2.3-35,3.9c-26.2,3.3-64.3,3.8-86,0.9c1.5-3.6,3.5-7.6,4.8-11.3
					c-0.2,0-0.3,0-0.5-0.1c0.1-0.4,0.3-0.7,0.4-1.1c-15.6-3-29.3-8.4-40.4-16.5c-2.6,1.9-5.3,3.7-8.1,5.2c-1.4-1.3-2.8-2.7-4.1-4.2
					c-0.5-0.6-1-1.2-1.5-1.7c-0.9-1.1-1.8-2.2-2.6-3.4c-0.5-0.7-1-1.4-1.5-2.2c-2.1-3.1-4-6.4-5.6-9.9c-0.1-0.3-0.3-0.6-0.4-0.9
					c-2.1-4.6-3.8-9.6-5.1-15c0-0.1,0-0.1,0-0.2c-0.9-3.8-1.7-7.8-2.2-12c-0.5-3.6-0.8-7.3-0.9-11v0c-0.2-6.6,0-13.3,0.8-20.1
					c1.2-10.7,3.6-21.5,7.1-32.1c10.6-32.1,31.3-62.2,58.9-82c8.5-6.1,17.6-11.2,27.2-15.1c9.4-3.8,19.2-6.4,29.5-7.8
					c9.6-1.2,19.1-1.2,28.4-0.1c58.9,6.9,110.6,56.6,127.2,110.8c2.2,7.1,3.8,14.4,4.7,21.6C820.2,360.9,820.5,365.5,820.5,370z"/>
			</g>
		</g>
		<path class="st10" d="M804.6,297.3c-13.7-8.7-20.5-29.4-34.2-38.1c-13.6-8.7-27.2-17.4-40.8-26.1c0.4-12.1,15.7-21,34-28.1
			s39.6-12.2,52-16.5c1.2,13.1,5.5,34.5,6.8,54.1C823.8,262.2,815.4,291.8,804.6,297.3z"/>
		<path class="st10" d="M547,329.9c11-11.9,12.6-33.6,23.6-45.4s22-23.6,33-35.4c-3.4-11.6-20.4-16.5-39.9-18.7
			c-19.5-2.3-41.4-1.9-54.5-3c2.1,12.9,3.3,34.8,6.9,54.1S535.2,327.3,547,329.9z"/>
		<path class="st13" d="M789.1,277.2c-6.3-4-9.4-16.7-15.6-20.7c-6.3-3.9-12.5-7.9-18.7-11.8c1.1-7,9.4-13.4,19.2-18.9
			c9.8-5.5,20.9-10.1,27.5-13.6c-0.3,7.4,0.3,19.5-0.5,30.6C800.2,254.1,794.9,273.2,789.1,277.2z"/>
		<path class="st13" d="M551.8,302.8c5.1-5.4,4.9-18.5,10-23.9c5.1-5.4,10.1-10.7,15.2-16.1c-2.8-6.5-12.5-10.6-23.3-13.5
			c-10.8-2.9-22.8-4.6-30-6.4c2.2,7.1,4.6,18.9,8.1,29.6C535.3,283.1,545.2,300.3,551.8,302.8z"/>
		<path class="st10" d="M820.5,370c-0.9,6.7-2.7,13-5.1,18.7c0,0,0,0.1-0.1,0.1c-1.6,3.8-3.6,7.5-5.8,10.9
			c-16.2,24.6-47.7,39.2-86.4,47.5c-1.4,0.3-2.7,0.6-4.1,0.9c-9.2,1.9-18.8,3.4-28.6,4.6c-24.9,3.1-48.5,4.1-69.4,1.7
			c-4.3-0.5-8.6-1.1-12.7-2c-15.6-3-29.3-8.4-40.4-16.5c-3.4-2.5-6.6-5.2-9.5-8.3c0,0,0,0,0-0.1c-11-11.4-18.3-26.9-20.8-47.2
			c0-0.4-0.1-0.7-0.1-1.1v0c-0.7-6.1-1-12.4-0.8-18.7c0.3-11.1,2-22.3,4.9-33.4c2.2-8.5,5.2-17,8.8-25.2c2.2-5.1,4.7-10.1,7.5-14.9
			c0,0,0,0,0,0c2.2-3.9,4.6-7.8,7.1-11.5c0,0,0,0,0,0c0,0,0,0,0,0c3.4-5.1,7.1-10,11-14.7c6.4-7.6,13.4-14.5,21-20.7
			c9.1-7.3,19-13.6,29.6-18.3c10.5-4.7,21.8-8,33.6-9.5c12.3-1.6,24.6-1.1,36.5,1.1c12.3,2.3,24.2,6.4,35.4,11.9
			c8.5,4.2,16.6,9.2,24.3,15c13.2,9.8,25,21.7,34.7,34.8c5.2,7,9.9,14.3,13.8,21.9c6.4,12.2,11.2,24.9,13.8,37.8
			c0.7,3.2,1.2,6.5,1.6,9.7C821.6,353.8,821.6,362.3,820.5,370z"/>
		<g>
			
				<ellipse transform="matrix(1.473247e-02 -0.9999 0.9999 1.473247e-02 396.018 1073.1561)" class="st14" cx="742.6" cy="335.6" rx="30.5" ry="18"/>
			
				<ellipse transform="matrix(1.473246e-02 -0.9999 0.9999 1.473246e-02 385.2708 1083.095)" class="st15" cx="742.2" cy="346.1" rx="19.1" ry="11.1"/>
			
				<ellipse transform="matrix(1.555379e-02 -0.9999 0.9999 1.555379e-02 407.2148 1076.0612)" class="st16" cx="750.1" cy="331.2" rx="2.9" ry="3.4"/>
		</g>
		<g>
			
				<ellipse transform="matrix(0.9647 -0.2633 0.2633 0.9647 -71.0655 173.8221)" class="st14" cx="612.9" cy="352" rx="18" ry="30.5"/>
			
				<ellipse transform="matrix(0.9647 -0.2633 0.2633 0.9647 -73.5989 174.9433)" class="st15" cx="615.9" cy="362" rx="11.1" ry="19.1"/>
			
				<ellipse transform="matrix(0.9645 -0.2641 0.2641 0.9645 -69.6599 174.9967)" class="st16" cx="616" cy="346.6" rx="3.4" ry="2.9"/>
		</g>
		<path class="st13" d="M696.2,391.1c0.5,3.7-12.6,8.3-12.6,8.3s-13.8-1.3-14.3-4.9c-0.5-3.7,5.2-7.4,12.6-8.3
			C689.4,385.2,695.8,387.4,696.2,391.1z"/>
		<path class="st10" d="M631.4,200.9c2.4-5.1,5-10.3,5.8-15.9c4.4,4.9,8.4,10,12.1,15.4c9.9-8.9,15.6-22.2,15.3-35.4
			c-0.2,5.2,2.9,9.8,4.6,14.6c2.5,7,2,15.1-1.2,21.8c2.4,2.2,6.2,0.1,8.5-2.2c7.4-7,13.7-15.3,18.4-24.3c-2,5.9-2.4,12.3-3.9,18.3
			c-1.5,6.1-4.6,12.2-10.2,15.1c8.9-2.9,16.7-9.3,21.2-17.5c-0.3,6.2-0.6,12.7-3.1,18.4c-2.8,6.5-8.1,11.6-13.3,16.3
			c-5.7,5.3-12,10.6-19.7,11.9c-3.6,0.6-7.3,0.2-11-0.1c-8-0.8-22,1-26.2-7.7C623.6,219.1,628.8,210.9,631.4,200.9z"/>
		<path class="st10" d="M851.4,342.7c-0.1-0.3-0.2-0.5-0.3-0.7C851.6,342.2,851.6,342.4,851.4,342.7z"/>
		<path class="st10" d="M823.2,376.6c9.4,3.2,19.7,3.4,29.2,0.6c-10.7,5.9-22.2,11.9-34.1,11.8c-1,0-1.9-0.1-2.9-0.2
			c-0.2,0-0.4,0-0.7-0.1c0.2,0.1,0.4,0.1,0.6,0.2c0.9,0.3,1.8,0.6,2.7,0.9c6.5,2,13.2,3.4,20,4.2c-7.2,0.8-14.4,1.1-21.6,1
			c-0.4,0-0.8,0-1.2,0c0.3,0.2,0.7,0.3,1,0.5c5.2,2.4,10.5,4.6,15.9,6.5c-5.9,2-12.1,1.3-18.2-0.6c-1.5-0.5-3-1-4.5-1.6
			c-2.4-0.9-4.8-2-7.1-3c-1.9-0.9-3.9-1.8-5.2-3.5c-1.3-1.8-1.6-4.2-1.8-6.5c-0.4-4.7-0.8-9.3-1.2-14c-0.6-6.8-1-14.1,2.3-20.1
			l0-0.1c-1.3-8.5,9.6-18.1,18.4-18.1c0.3,0,0.6,0,0.9,0c1,0.1,2,0.3,3,0.5c6.1,1.6,11.2,6.3,17.3,8.4c4.6,1.6,14,0.5,15.3-0.7
			c0.5,2.1-1.6,5.4-3,7c-1.5,1.8-4.2,3.8-6.4,4.7c-4.8,2.1-9.5,4.3-14.3,6.4c9,5.8,20.7,3.2,31,0c-2.7,1.2-4.9,3.7-7.1,5.7
			C844,373.4,833.5,377.2,823.2,376.6z"/>
		<path class="st10" d="M860.7,360.1c-0.6,0.2-1.3,0.4-1.9,0.6C859.4,360.4,860.1,360.2,860.7,360.1z"/>
		<path class="st10" d="M509,411.5c-0.7,0-1.4-0.1-2-0.1C507.6,411.3,508.3,411.4,509,411.5z"/>
		<path class="st10" d="M511.8,391.4c-0.1,0.2-0.1,0.5-0.1,0.8C511.4,392,511.4,391.8,511.8,391.4z"/>
		<path class="st10" d="M576.8,427.6c-0.8,2-2.5,3.4-4.2,4.7c-1.5,1.2-3.1,2.5-4.8,3.7c-2.6,1.9-5.3,3.7-8.1,5.2
			c-4.6,2.5-9.6,4-14.8,3.6c3.7-2.5,7.2-5.1,10.7-7.8c1.3-1,2.6-2.1,3.9-3.2c-1.8,0.5-3.6,1-5.4,1.4c-5.6,1.4-11.2,2.5-16.9,3.3
			c4.9-1.9,9.7-4.1,14.2-6.7c2.3-1.3,4.6-2.7,6.8-4.1c0.1-0.1,0.2-0.1,0.2-0.2c-0.1,0-0.2,0.1-0.3,0.1c-2.7,1-5.5,1.7-8.3,2
			c-10.1,1.2-20.7-1.3-30.8-3.9c8.7,0.3,17.5-1.8,25.2-6c1-0.5,2-1.1,2.9-1.8c-1.1,0.3-2.2,0.7-3.3,0.9c-9,2-18.6,0.7-26.7-3.6
			c-2.7-1.5-5.4-3.3-8.4-3.8c10.8,0.6,22.7,0.2,30-7.5c0,0,0.1-0.1,0.1-0.1c-0.1,0-0.1,0-0.2,0c-5.1-0.9-10.2-1.7-15.2-2.6
			c-2.3-0.4-5.4-1.7-7.3-3c-1.7-1.2-4.6-3.9-4.6-6c1.6,0.8,10.9-0.4,15-3.1c3.4-2.3,6.2-5.4,9.1-8.2v0c0.5-0.5,1-1,1.6-1.4v0
			c2-1.7,4.2-3.2,6.7-4.1c8.4-2.9,22.3,3.9,23.2,12.8l0,0.1c4.8,4.9,6.1,12.1,7.3,18.9c0.8,4.6,1.6,9.2,2.4,13.8
			C577.3,423.1,577.6,425.5,576.8,427.6z"/>
	</g>
</g>
<g id="hat" class="st17">
	<path class="st18" d="M567.7,394.3c-28.9,14.2-57.8,28.3-86.8,42.2c-29,13.9-58.1,27.7-87.2,41.3c-8.2-55.9-30.8-111.8-67.8-161.4
		c-37-49.6-88.6-92.9-152.9-122.2c70.2-2.4,143.2,12.5,211.7,45.7C453.2,273,517.2,324.7,567.7,394.3z"/>
	<path class="st19" d="M529.1,376.3c-22.5,9.8-45.1,19.4-67.7,28.9c-22.6,9.5-45.3,18.9-68.1,28.2c-9.2-44.2-30-89-62.2-129.6
		c-32.1-40.6-75.5-77-128.6-103c56.3,1.5,115.6,16.6,172.2,45.9C431.4,275.9,485.3,319.3,529.1,376.3z"/>
	<circle class="st20" cx="173.3" cy="194.1" r="28.7"/>
	
		<ellipse transform="matrix(0.872 -0.4895 0.4895 0.872 -158.1019 290.3914)" class="st19" cx="476.2" cy="447.5" rx="150.8" ry="65.4"/>
	<g class="st21">
		<path class="st22" d="M774.2,343.6c4.4,13.4-24.5,35-50.4,43.4c-25.9,8.5-39,0.7-43.3-12.8c-4.4-13.4-0.2-25.8,25.7-34.2
			C732,331.6,769.8,330.2,774.2,343.6z"/>
		
			<ellipse transform="matrix(0.6266 -0.7794 0.7794 0.6266 -10.5681 726.8447)" class="st22" cx="753.2" cy="374.5" rx="46.2" ry="26.8"/>
		<path class="st22" d="M777.5,341c11.4,8.4,41-12.2,57.2-34c16.3-21.9,13-36.7,1.7-45.2c-11.4-8.4-24.4-8.4-40.6,13.5
			C779.5,297.1,766.2,332.5,777.5,341z"/>
		
			<ellipse transform="matrix(0.9362 -0.3514 0.3514 0.9362 -63.4157 307.8815)" class="st22" cx="816.5" cy="328.7" rx="46.2" ry="26.8"/>
		
			<ellipse transform="matrix(0.9362 -0.3514 0.3514 0.9362 -76.1812 286.5407)" class="st7" cx="751.3" cy="353.2" rx="22.6" ry="5.1"/>
		
			<ellipse transform="matrix(0.9362 -0.3514 0.3514 0.9362 -68.7265 305.3688)" class="st7" cx="806.9" cy="342" rx="22.6" ry="5.1"/>
		
			<ellipse transform="matrix(0.6272 -0.7788 0.7788 0.6272 -0.7139 738.237)" class="st7" cx="770.8" cy="369.9" rx="22.6" ry="5.1"/>
		
			<ellipse transform="matrix(0.6266 -0.7794 0.7794 0.6266 58.8036 737.3591)" class="st7" cx="798.9" cy="307.3" rx="30.3" ry="1.1"/>
		
			<ellipse transform="matrix(0.8102 -0.5862 0.5862 0.8102 -54.7889 523.5992)" class="st23" cx="781" cy="346.4" rx="22" ry="25.9"/>
	</g>
	<circle class="st24" cx="180.1" cy="189.9" r="20.7"/>
</g>
<g id="Layer_4">
	<g>
		<path class="st22" d="M620.4,220c3.1,13.8-27.7,32.5-54.3,38.6c-26.6,6-38.8-3-42-16.8c-3.1-13.8,2.2-25.7,28.8-31.7
			C579.5,204.1,617.3,206.2,620.4,220z"/>
		
			<ellipse transform="matrix(0.6965 -0.7176 0.7176 0.6965 2.6018 503.61)" class="st22" cx="596.6" cy="248.7" rx="46.2" ry="26.8"/>
		<path class="st22" d="M623.9,217.6c10.5,9.5,41.9-8.3,60.1-28.5s16.4-35.3,5.9-44.8c-10.5-9.5-23.5-10.6-41.7,9.6
			S613.4,208.2,623.9,217.6z"/>
		
			<ellipse transform="matrix(0.9649 -0.2626 0.2626 0.9649 -31.5905 181.6838)" class="st22" cx="663.9" cy="209" rx="46.2" ry="26.8"/>
		
			<ellipse transform="matrix(0.9649 -0.2626 0.2626 0.9649 -38.7579 164.6861)" class="st7" cx="596.8" cy="227.3" rx="22.6" ry="5.1"/>
		<path class="st7" d="M677,214.5c0.6,2.5-10.1,8.1-20.5,10.9c-12.1,3.3-22.5,3.7-23.2,1c-0.7-2.7,14.3-8.7,20.5-10.9
			c2.8-1,6.9-2.2,12.2-2.5C668.1,212.9,676.5,212.4,677,214.5z"/>
		<ellipse transform="matrix(0.6971 -0.717 0.717 0.6971 9.9344 515.1271)" class="st7" cx="614.6" cy="245.8" rx="22.6" ry="5.1"/>
		<path class="st7" d="M662,174c-1.9-1.3-9,6.5-15,13c-3.8,4.1-21.2,23.2-18.8,25.9c1.9,2.1,16.6-5.3,25.8-17.9
			C660.3,186.3,664,175.3,662,174z"/>
		
			<ellipse transform="matrix(0.8613 -0.5081 0.5081 0.8613 -26.5395 349.5627)" class="st23" cx="627" cy="223.4" rx="22" ry="25.9"/>
	</g>
</g>
<g id="writing">
	<g>
		<g>
			<path class="st25" d="M90.3,450.5c3.8-5.1,8.1-7.5,11.8-8c1.8-0.3,2.5,0.5,1.3,2.7c-1.9,3.5-3.5,7.8-4.8,12.5
				c10.6,8.7,22.6,17.5,35.3,25.8c1.7,1,1.5,2.5-0.6,3.6c-4.7,2.6-10.9,4.1-21.9-0.9c-3.6-1.8-9.7-5.4-16.6-10.3
				c-2.8,16.6-3.8,33.9-5.6,44.5c11.2,6.7,23.2,13.2,35.4,19.1c1.8,0.8,2.2,2.5,0.3,3.8c-4.5,3.2-10.1,4.9-21.7,1.7
				c-4-1.1-10.6-4.5-19-8.5c-2.7,5.1-5.7,7.1-7.4,8.2c-2.6,1.6-3.3,1.2-2.7-2.7c0.6-3.5,1.4-6.7,1.9-9.7
				c-24.7-12.9-56.1-33.5-65.8-43.4c-2-2.2-1.1-4.6,1.6-6.3c6.8-4.3,16.7-3.9,29.2,4.8c9.9,6.8,22.3,16.2,37.1,25.8
				c1.2-15.8,1.1-30.2,4.7-45.5c-21.8-16-47.3-39.4-54.4-50.4c-1.8-2.7-0.7-5.1,2.6-6.4c7.4-3.3,16.7-1.6,28.1,10
				C67.6,429,77.9,439.4,90.3,450.5z"/>
			<path class="st25" d="M107,354.8c-1.4-2.7-0.8-4.6,1.9-5.7c5.5-2.6,14.8-2,21.4,5.9c5.8,7.2,14.3,21.7,21.8,29.3
				c8,8,16,10.4,19.2,3.6c4-8.1-2.3-23-10.8-34.5c-1.1-1.6-0.3-3.1,1.8-3.3c2.2-0.3,6.8,1.4,10.4,5.8c6.9,8.8,9.6,24.4,3.3,34.8
				c-6.3,10.3-15,14.3-24,12.2c4.6,8.5,7.5,19.2,3.4,28.8c-7.6,18.4-33.7,19.4-51-2c-16.6-21.2-17.2-41.5-11.4-53.1
				c5-10,14-13.1,21.4-10.9C111.3,361.8,108.7,358.1,107,354.8z M105.3,374.8c-4.4,7.2,0.5,26.3,13,41.3
				c12.1,14.4,28.2,19.9,31.7,12.1c3.7-8.3-3.7-21.6-15.3-36.4C120.3,373.3,109.4,368.3,105.3,374.8z"/>
			<path class="st25" d="M216.1,279.7c-1.4-2.4,1.1-4.1,3.2-3.5c1.9,0.5,6.6,2.6,9,8.6c5.4,13.4,0.6,28.1-8.5,41.5
				c-8.3,11.9-15.2,18.8-25.5,23.1c-6.1,2.6-11.6,3-16.6,1.9c9.9,15,22.7,31.4,37.9,47.3c1.2,1.3,0.9,2.7-1.4,3.2
				c-5.3,1.3-11,0.5-20.2-6.7c-15.3-10.9-54.6-64.1-60.2-84c-1-3,0.8-4.9,3.8-5.2c3.2-0.2,6.3,0.4,9.3,1.8
				c-0.5-11.9,4.1-26.8,19.5-32.1c17.4-5.7,29.1,6.7,37.6,20.7c6.8,11.4,9.8,22.2,8.5,31C225.1,309,222.4,292,216.1,279.7z
				 M193,344.1c8.8-4.1,4.5-21.7-5.4-38.7c-8.3-14-21.4-23.1-27.7-18.8c-6.2,4.1-6.8,20.9,0.9,35.9c1.8,3.5,3.6,7,5.8,10.8
				C174.8,342.7,185.2,347.7,193,344.1z"/>
			<path class="st25" d="M287.3,213.4c-0.9-2.6,2-3.9,3.8-3c1.7,0.8,5.8,3.7,7,10.1c2.4,14.3-5.3,28.3-17,40.1
				c-10.5,10.5-18.8,16.3-29.8,18.9c-6.5,1.6-12,1.1-16.6-0.9c6.5,16.7,15.8,35.2,27.7,53.5c0.9,1.5,0.3,2.8-2,2.9
				c-5.5,0.4-10.9-1.2-18.6-10c-13-13.3-40.3-73.3-41.3-94.4c-0.3-3.2,1.8-4.8,4.8-4.5c3.2,0.3,6,1.5,8.7,3.4
				c2.1-12.1,9.8-26.3,25.9-28.9C258,198,266.6,212.5,272,228c4.2,12.5,4.8,23.9,1.8,32.5C289.9,244.3,290.8,226.8,287.3,213.4z
				 M251.2,274.1c9.5-2.7,8.9-21,2.8-39.7c-5.1-15.5-15.8-26.8-22.9-23.6c-6.9,3-11.2,19.9-6.9,36.2c1,3.8,2,7.6,3.3,11.9
				C233.7,269.6,242.9,276.4,251.2,274.1z"/>
			<path class="st25" d="M349.8,211.4c5.9,25.7,14.1,56,5.1,70.4c-2.2,3.3-5.2,5.6-12.1,4.6c-7.4-1.2-15.6-2.7-20.8-12.7
				c-8-15.1-1.7-34.8,12.5-53.5c-1.1-4.4-2.5-9.1-3.4-13.8c-2.1,8.5-5.9,17.1-14,22.4c-14.4,9.5-25.4,1.2-30.7-10.4
				c-5.1-11.2-9.8-31-7.9-53c0.2-2.7,2.7-4.2,5.7-4c10.1,0.3,14.3,6.8,14.4,20.1c0.3,13,1.6,21.5,4.4,30.3c3,9.2,8.4,13.2,13.1,10.2
				c8-5.2,9.1-20.4,8.7-39.4c-0.5-16-2.2-34.6-0.1-46.7c0.5-3.1,2-4.4,5.2-4.5c5.7,0.5,12.9,5.6,12.9,16.4
				c-0.1,12.3,1.3,37.3,5.3,56.1c10.5-15.9,16.7-31.4,19.5-44.4c0.3-1.6,2.3-2.9,3.9-1.7c1.5,1.1,3.4,4.8,2.6,10.7
				C372.6,182.2,362.1,196,349.8,211.4z M341.3,279.5c4.7,0.7,3.2-23.6-4.5-51.5C322.2,255.6,335.2,278.7,341.3,279.5z"/>
			<path class="st25" d="M440.3,56.1c-17.1,6.1-31.2,7.4-37.9,2.8c-1.7-1.1-1.1-2.3,1.9-3.3c26-9.4,73.2-30.4,91.3-33.9
				c13-2.9,25.5-3.4,32.1,2.5c1.3,1.2,1.1,2.7-2.9,3.3c-15.2,2.1-33.7,8.3-50.2,14.8c2,4,2.1,10.1-2,20.6
				c-9.2,23.2-20.6,54-22.4,90.5c0,2-1.2,2.4-3.4,1.9c-4.4-0.8-9.9-4.5-11.3-13.4c-2.5-15.2,4.9-60.8,21.9-92.7
				C451,51.9,445.4,54.1,440.3,56.1z"/>
			<path class="st25" d="M588.9,120.6c-20.6,2.8-28.6-6.7-24.5-23.4c4.3-18.6,25.6-40.3,20.9-41.3c-4.4-1.1-33.3,15.5-43.7,35.3
				c-6.7,12.2-12.2,26.5-14.6,38.4c-0.5,1.8-2,2.5-3.9,1.7c-4.9-2.2-8.9-6.4-7.3-18c0.4-19.5,41.6-93,67.6-113.5
				c2.5-2.5,5.8-2.6,7.7-0.7c5,4.8,5,13.8-4.8,26.3c-6.2,7.9-19.3,24.4-28.5,38.2c9.8-9,23.9-16.9,31.9-17.2
				c10.2-0.4,20.1,7.8,13.9,17.6c-5.2,8.4-16.2,23-20.4,33c-4.5,11.2-1.5,19.3,7.6,17.8c10.1-1.7,22.3-15.9,29.5-28
				c0.9-1.7,3.6-1.9,4.8-0.5c1.5,1.9,1.8,5.7-1.6,11.3C617.5,108.4,603.4,118.6,588.9,120.6z"/>
			<path class="st25" d="M717.8,44.8c2.9-2.1,5.3-2.3,7.1-0.5c4,3.6,5.1,11.5-2.7,19.9c-7.3,7.5-22.1,20.2-28.9,29.5
				c-7.1,9.9-7.6,17.6,1,17.6c10.3,0.1,25.4-11.1,36.6-22.5c1.6-1.5,3.5-1.5,4.3,0.3c0.8,1.7,0.1,6.2-4,10.8
				c-8.3,9.1-25.1,17.6-38.6,16.6c-13.4-1.1-20.4-6.8-20.3-15.3c-8.4,7.3-19.5,14.1-31.5,14.6c-22.7,1.2-31.5-20.9-10.7-44.3
				c20.8-22.6,44.9-30.6,59.5-30.1c12.7,0.4,18,6.8,16.8,13.8C710.4,51,714.3,47.4,717.8,44.8z M694,50.9c-9.3-1-30.9,10.4-45.2,27
				c-13.8,16-15.4,32.1-5.7,31.8c10.4-0.2,23.1-12,37.4-27.6C698.4,62.7,702.5,51.8,694,50.9z"/>
			<path class="st25" d="M820.2,59c9.2,3,14.6,13.6,4.5,20.8c-8.5,6.1-25.6,16-34,24c-9.5,8.8-10,17.4-1.1,18.8
				c10.1,1.7,25.8-7,40.1-16.3c1.9-1.2,3.7-0.7,4.4,1c1.1,2.4-1,6.1-6.4,10.1c-10.5,7.7-28.6,12.7-42.6,10
				c-20.6-4-23.5-15.5-12.4-29.7c12.4-16.1,42.7-29.4,38.2-31.7c-2.5-1.3-20.7,0-41.1,9.6c-18.8,8.8-33.4,24.6-46.3,40.4
				c-1.2,1.5-2.8,2.1-4.8,0.3c-4.5-4-5.6-10-0.4-18.7c6.3-11,30.6-33.9,52.9-47.5c2.5-1.6,4.8-1.1,6.1,1c3.3,5.1,1.4,11-3.1,16.9
				C788.6,61.5,811,55.9,820.2,59z"/>
			<path class="st25" d="M918.1,86.8c11.5,2,16.5,7.1,17.4,15.9c1,8.2-4.2,14.3-17,16c-11.8,1.6-24.8,2.1-42.1-0.3
				c-5.7,13.8-3.7,25.5,4.8,29.5c9.1,4.2,28.9-2.9,42.5-9.2c2.6-1.2,4.9-0.4,4.9,2c0,2.4-3,5.9-9,8.2c-9.9,4-26.4,9.5-44.4,2.6
				c-15.9-6.1-25.8-19.9-15.3-42.4c1.4-3,2.1-3.4,7.5-2.8c34.8,3.6,60.4-2.3,59.1-8.1c-1.1-4-14-7.2-31.7-5.6
				c-24.7,2.3-44.2,13-74.6,39.5c-1.2,1.2-3.3,1-4.5-0.8c-2.6-3.8-2-9.7,6.5-18.9c11-14.8,80.8-56.8,121-63.8
				c3.8-0.8,6.9,0.2,7.4,2.8c1.4,6.6-3.6,12.3-22.4,19.1c-10.7,3.8-27.8,11-39.2,16.6C900.2,85.1,910.2,85.5,918.1,86.8z"/>
			<path class="st25" d="M975.5,126.7c5.8-5.1,10.6-6.5,18.1-6.4c8,0.1,14.3,2.9,15.4,5.5c1.2,2.8-1.4,3.6-7.5,5.1
				c-1.7,0.3-3.2,0.7-5.1,1.2c-13,12.2-17.9,25.9-26.9,35.4c-5.1,5.4-11.6,10.6-22.1,10c17.3,4,33.6,0.9,46.1-3.2
				c2.5-0.9,4.3,0.9,4.2,2.6c-0.3,1.8-3.9,5.2-11.4,7.3c-16.9,4.6-35.5,1.9-51.2-5.3c-12.8-6.1-23.6-13.9-25.4-27.1
				c-1.2-9.4,5.7-19.7,16.9-20.4c3.9-0.3,5.5,1.3,4.1,3.8c-0.6,1.3-1.4,2.6-2,3.9C944.2,134.7,962.4,130.4,975.5,126.7z
				 M925.3,148.3c-2.4,10.6-0.2,19.9,8.2,21.9c11.6,2.9,25.9-22,34.2-34.4C954.5,140,939.7,144,925.3,148.3z"/>
			<path class="st25" d="M1008,228.5c-29.2,9.5-61.4,23.4-79.4,19.8c-4.5-0.9-7.7-3.4-8.2-9.1c-0.5-6.6-0.3-13.7,10-20.5
				c15.6-10.3,40.5-9.3,65-1c4.9-1.6,9.9-3.5,15-5.2c-9.7-0.3-19.4-2.1-26.9-6.9c-18.4-11.4-8.3-32.2,25.5-37.5
				c32.8-4.7,58.3,3.6,69.3,12.3c8.8,6.9,8.1,14,2.5,17.9c5.6-0.3,10.7-0.4,15.5-0.5c3.9-0.1,6.1,1.6,6.2,3.8
				c0.3,4.7-5.1,10.7-17.8,11.9c-15.5,1.4-46.2,5.6-67.7,12.2c22,6.6,40.4,8.9,56.3,9.6c2.4,0.1,4.1,1.6,2.9,3.1
				c-1,1.3-5.4,2.9-12.7,3.2C1046.9,242.3,1027.9,236.1,1008,228.5z M928,236.1c0.3,4.2,26.2-3.1,58.7-15.1
				C951.2,214.4,927.4,230.9,928,236.1z M1074,189c-6.3-5.6-31.9-9.9-55.6-6.2c-23.3,3.7-36.4,14.8-28.4,20.1
				c7.8,5.3,26.2,3.6,49.3,0.4C1068.1,199.4,1080,194.4,1074,189z"/>
			<path class="st25" d="M1067.6,235c15.8-4.5,47.6-5.3,63.6-3c3.7,0.6,5.6,1.6,5.6,4c0.1,4.5-5.9,10-18.6,10.4
				c-11.2,0.4-30,0-41.7,2.1c-13.5,2.4-19,7.2-13.2,12.1c8.1,6.9,27.9,9.1,44.6,7.8c2.4,0,3.4,1.4,2.7,2.9c-1.3,3-5.4,4.4-11.6,4.8
				c-15.3,0.8-32.3-5.1-42-13.9C1044,250.5,1049.6,239.9,1067.6,235z M1152,248.9c-4.8-1.4-9.4-7.1-7.8-12.5
				c1.6-5.7,7.7-7.6,13.8-5.9c6.1,1.7,9.5,8.8,7.1,13.9C1162.9,249.4,1156.8,250.3,1152,248.9z"/>
			<path class="st25" d="M1204,315.3c3.7,1.7,4.2,3.2,2,4.4c-3.6,2-10.2,0.8-22.4-3.2c-18.9-6.2-50.5-17.8-90.9-19.6
				c-2.1-0.1-4-0.3-4.8-2.4c-2.9-8.5-2.1-12.9,7.2-17.7c12.2-6.4,41-15.3,65.6-17.1c2.7-0.1,4.8,1.2,4.9,3.4
				c0.7,9.1-5.2,13-18.4,15.4c-16.6,3.1-29.6,4.4-50.1,12.4C1127.9,291.1,1180.6,303.9,1204,315.3z"/>
			<path class="st25" d="M1150.1,325.3c16.7-0.9,48.1,5.2,63.2,10.9c3.5,1.3,5.1,2.8,4.4,5c-1.1,4.2-8.5,8.1-21.1,5.7
				c-11.1-2.1-29.4-6.4-41.4-6.9c-13.8-0.6-20.5,2.9-16,8.7c6.1,8.3,24.8,14.4,41.5,16.8c2.3,0.5,2.9,2,1.9,3.3
				c-2.1,2.5-6.4,3.1-12.5,2.1c-15.1-2.5-30.2-11.6-37.4-22C1122.9,335,1131.2,326.1,1150.1,325.3z M1229.1,356.7
				c-4.4-2.3-7.3-8.7-4.2-13.4c3.1-5,9.7-5.4,15.2-2.4c5.5,3,6.9,10.4,3.2,14.5C1239.7,359.5,1233.5,359,1229.1,356.7z"/>
			<path class="st25" d="M1259.3,422.3c2,8-5.5,16-18,11.3c-10.6-4-29.5-12.6-41.8-15.4c-13.7-3.3-22.1,0.2-18.5,7.3
				c4,8.2,20.7,15.8,37.4,22.5c2.2,0.9,2.7,2.4,1.5,3.7c-1.7,1.8-6.4,1.8-13.1-0.4c-13-4.4-27.7-15.4-32.8-26.9
				c-7.6-16.8,1.7-24.2,21.5-22c22.3,2.3,51.8,19.8,51.8,15.6c-0.1-2.3-11.2-15.5-31.7-26.8c-18.8-10.4-42.3-14.6-64.6-17
				c-2.1-0.2-3.5-1.1-2.9-3.4c1.4-5.1,6.7-8.5,18-8.4c14.1-0.2,50,8.4,75.6,20.1c3,1.2,3.6,3.1,2.3,4.9c-3.4,4.3-10.3,5.2-18.6,4.1
				C1239.7,399.6,1257.5,414.3,1259.3,422.3z"/>
			<path class="st25" d="M1194,496.1c-29-9.5-62.9-16.8-74.3-29.3c-2.8-3.2-3.7-6.8-0.3-11.3c4-5.2,9-10.4,21.5-9.6
				c19.1,1.1,37.7,15.9,50.9,35.5c4.9,1.6,10.1,3,15.2,4.8c-7.3-5.7-13.5-12.4-16-20c-6.4-18.5,16.1-27.5,46.3-11.5
				c29,15.8,42.9,36.3,45.2,48.6c1.9,9.7-3.8,14.1-10.9,13.4c4.5,3.1,8.6,6,12.4,8.7c3.1,2.2,3.7,4.6,2.1,6.1
				c-3.2,3.3-11.7,4.2-22.3-2.3c-13-8-39.8-22.5-60.9-29.8c12.3,17,25,29,36.7,38.4c1.8,1.4,2,3.4,0.1,3.8c-1.7,0.4-6.2-1-12-4.9
				C1214.5,527.7,1204.2,512.7,1194,496.1z M1127.4,457.3c-2.5,3.3,22.2,12,55.5,21.5C1159.9,454.2,1130.4,453.1,1127.4,457.3z
				 M1272.8,506.3c-0.9-7.4-17.8-25.3-38.8-36.3c-20.8-10.9-38.7-10.4-36.2-2.2c2.4,8.1,17.7,17.3,37.9,28.3
				C1260.8,509.8,1273.7,513.3,1272.8,506.3z"/>
		</g>
	</g>
	<polygon class="st26" points="902.8,39.7 911,39.7 911,39.7 902.8,39.7 	"/>
	<polygon class="st26" points="1013.4,273.8 1011.3,273.8 1011.3,273.8 1013.4,273.8 	"/>
</g>
</svg>
