<?xml version="1.0" encoding="utf-8"?>
<!-- Generator: Adobe Illustrator 22.1.0, SVG Export Plug-In . SVG Version: 6.00 Build 0)  -->
<svg version="1.1" id="scottie" xmlns="http://www.w3.org/2000/svg" xmlns:xlink="http://www.w3.org/1999/xlink" x="0px" y="0px"
	 width="218px" height="295px" viewBox="0 0 218 295" enable-background="new 0 0 218 295" xml:space="preserve">
<path fill="#C0C0C4" d="M38.9,36.3C39,36,39,35.8,39,35.6c0,0.1,0,0.4-0.1,0.6C39,36.2,39,36.2,38.9,36.3c0.1,0.3,0,0.7,0,1.3
	c-0.5,3.4-1.3,8-3.2,16.7c-2.3,10.8-4.8,21.9-4.2,29.9c-1.2-8.8,1.6-21.6,4-33.8C36.8,44,38,39.7,38.9,36.3z"/>
<path fill="#C0C0C4" d="M54.2,89.9c0.4-0.1,0.6-0.4,0.9-0.6c-0.3,0.6-0.6,1-0.9,1.4c-0.9,1.1-1.9,2.1-3.1,2.9
	c-0.4,0.3-0.9,0.6-1.4,0.7c-0.1,0-0.4,0.1-0.9,0.3c-0.8,0.3-2.1,0.6-3.5,0.8c-0.4,0-0.6,0.1-1,0.1c-0.5,0-0.9,0-1.4,0
	c0.9-0.1,1.7-0.4,2.6-0.6C48.6,93.3,51.9,91.3,54.2,89.9z"/>
<path fill="#C0C0C4" d="M87.2,39.1c-1.8,1.1-3.6,2.2-5.5,3.5c-0.8-1-1.6-2-2.3-2.8c-3.6-4.2-7.4-8-11.4-11.5
	c-8.2-7-17-12.3-26.8-16.5c-4.3-1.8-9.9-7.3-10.5-6.4c-0.4,0.4,0.8,2.2,1.8,3.6c3,4.2,4.7,8,5.7,11.4c0.1,0.6,0.4,1.1,0.5,1.7
	c-0.3-0.6-0.5-1-0.8-1.5C34.3,14.3,28.3,7,28.2,2.1c0-0.4,0-1,0.4-1.5c1.7-2.1,9,2.1,12.3,3.5c10.7,4.3,20.4,10,29.4,17.5
	c3.4,2.8,6.5,5.7,9.6,9.1C82.4,33.4,84.9,36.2,87.2,39.1z"/>
<path fill="#666668" d="M39.7,30c0-2-0.1-4.6-1-8c0.3,0.6,0.6,1.3,0.9,1.8c1.4,3.8,0.9,6.4-0.5,11.6C39.4,33,39.7,31.4,39.7,30z"/>
<path fill="#666668" d="M45.1,95.1c3.5-1.8,6.8-3.8,9-5.2c-0.4,0.6-0.8,1.1-1.2,1.7c-0.8,0.8-1.7,1.7-2.7,2.2
	c-0.5,0.4-1.2,0.7-1.8,1c-0.1,0.1-0.4,0.1-0.5,0.3c-0.1,0-1.4,0.6-3.1,0.7c-0.5,0.1-1,0.1-1.6,0.1c-0.8,0.1-1.7,0.1-2.6,0
	c-1.9-0.1-3.9-0.7-5.5-2.2C34.2,93,33.5,92,33,90.9c-0.9-1.7-1.4-3.8-1.6-6.2c0.4,2.5,1,4.8,2.1,6.4c0.5,0.8,1.2,1.5,1.9,2.1
	c1.9,1.8,4.5,2.4,6.9,2.4C43.3,95.5,44.2,95.4,45.1,95.1z"/>
<path fill="#C0C0C4" d="M195.7,162.9c-4,78-71,124.6-81.2,131.5c-10.4-7-77.2-53.6-81.2-131.5c-0.9-18.1,1.7-34.3,5.6-48.1
	c0.3,0,0.5,0,0.8,0c1.4-0.1,2.7-0.4,4.2-0.8c1-0.3,1.7-0.6,2.6-1c1.7-0.8,2.5-1.7,3.1-1.4c0.1,0.1,0.4,0.4,0.4,1.1
	c1.6-0.3,2.6-1.5,2.7-1.8c0.8-1,6-3.9,12.2-6.7c-0.4,1.4-0.5,2.9-0.5,4.3c0,9.3,6.9,16.7,15.5,16.7s15.5-7.4,15.5-16.7
	c0-4.5-1.7-8.7-4.4-11.6c7.4-1.1,10.8-1.4,8.4-5.5c-3.1-6-19.8-15.7-36.9-6.7c-1.2,0.6-2.3,1.3-3.4,2c4.9-4.6,9.2-10.8,12.6-18.2
	c0-0.1,0.1-0.1,0.1-0.1c3.1-6.9,5.6-14.9,6.8-23.4c0.3-1.7,0.5-3.4,0.6-5.2c0.8,1,1.6,1.8,2.3,2.8c1.8-1.3,3.6-2.5,5.5-3.5
	c8.6-5,17.8-7.7,27.6-7.7c9.1,0,17.8,2.4,25.9,6.9c-1.2,1.3-2.5,2.5-3.6,3.8c-3.5,3.8-3.8,10.5-0.6,11.9c0.6,0.3,1.4,0.6,2.1,0.8
	c7.3,2.7,13.8,4.1,22.4,12.2c1.6,1.5,2.7,3.1,3.6,4.8c0,0,0,0,0.1,0.1c4.8,6.2,4.3,13.2,7.7,18.4c-1.8-1.1-3.1-2-3.6-2.2
	c-1.7-1.3-3.4-2.2-5.3-3.2c-17.2-9-33.7,0.7-36.9,6.7c-2.9,5,3.2,4.2,15.2,6.6c-1.7,2.2-2.9,5-3.2,8c-1.3,9.1,4.5,17.7,13,18.9
	c8.4,1.4,16.4-4.9,17.7-14c0.1-1,0.1-1.8,0.1-2.7c2.1,1.3,3.5,2.1,3.9,2.7c0.1,0.1,1.2,1.4,2.7,1.8c0-0.7,0.1-1,0.4-1.1
	c0.5-0.4,1.4,0.6,3.1,1.4c0.8,0.4,1.4,0.6,2.6,1c1.3,0.4,2.7,0.6,4.2,0.8c1.6,0.1,3,0.1,4.5,0C194,128.6,196.6,144.8,195.7,162.9z"
	/>
<path fill="#C0C0C4" d="M91,97c2.7,3.1,4.4,7.1,4.4,11.6c0,9.3-6.9,16.7-15.5,16.7s-15.5-7.4-15.5-16.7c0-1.5,0.1-2.9,0.5-4.3
	c-6.1,2.8-11.4,5.9-12.2,6.7c-0.1,0.1-1.2,1.4-2.7,1.8c0-0.7-0.1-1-0.4-1.1c-0.5-0.4-1.3,0.6-3.1,1.4c-0.9,0.4-1.4,0.6-2.6,1
	c-1.4,0.4-2.7,0.6-4.2,0.8c-0.3,0-0.5,0-0.8,0c1.6-6.6,3.5-13,5.7-19.1c0-0.1,0-0.1,0.1-0.1c0.1-0.1,0.1-0.3,0.1-0.6
	c3.5-1.8,6.8-3.8,9-5.2c0.4-0.1,0.6-0.4,0.9-0.6c1-0.7,1.8-1.1,2.2-1.4c0.6-0.4,1.2-0.8,1.8-1.3c1-0.7,2.2-1.4,3.4-2
	c17.2-9,33.7,0.7,36.9,6.7C101.8,95.5,98.4,95.9,91,97z"/>
<path fill="#C0C0C4" d="M190.4,114.8c-1.6,0.1-3,0.1-4.5,0c-1.4-0.1-2.9-0.4-4.2-0.8c-1.2-0.3-1.7-0.6-2.6-1
	c-1.7-0.8-2.6-1.7-3.1-1.4c-0.1,0.1-0.4,0.4-0.4,1.1c-1.6-0.3-2.6-1.5-2.7-1.8c-0.4-0.4-1.8-1.4-3.9-2.7c0,1,0,1.8-0.1,2.7
	c-1.3,9.1-9.1,15.4-17.7,14c-8.4-1.4-14.3-9.8-13-18.9c0.4-3.1,1.7-5.7,3.2-8c-11.8-2.4-18.1-1.5-15.2-6.6c3.1-6,19.8-15.7,36.9-6.7
	c1.9,1,3.6,2,5.3,3.2c0.5,0.3,1.8,1.1,3.6,2.2c-3.4-5.2-2.9-12.3-7.7-18.4c0,0,0-0.1-0.1-0.1c-0.9-1.7-2.1-3.2-3.6-4.8
	c-8.6-8.1-15.1-9.5-22.4-12.2c-0.7-0.3-1.4-0.6-2.1-0.8c-3.1-1.3-2.7-8,0.6-11.9c1.2-1.3,2.5-2.5,3.6-3.8c1.8,1,3.6,2.1,5.5,3.4
	c16.2,11.1,29.9,30.4,38.7,54.7c0.1,0.1,0.1,0.3,0.1,0.6c0.1,0.1,0.1,0.3,0.1,0.6C187.2,102.9,189,108.8,190.4,114.8z"/>
<path fill="#FFFFFF" d="M169,108.3c0,1,0,1.8-0.1,2.7c-1.3,9.1-9.1,15.4-17.7,14c-8.4-1.4-14.3-9.8-13-18.9c0.4-3.1,1.7-5.7,3.2-8
	c3.4-4.5,8.7-6.9,14.3-6C163.4,93.3,168.8,100.4,169,108.3z"/>
<path fill="#FFFFFF" d="M95.4,108.6c0,9.3-6.9,16.7-15.5,16.7s-15.5-7.4-15.5-16.7c0-1.5,0.1-2.9,0.5-4.3
	c1.8-7.2,7.8-12.3,14.9-12.3c4.3,0,8.2,2,11,5C93.7,99.9,95.4,104.1,95.4,108.6z"/>
<path fill="#F0F0F0" d="M94.2,164.1c0,0.4,0,0.8,0,1.3c-0.3-0.4-0.5-0.8-0.8-1.3C93.7,164.1,94,164.1,94.2,164.1z"/>
<path fill="#F0F0F0" d="M175.1,283.1c-0.1-0.1-0.1-0.3,0-0.3S175.2,282.9,175.1,283.1z"/>
<path fill="#F0F0F0" d="M193.5,192c-0.4,0.1-0.6,0.1-1,0.3c-0.4-0.4-0.7-1-1-1.4C192.1,191.1,192.8,191.5,193.5,192z"/>
<path fill="#F0F0F0" d="M193.5,192c-0.4,0.1-0.6,0.1-1,0.3c-0.4-0.4-0.7-1-1-1.4C192.1,191.1,192.8,191.5,193.5,192z"/>
<path fill="#F0F0F0" d="M212.5,273.1c-0.8-4.8,0.5-9.5-0.1-14.4c-0.9-6.7-3.5-12.2-7.4-17.2c-0.5-0.6-4.9-3.6-5.3-3.8
	c0.5-4.5,6.5,5.7,8.3-1c-1.9,4.5-5.6-15-6.8-17c0.5,0.3,3.9,2.5,3.9,2.5c0.5-0.4,6.8,5.3,10.9,5.2c2.2,2.1-10.7-12.2-10.8-12.3
	c-2.9-2.2-4.7-4.6-5.6-6c-0.1-0.4-0.4-0.7-0.5-1c0.3,0.4,0.8,0.8,1.4,1c0.1,0,0.3,0.1,0.4,0.1c4.5,0.6,10.3,3.6,14.7,2.5
	c1.2-0.3-11.8-5.9-12.7-6.3c-8.6-4.2-9.4-5-12.7-6.3c-5.2-2,15.5,2.4,10.4-0.3c-0.4,0-7.7-6.3-8.1-6.3c-0.3-0.4-0.7-1-0.9-1.4
	c0.6,0.4,1.3,0.7,1.9,1.1c15.2,4.8,9.1,4.2,0.5-4.5c-1.3-1.3,16.5,3.2,14.7,1.8c-10.7-8.7-52.2-24.4-52.9-23.4
	c-3.9-1-8.1-1.5-12.1-1.8c0-1.1,0-2.1,0-3.4c0-2.5-1-10.4,1.2-12.1c3-2.4,0.9-6.9-2.6-6c-3.5,0.7-6.8,2.4-9.4,4.8
	c0.7-2.9,1.6-5.9,2.7-8.8c1-2.9-1.6-6.6-4.4-4.5c-5.6,4.1-12.6,5.7-16.5,12.3c-2.5,4.1-4.3,9-5.7,13.9c-2.7-7.3-8.2-13.3-15.5-16.7
	c-2.6-1.3-6.1,1.8-4.2,4.8c3.1,4.8,4.8,10.2,4.9,15.7c0,0.4,0,0.8,0,1.3c-0.3-0.4-0.5-0.8-0.8-1.3c-5.1-8.4-12.9-18.5-22.2-20.6
	c-2.9-0.7-5.5,3.5-2.9,5.7c3.8,3.4,7,11.1,10,15c-7-1.5-15.3-0.7-21.7,7.2c0-4.2-20.7,2.2-15.5,4.2c11.6,4.2-0.3,0.7-7.8,8.4
	c-7.7,8-6.5,11.5-11.6,20.9c-1.8,3.4-4.4,15-2.1,12.1c1.8-2.2,4.3-4.9,7.4-7.4c-2.3,7.4-3.5,15.1-3.4,22.9c-0.3,0.3,6-7.1,5.8-6.6
	c-2.1,5.6-10.5,18.9-11.6,24.8c-0.5,2.5,12.2-10.7,11.6-8.1c-0.9,3.4-13.8,18.4-15.5,20.9c-2.2,3.2,21.4-10.5,3.9,0
	c-2.7,1.7-17.7,14.6-18.2,17.9c-0.3,2.2,4.9-1.5,6.6-1.3c-1.2,1.3-1.4,6.7,0,8.4c0.5,0.7,1.2,1.5,1.7,2.2c-0.9-3.4,3.5-9.1,6.1-6.4
	c1.4,1.4,7.8,8.4,5.7,3.6c-1.4-3.5,4.2-6.3,7-8.8c0.6,4.3,1.8,5,2.7,9.4c0.8,3.6,2.9-5.6,3.9-8.4c1.2-3.4,4.3,5.3,5.8,2.2
	c1.2,1.3,2.2,2.5,3.4,3.8c1.8,2,1.7-16.3,2.3-18.5c1-3.6,3.5,12.1,3.9,8.4c4.2,3.1,14.4,2.5,19.4,4.2c1.2,0.4-4.5-11.9-3.9-12.5
	c2.1,0.6,7.8,8.4,7.8,8.4c-0.9-3.2-2.9-6.4-2.1-9.5c3.8,2.8,5.3,8.1,9.7,9.5l-3.9-8.4c2.2,0.3,13.1,11.2,11.6,8.4
	c-0.9-1.8-1.7-12.1-2.1-13.9c0.4,0.3,0.6,0.6,0.9,0.8c2.9,3.1,7.9,7.7,5.1,4.8c-0.6-0.7-2.2-11.1-3-11.8c2.5-2.1,8.4,10.1,10.7,7.6
	c0.9,1.3-1-13.9,0-12.5c1.2,1.5,1.7,5.7,3.6,6.3c2.7,0.7,3.1-7.7,4.2-10.5c1,0.7,3.5,7.3,4.8,7.2c2.9-0.1,2.3-4.5,3-7.2
	c1-0.1,3.5,5.6,3.9,4.2c0.1-0.7,1.2-5.7,1.4-6.6c0.8,2,0.1,5.3,0.5,7.4c-1.8,0.4-0.5,4.1,0.1,6.7c2.1,7.2,4.2-4.3,6.1-7
	c0.9-1.1,0.5,14.6,0.9,15.8c2.5,7.7,3.2,4.8,4.8,3.2c1.4-1.4,3.1-4.1,5.2-3.8c0.1,1.1-0.4,10.2,0.1,10.9c3.4,5.2,4,7.6,3.9,3.6
	c-0.1-3.8,5.6-4.3,6.6-5.9c0.1,2.5,4.3,11.1,6.5,8.8c3.5-3.4,8.1,0.3,10.8,1.5c1.9,0.8,6.1,3.1,8.1,2.4c0.6-0.3,0.8-4.2,1.2-5
	c-0.1-0.1-0.1-0.3,0-0.3c0.1,0,0.1,0.1,0,0.3c0.5,0.6,2.9,2.2,3.2,2.5c0.9,0.3,5.3,2.9,6,2.1c1-1.4-0.7-8.6,0.6-10.2
	c1.3,0.6,4.2,2.5,5.2,1.3c-0.4,0,1.8-6.2,2.1-4.8c0.8,3.8,8.1,13.6,8.7,13.2c2.2,1.8,3.8,0.3,6.1,2.1c1.7,1.4,5.6,3.4,6.6,2
	l-4.4-6.6c1.9,0.4,9,2.5,8.3-0.3C216.8,280.7,213.2,277.1,212.5,273.1z M79.9,275.8C79.4,275.9,80.5,275.9,79.9,275.8L79.9,275.8z"
	/>
<path fill="#F0F0F0" d="M91,97c-4.3,0.7-10.1,1.7-16.9,3.8c-3,1-6.2,2.2-9.1,3.5c-6.1,2.8-11.4,5.9-12.2,6.7
	c-0.1,0.1-1.2,1.4-2.7,1.8c0-0.7-0.1-1-0.4-1.1c-0.5-0.4-1.3,0.6-3.1,1.4c-0.9,0.4-1.4,0.6-2.6,1c-1.4,0.4-2.7,0.6-4.2,0.8
	c-0.3,0-0.5,0-0.8,0c-4.5,0.3-8.8-0.6-13.3-1.8c-1.6-0.4-1.2-2.7,0.1-3.1c3.6-1,7-2.7,10.4-4.5c-2.6,0-5.2-0.3-7.8-0.8
	c-1.6-0.3-1.9-2.9-0.1-3.1c4.2-0.6,9.6-2.9,14.7-5.5c0.1-0.1,0.4-0.1,0.6-0.3c0.4-0.1,0.8-0.4,1.2-0.6c3.5-1.8,6.8-3.8,9-5.2
	c0.4-0.1,0.6-0.4,0.9-0.6c1-0.7,1.8-1.1,2.2-1.4c0.6-0.4,1.2-0.8,1.8-1.3c1-0.7,2.2-1.4,3.4-2c17.2-9,33.7,0.7,36.9,6.7
	C101.8,95.5,98.4,95.9,91,97z"/>
<path fill="#020202" d="M153.5,198.4c2.1,10.1-13.8,24.8-38.7,35.5c-25-10.7-40.7-25.5-38.7-35.5c2.2-11.1,26.1-14.6,38.7-14.6
	S151.2,187.3,153.5,198.4z"/>
<path fill="#666668" d="M79.4,39.8c-0.1,1.7-0.4,3.5-0.6,5.2c-1.3,8.6-3.6,16.4-6.8,23.4c0,0.1-0.1,0.1-0.1,0.1
	c-3.4,7.3-7.7,13.5-12.6,18.2c-0.6,0.4-1.3,0.8-1.8,1.3c-0.4,0.1-1.2,0.7-2.2,1.4c-0.3,0.1-0.5,0.4-0.9,0.6c-2.2,1.4-5.5,3.4-9,5.2
	c-0.9,0.3-1.7,0.4-2.6,0.6c-2.3,0-4.9-0.6-6.9-2.4c-0.8-0.6-1.3-1.4-1.9-2.1c-1-1.8-1.8-3.9-2.1-6.4c-0.1-0.1-0.1-0.3-0.1-0.6
	c-0.6-8,1.8-19.1,4.2-29.9c1.9-8.7,2.7-13.3,3.2-16.7c0.1-0.4,0.1-1,0.1-1.3c0-0.1,0-0.1,0-0.1c0-0.1,0-0.4,0.1-0.6
	c1.4-5.3,1.9-7.9,0.5-11.6c-0.3-0.6-0.5-1.3-0.9-1.8c-0.1-0.6-0.3-1.1-0.5-1.7c-1-3.4-2.7-7.2-5.7-11.4c-1-1.4-2.2-3.2-1.8-3.6
	c0.8-0.8,6.2,4.6,10.5,6.4c9.7,4.1,18.7,9.5,26.8,16.5C71.9,31.8,75.8,35.6,79.4,39.8z"/>
<path fill="#C0C0C4" d="M140.5,43.3c1.8,1.1,3.6,2.2,5.5,3.5c0.8-1,1.6-2,2.3-2.8c3.6-4.2,7.4-8,11.4-11.5c8.2-7,17-12.3,26.8-16.5
	c4.3-1.8,9.9-7.3,10.5-6.4c0.4,0.4-0.8,2.2-1.8,3.6c-3,4.2-4.7,8-5.7,11.4c-0.1,0.6-0.4,1.1-0.5,1.7c0.3-0.6,0.5-1,0.8-1.5
	c3.5-6.2,9.6-13.6,9.6-18.5c0-0.4,0-1-0.4-1.5c-1.7-2.1-9,2.1-12.3,3.5c-10.7,4.3-20.4,10-29.4,17.5c-3.4,2.8-6.5,5.7-9.6,9.1
	C145.2,37.5,142.8,40.4,140.5,43.3z"/>
<path fill="#666668" d="M148.3,44c0.1,1.7,0.4,3.5,0.6,5.2c1.3,8.6,3.6,16.4,6.8,23.4c0,0.1,0.1,0.1,0.1,0.1
	c3.4,7.3,7.7,13.5,12.6,18.2c0.6,0.4,1.3,0.8,1.8,1.3c0.4,0.1,1.2,0.7,2.2,1.4c0.3,0.1,0.5,0.4,0.9,0.6c2.2,1.4,5.5,3.4,9,5.2
	c0.9,0.3,1.7,0.4,2.6,0.6c2.3,0,4.9-0.6,6.9-2.4c0.8-0.6,1.3-1.4,1.9-2.1c1-1.8,1.8-3.9,2.1-6.4c0.1-0.1,0.1-0.3,0.1-0.6
	c0.6-8-1.8-19.1-4.2-29.9c-1.9-8.7-2.7-13.3-3.2-16.7c-0.1-0.4-0.1-1-0.1-1.3c0-0.1,0-0.1,0-0.1c0-0.1,0-0.4-0.1-0.6
	c-1.4-5.3-1.9-7.9-0.5-11.6c0.3-0.6,0.5-1.3,0.9-1.8c0.1-0.6,0.3-1.1,0.5-1.7c1-3.4,2.7-7.2,5.7-11.4c1-1.4,2.2-3.2,1.8-3.6
	c-0.8-0.8-6.2,4.6-10.5,6.4c-9.7,4.1-18.7,9.5-26.8,16.5C155.7,36,151.9,39.8,148.3,44z"/>
<path fill="#F0F0F0" d="M199.9,113c-3.1,0.8-6.4,1.7-9.5,1.8c-1.6,0.1-3,0.1-4.5,0c-1.4-0.1-2.9-0.4-4.2-0.8c-1.2-0.3-1.7-0.6-2.6-1
	c-1.7-0.8-2.6-1.7-3.1-1.4c-0.1,0.1-0.4,0.4-0.4,1.1c-1.6-0.3-2.6-1.5-2.7-1.8c-0.4-0.4-1.8-1.4-3.9-2.7c-4.3-2.4-11.2-5.7-17.3-7.7
	c-3.8-1.1-7.1-2-10.1-2.5c-11.8-2.4-18.1-1.5-15.2-6.6c3.1-6,19.8-15.7,36.9-6.7c2,1,3.6,2,5.3,3.2c0.5,0.3,1.8,1.1,3.6,2.2
	c2.7,1.7,6.6,3.9,10.9,6c0.4,0.1,0.8,0.4,1.2,0.6s0.6,0.3,1,0.6c4.2,2,8.6,3.6,12,4.2c1.8,0.3,1.3,2.8-0.1,3.1
	c-2.6,0.6-5.3,0.8-7.8,0.8c3.4,1.8,6.8,3.5,10.4,4.5C200.9,110.4,201.3,112.6,199.9,113z"/>
<circle fill="#070707" cx="150.1" cy="113.7" r="6.3"/>
<circle fill="#FFFFFF" cx="148.5" cy="115.8" r="1.5"/>
<circle fill="#070707" cx="75.9" cy="113.7" r="6.3"/>
<circle fill="#FFFFFF" cx="73.1" cy="115.7" r="1.5"/>
</svg>
