<?xml version="1.0" encoding="utf-8"?>
<!-- Generator: Adobe Illustrator 22.1.0, SVG Export Plug-In . SVG Version: 6.00 Build 0)  -->
<svg version="1.1" xmlns="http://www.w3.org/2000/svg" xmlns:xlink="http://www.w3.org/1999/xlink" x="0px" y="0px"
	 viewBox="0 0 200 200" style="enable-background:new 0 0 200 200;" xml:space="preserve">
<style type="text/css">
	.st0{display:none;}
	.st1{fill:#A5DAD1;}
	.st2{fill:#E84B96;stroke:#F78D46;stroke-miterlimit:10;}
	.st3{fill:#F78D46;}
	.st4{fill:#F7F7F7;}
	.st5{fill:#FFFDFE;}
	.st6{fill:#E84B96;stroke:#E84B96;stroke-miterlimit:10;}
	.st7{fill:none;stroke:#E84B96;stroke-miterlimit:10;}
	.st8{fill:#E55E03;}
	.st9{fill:none;stroke:#F7F3F0;stroke-miterlimit:10;}
	.st10{fill:#E84B96;}
	.st11{font-family:'Zapfino';}
	.st12{font-size:12px;}
</style>
<g id="Layer_1" class="st0">
</g>
<g id="Layer_2">
	<rect x="0" class="st1" width="200" height="200"/>
	<g>
		<g>
			<path class="st2" d="M81,145.4c1,1.4,0.4,3.3-1.2,4c-2.5,1-4.8,2.2-7,3.5c-1.6,1-3.2,2-4.6,3.1c-1.7,1.2-4,0.2-4.3-1.8
				c-0.6-4.2-0.8-8.5-0.7-12.6c0.1-3.8,0.5-7.4,1.3-10.9c0.5-2.2,3.3-2.8,4.7-1.1c3.1,4,5.6,7.2,7.6,9.9
				C78.5,141.7,79.8,143.7,81,145.4z"/>
		</g>
		<g>
			<path class="st2" d="M113.6,145.4c-1,1.4-0.4,3.3,1.2,4c2.5,1,4.8,2.2,7,3.5c1.6,1,3.2,2,4.6,3.1c1.7,1.2,4,0.2,4.3-1.8
				c0.6-4.2,0.8-8.5,0.7-12.6c-0.1-3.8-0.5-7.4-1.3-10.9c-0.5-2.2-3.3-2.8-4.7-1.1c-3.1,4-5.6,7.2-7.6,9.9
				C116.1,141.7,114.8,143.7,113.6,145.4z"/>
			<path class="st2" d="M113.6,145.4c-1,1.4-0.4,3.3,1.2,4c2.5,1,4.8,2.2,7,3.5c1.6,1,3.2,2,4.6,3.1c1.7,1.2,4,0.2,4.3-1.8
				c0.6-4.2,0.8-8.5,0.7-12.6c-0.1-3.8-0.5-7.4-1.3-10.9c-0.5-2.2-3.3-2.8-4.7-1.1c-3.1,4-5.6,7.2-7.6,9.9
				C116.1,141.7,114.8,143.7,113.6,145.4z"/>
		</g>
		<path class="st3" d="M134.3,167.5c0,0.5,0,1.1,0,1.6c0,0.3,0,0.7-0.1,1c-0.3,3.4-1.4,6.4-3.1,9c-2.6,3.8-6.6,6.8-11.8,8.8
			c-6,2.4-13.5,3.6-22,3.6c-7.6,0-14.4-1.2-20-3.5c-5.3-2.1-9.5-5.1-12.4-8.9c-1.2-1.6-2.3-3.3-3-5.2c-0.5-1.2-0.8-2.4-1.1-3.7
			c-0.2-1.1-0.4-2.2-0.5-3.4c0-0.4,0-0.9,0-1.3c0-0.2,0-0.4,0-0.6c0.1-3.4,1.2-6.5,3.2-9.3c0.2-0.2,0.4-0.5,0.6-0.7
			c0.4-0.6,0.9-1.1,1.4-1.7c3.5-3.7,8.7-6.6,15.1-8.4c0.2-0.1,0.5-0.1,0.7-0.2c1.3-0.4,2.7-0.7,4.2-1c2-0.4,4.1-0.7,6.2-0.9
			c0.7-0.1,1.4-0.1,2.1-0.1c1.1-0.1,2.3-0.1,3.5-0.1c1,0,2,0,3,0c0.6,0,1.2,0,1.8,0.1c2,0.1,4,0.3,5.8,0.6c1.8,0.3,3.5,0.6,5.2,1
			c0.3,0.1,0.7,0.2,1,0.3c6.4,1.7,11.5,4.7,14.9,8.7c0.5,0.5,0.9,1.1,1.3,1.7c0.2,0.3,0.5,0.7,0.7,1c1.6,2.6,2.6,5.6,3,9
			c0.1,0.5,0.1,0.9,0.1,1.4C134.3,166.7,134.3,167.1,134.3,167.5z"/>
		<g>
			<path class="st4" d="M90.3,157c0,4.1-3.1,7.5-7,7.5c-3.9,0-6-2.9-6-7s3.1-7,7-7C88.2,150.5,90.3,152.9,90.3,157z"/>
			<circle cx="84.8" cy="154.5" r="2.5"/>
			<circle class="st5" cx="85.3" cy="153.5" r="0.5"/>
		</g>
		<g>
			<path class="st4" d="M105.3,157c0,4.1,3.1,7.5,7,7.5c3.9,0,6-2.9,6-7s-3.1-7-7-7C107.5,150.5,105.3,152.9,105.3,157z"/>
			<circle cx="110.8" cy="154.5" r="2.5"/>
			<circle class="st5" cx="110.3" cy="153.5" r="0.5"/>
		</g>
		<path class="st6" d="M95.5,165.3c-0.8-1.1,0.2-2.5,1.8-2.5l1.3,0l1.3,0c1.6,0,2.6,1.4,1.8,2.6l-0.7,0.9l-0.7,0.9
			c-0.8,1.1-2.8,1.1-3.6,0l-0.6-0.9L95.5,165.3z"/>
		<line class="st7" x1="98.1" y1="172" x2="98.1" y2="166"/>
		<g>
			<path class="st7" d="M94.6,171c0.4,1.9,3.6,2,4,0"/>
			<path class="st7" d="M102.6,171c-0.4,1.9-3.6,2-4,0"/>
		</g>
		<path class="st3" d="M126.8,200H72c-0.1,0-0.1-0.1-0.1-0.1l3.6-9.4c0.8-2.1,2.8-3.6,5.1-3.6l33.7-0.8c2.8-0.1,5.4,1.4,6.8,3.8
			L126.8,200z"/>
		<path class="st8" d="M77.8,165l-17.5-0.1c0.1-3.4,1.2-6.5,3.2-9.3L77.8,165z"/>
		<path class="st8" d="M100.3,142.5l-3,11l-3.5-10.9c1.1-0.1,2.3-0.1,3.5-0.1C98.4,142.5,99.4,142.5,100.3,142.5z"/>
		<path class="st8" d="M93.5,152l-8-8.4c2-0.4,4.1-0.7,6.2-0.9L93.5,152z"/>
		<path class="st8" d="M108,143.2l-5.5,9.1l-0.3-9.7C104.2,142.7,106.1,142.9,108,143.2z"/>
		<path class="st8" d="M78.8,170L65,179.1c-1.2-1.6-2.3-3.3-3-5.2c-0.3-1.2-0.5-2.5-0.6-3.7c0,0,0-0.1,0-0.1l1.4,0l4.4,0L78.8,170z"
			/>
		<path class="st8" d="M134.3,170.1c-0.3,3.4-1.4,6.4-3.1,9l-13.8-9L134.3,170.1z"/>
		<path class="st8" d="M134.2,164.9l-16.8,0.1l13.8-9.1C132.7,158.6,133.8,161.5,134.2,164.9z"/>
		<g>
			<path class="st9" d="M68.3,168.1c-20.5-1.3-26.1-14.8-21.2-17.6"/>
			<path class="st9" d="M68.4,170.1c-17.9-1.3-24.4,8.2-20.5,10.9"/>
		</g>
		<g>
			<path class="st9" d="M128.6,167.1c20.5-1.3,26.1-14.8,21.2-17.6"/>
			<path class="st9" d="M128.4,169.1c17.9-1.3,24.4,8.2,20.5,10.9"/>
		</g>
	</g>
	<path class="st10" d="M39.3,56.7c2.3,5.4-2.7,12.7-2.7,12.7s-8.8-1.4-11.1-6.7s3.7-9.7,6.5-3.2C29.3,53,37,51.3,39.3,56.7z"/>
	<path class="st10" d="M44.7,32.9c1.7,3.9-2,9.3-2,9.3s-6.4-1-8.1-4.9s2.7-7,4.8-2.3C37.4,30.2,43,29,44.7,32.9z"/>
	<path class="st10" d="M76,47c1.3,4.7-3.7,10-3.7,10s-7-2.2-8.2-6.8c-1.3-4.7,4.2-7.4,5.7-1.8C68.2,42.8,74.7,42.4,76,47z"/>
	<path class="st10" d="M65.1,73.6c1.5,5.7-4.6,12.1-4.6,12.1s-8.5-2.7-9.9-8.3c-1.5-5.7,5.2-9,7-2.1C55.7,68.4,63.6,68,65.1,73.6z"
		/>
	<path class="st10" d="M96,23c0.1,4.9-6.2,8.9-6.2,8.9s-6.3-3.9-6.4-8.8s6-6.3,6.1-0.4C89.4,16.9,95.9,18.1,96,23z"/>
	<path class="st10" d="M109,68.3c0.1,5.8-7.4,10.7-7.4,10.7S94,74.4,94,68.5s7.2-7.5,7.3-0.4C101.1,61,108.9,62.5,109,68.3z"/>
	<path class="st10" d="M129.3,50.4c-2.2,3.6-8.7,3.7-8.7,3.7s-2.8-5.8-0.6-9.4c2.2-3.6,7.3-1.8,4.6,2.6
		C127.3,42.9,131.5,46.8,129.3,50.4z"/>
	<path class="st10" d="M56.2,57.9c1.1,1.7-0.1,4.5-0.1,4.5s-3.1,0.1-4.2-1.6c-1.1-1.7,0.7-3.5,2-1.5C52.6,57.3,55.1,56.2,56.2,57.9z
		"/>
	<path class="st10" d="M34.2,75.9c1.1,1.7-0.1,4.5-0.1,4.5s-3.1,0.1-4.2-1.6c-1.1-1.7,0.7-3.5,2-1.5C30.6,75.3,33.1,74.2,34.2,75.9z
		"/>
	<path class="st10" d="M52.2,38.9c1.1,1.7-0.1,4.5-0.1,4.5s-3.1,0.1-4.2-1.6c-1.1-1.7,0.7-3.5,2-1.5C48.6,38.3,51.1,37.2,52.2,38.9z
		"/>
	<path class="st10" d="M107.4,27c-0.6,1.9-3.6,2.7-3.6,2.7s-2-2.4-1.4-4.3s3.2-1.7,2.4,0.7C105.6,23.8,108,25.1,107.4,27z"/>
	<path class="st10" d="M113.4,58c-0.6,1.9-3.6,2.7-3.6,2.7s-2-2.4-1.4-4.3s3.2-1.7,2.4,0.7C111.6,54.8,114,56.1,113.4,58z"/>
	<path class="st10" d="M135.4,37c-0.6,1.9-3.6,2.7-3.6,2.7s-2-2.4-1.4-4.3s3.2-1.7,2.4,0.7C133.6,33.8,136,35.1,135.4,37z"/>
	<path class="st10" d="M84,65.6c2.4,3.5-0.2,9.4-0.2,9.4s-6.5,0.2-8.8-3.3c-2.4-3.5,1.4-7.4,4.3-3.2C76.3,64.2,81.6,62,84,65.6z"/>
	<path class="st10" d="M134.3,64.5c-0.9,4.2-7,6.3-7,6.3s-4.6-4.6-3.6-8.7c0.9-4.2,6.4-4.1,5.2,0.9C130,58,135.3,60.4,134.3,64.5z"
		/>
	<path class="st10" d="M90.9,42.9c0.3,4.2-4.9,8.1-4.9,8.1s-5.7-3.1-6-7.3c-0.3-4.2,4.9-5.7,5.3-0.6C84.9,37.9,90.6,38.7,90.9,42.9z
		"/>
	<path class="st10" d="M108.2,45.8c-2.5,3.5-8.9,3.1-8.9,3.1s-2.5-6,0-9.5s7.4-1.3,4.5,2.9C106.7,38.2,110.7,42.3,108.2,45.8z"/>
	<path class="st10" d="M152.2,41.8c-2.5,3.5-8.9,3.1-8.9,3.1s-2.5-6,0-9.5s7.4-1.3,4.5,2.9C150.7,34.2,154.7,38.3,152.2,41.8z"/>
	<path class="st10" d="M121.2,82.8c-2.5,3.5-8.9,3.1-8.9,3.1s-2.5-6,0-9.5c2.5-3.5,7.4-1.3,4.5,2.9
		C119.7,75.2,123.7,79.3,121.2,82.8z"/>
	<path class="st10" d="M150.4,57.3c-1.5,4-7.8,5.3-7.8,5.3s-3.9-5.2-2.4-9.1c1.5-4,6.9-3.2,5,1.6C147,50.3,151.9,53.3,150.4,57.3z"
		/>
	<path class="st10" d="M76.1,26.6c1.4,4-2.7,9.1-2.7,9.1s-6.3-1.5-7.7-5.5s3.3-6.8,4.9-1.9C69,23.3,74.7,22.6,76.1,26.6z"/>
	<path class="st10" d="M127.9,27.3c0.1,5.8-7.3,10.7-7.3,10.7s-7.6-4.6-7.7-10.4c-0.1-5.8,7.1-7.5,7.3-0.5
		C120.1,20,127.8,21.4,127.9,27.3z"/>
	<path class="st10" d="M144.9,84.2c-1.9,3.6-7.9,4-7.9,4s-3-5.3-1.2-8.8c1.9-3.6,6.8-2.2,4.5,2.1C142.6,77.2,146.8,80.6,144.9,84.2z
		"/>
	<path class="st10" d="M172.7,76.2c-3.8,7.3-16.2,8.3-16.2,8.3s-6.2-10.8-2.3-18c3.8-7.3,13.8-4.4,9.2,4.3
		C168,62,176.5,69,172.7,76.2z"/>
	<text transform="matrix(1 0 0 1 14.2193 108.3184)" class="st10 st11 st12">Happy Valentine’s Day</text>
</g>
</svg>
