<?xml version="1.0" encoding="utf-8"?>
<!-- Generator: Adobe Illustrator 22.1.0, SVG Export Plug-In . SVG Version: 6.00 Build 0)  -->
<svg version="1.1" xmlns="http://www.w3.org/2000/svg" xmlns:xlink="http://www.w3.org/1999/xlink" x="0px" y="0px"
	 viewBox="0 0 400 400" style="enable-background:new 0 0 400 400;" xml:space="preserve">
<style type="text/css">
	.st0{fill:#FFFFFF;stroke:#020202;stroke-miterlimit:10;}
	.st1{opacity:0.84;}
	.st2{fill:#1B1464;}
	.st3{fill:none;}
	.st4{fill:none;stroke:#FFFFFF;stroke-width:2;stroke-miterlimit:10;}
	.st5{fill:none;stroke:#FFFFFF;stroke-width:2;stroke-linecap:round;stroke-linejoin:round;stroke-miterlimit:10;}
	.st6{enable-background:new    ;}
	.st7{fill:#F9F9F9;}
	.st8{fill:#FFFFFF;}
	.st9{font-family:'Futura-CondensedMedium';}
	.st10{font-size:52.4344px;}
	.st11{font-size:13.1749px;}
	.st12{font-family:'Futura-CondensedExtraBold';}
	.st13{font-size:14px;}
	.st14{font-size:15.8099px;}
	.st15{font-size:24px;}
</style>
<g id="Layer_3">
	<rect x="-0.5" y="0.5" class="st0" width="400" height="400"/>
	<rect y="4" class="st1" width="400" height="118"/>
	<rect class="st2" width="400" height="118"/>
	<g id="Outline">
		<rect x="13" y="7" class="st3" width="120" height="108"/>
		<g>
			<polyline class="st4" points="96.2,27.9 96.2,16.2 50,16.2 50,64.2 59.2,64.2 			"/>
			<path class="st5" d="M80.7,64.2c-0.8,0-1.6,0-2.4,0c0.2-0.8,0.3-1.8,0.4-3c0-1.3-0.1-2.4-0.3-3.3c-0.1-0.6-0.3-1.3-0.7-2.1
				c-0.4-0.8-0.9-1.2-1.2-1.5C76.3,54,75.7,53.5,75,53c-0.6-0.3-1.1-0.5-1.5-0.6c-0.4-0.1-0.9-0.2-1.8-0.3c-0.6-0.1-1-0.1-1.5-0.2
				c-0.3,0-0.7,0-1-0.1c-0.4-0.1-0.4-0.1-0.2-0.6c0.2-0.8,0.7-1.4,1-2.2c0.6-1.5,0.9-3.6,0.2-5.1c-0.3,0.2-0.5,0.7-0.7,0.9
				c-0.3,0.4-0.7,0.6-1.1,0.8c-0.2,0.1-0.3,0.1-0.5,0.1c-0.2,0-0.3-0.1-0.5-0.1c-1-0.5-1.4-1.7-1.3-2.9c0,0.2-0.7,0.8-0.8,1
				c-0.3,0.5-0.5,1-0.7,1.6C64,46.8,64,48.4,63.9,50c-0.1,1.8-0.1,3.6,0.1,5.3c0.3,2.5,0.8,5,0.7,7.6c0,0.4-0.1,1.2-0.5,1.4
				c-0.4,0.2-1.4,0-1.9,0"/>
			<path class="st5" d="M69.6,64.1c0.7,0,1.4,0,2.1,0c0,0-0.1-3.1-0.1-3.4c0-1.2,0-2.4,0.3-3.6c0.5-2.7,1.4-5.4,2.7-7.7
				c0.7-1.2,1.6-2.3,2.3-3.4c1.5-2.3,3.1-4.5,4.8-6.7c0.3-0.4,0.6-0.8,0.8-1.2c0.8-1.7,0.4-3.8,0.8-5.6c0.2-0.7,0.4-1.3,0.6-2
				c0.1-0.3,0.3-0.6,0.6-0.9c0.4-0.4,0.7-0.7,1-0.9c0.3-0.2,0.8-0.3,1.4-0.4c0.8-0.1,1.4,0,1.8,0.1c0.4,0.2,1,0.5,1.7,1
				c0.4,0.3,0.7,0.7,1.1,1.1c0.2,0.3,0.4,0.7,0.7,0.8c0.5,0.2,1.3,0,1.8-0.1c0.6,0,1.2,0,1.8-0.1c0.1,0.7,0.1,1.4,0,2.1
				c-0.2,0.8-0.6,1.5-1.2,2.1c-1,1.1-2.2,1.8-3.4,2.7c-0.2,0.1-0.4,0.3-0.5,0.5c-0.1,0.3-0.1,0.6,0,0.9c0.3,1.5,0.6,2.9,0.5,4.4
				c-0.1,0.9-0.1,1.7-0.2,2.6c0,0.7-0.1,1.5-0.2,2.2c-0.2,0.9-0.5,1.8-0.7,2.7c-0.2,1-0.4,2-0.5,3c-0.2,1.9-0.3,4,0,5.9
				c0.2,1.2,0.4,2.5,0.6,3.7c0.6,0,1.2,0.1,1.8,0.1"/>
			<path class="st5" d="M86.1,64.2c-0.3,0-0.6,0-0.9,0c-0.4,0-0.6-0.1-0.8-0.6c-1.2-4.7-1.1-9.7,0.1-14.3"/>
			<path class="st5" d="M84.7,34.5c0.2,1,0.4,2,0.8,3c0.1,0.2,0.1,0.4,0.3,0.5c1,0.6,2.4-2.5,2.6-3.3c0.3-1.3,0.3-2.7,0.1-4.1
				c-0.1-0.5-0.2-1-0.5-1.5c-0.5-0.8-1.4-0.7-2.2-0.5c-0.6,0.1-1.1,0.7-1.3,1.3c-0.3,0.7-0.2,1.5-0.1,2.3
				C84.5,33,84.6,33.8,84.7,34.5z"/>
		</g>
		<g class="st6">
			<path class="st7" d="M44.3,101.6v2.1H44v-5.1h1.6c0.5,0,0.8,0.1,1.1,0.4s0.4,0.6,0.4,1.1c0,0.5-0.1,0.9-0.4,1.1
				c-0.3,0.3-0.6,0.4-1.1,0.4H44.3z M44.3,101.2h1.2c0.4,0,0.7-0.1,0.9-0.3c0.2-0.2,0.3-0.5,0.3-0.8c0-0.4-0.1-0.6-0.3-0.8
				c-0.2-0.2-0.5-0.3-0.8-0.3h-1.2V101.2z"/>
			<path class="st7" d="M51.6,101.2h-2.1v2.1H52v0.4h-2.8v-5.1h2.8v0.4h-2.4v1.9h2.1V101.2z"/>
			<path class="st7" d="M57.1,98.9h-1.6v4.8h-0.4v-4.8h-1.6v-0.4h3.5V98.9z"/>
			<path class="st7" d="M61.8,103.7v-5.1h1.3c0.5,0,0.9,0.1,1.1,0.3c0.3,0.2,0.4,0.6,0.4,1c0,0.3-0.1,0.5-0.2,0.7
				c-0.1,0.2-0.3,0.3-0.5,0.4c0.3,0.1,0.5,0.2,0.6,0.4s0.2,0.5,0.2,0.8c0,0.5-0.1,0.8-0.4,1.1c-0.3,0.3-0.6,0.4-1.1,0.4H61.8z
				 M62.1,100.9h1.1c0.3,0,0.6-0.1,0.7-0.3c0.2-0.2,0.3-0.4,0.3-0.7c0-0.3-0.1-0.6-0.3-0.7s-0.5-0.2-0.8-0.2h-1V100.9z M62.1,101.2
				v2.1h1.2c0.3,0,0.6-0.1,0.8-0.3c0.2-0.2,0.3-0.5,0.3-0.8c0-0.3-0.1-0.6-0.3-0.8c-0.2-0.2-0.4-0.3-0.8-0.3H62.1z"/>
			<path class="st7" d="M70.3,101.4c0,0.5-0.1,0.9-0.2,1.2c-0.1,0.4-0.4,0.6-0.6,0.8c-0.3,0.2-0.6,0.3-0.9,0.3c-0.5,0-1-0.2-1.3-0.6
				c-0.3-0.4-0.5-1-0.5-1.7v-0.5c0-0.5,0.1-0.9,0.2-1.2s0.4-0.6,0.6-0.8c0.3-0.2,0.6-0.3,0.9-0.3s0.7,0.1,0.9,0.3
				c0.3,0.2,0.5,0.5,0.6,0.8c0.1,0.3,0.2,0.8,0.2,1.2V101.4z M69.9,100.9c0-0.6-0.1-1.1-0.4-1.5s-0.6-0.5-1-0.5
				c-0.4,0-0.8,0.2-1,0.5c-0.3,0.4-0.4,0.8-0.4,1.5v0.5c0,0.6,0.1,1.1,0.4,1.4c0.2,0.4,0.6,0.5,1,0.5c0.4,0,0.8-0.2,1-0.5
				c0.2-0.4,0.4-0.8,0.4-1.5V100.9z"/>
			<path class="st7" d="M75.6,98.6v3.5c0,0.3-0.1,0.6-0.2,0.9c-0.1,0.3-0.3,0.5-0.6,0.6c-0.2,0.1-0.5,0.2-0.8,0.2
				c-0.5,0-0.9-0.1-1.2-0.4c-0.3-0.3-0.4-0.7-0.5-1.2v-3.5h0.4v3.5c0,0.4,0.1,0.8,0.3,1c0.2,0.2,0.5,0.4,0.9,0.4s0.7-0.1,0.9-0.4
				c0.2-0.2,0.3-0.6,0.3-1v-3.5H75.6z"/>
			<path class="st7" d="M81,98.9h-1.6v4.8H79v-4.8h-1.6v-0.4H81V98.9z"/>
			<path class="st7" d="M83.4,103.7H83v-5.1h0.4V103.7z"/>
			<path class="st7" d="M89.2,101.4c0,0.5-0.1,0.9-0.2,1.3c-0.2,0.4-0.4,0.6-0.7,0.8l0.8,0.8l-0.3,0.3l-0.9-0.9
				c-0.2,0.1-0.3,0.1-0.5,0.1c-0.3,0-0.7-0.1-0.9-0.3c-0.3-0.2-0.5-0.5-0.6-0.8s-0.2-0.8-0.2-1.2v-0.6c0-0.5,0.1-0.9,0.2-1.2
				s0.4-0.6,0.6-0.8c0.3-0.2,0.6-0.3,0.9-0.3c0.4,0,0.7,0.1,0.9,0.3c0.3,0.2,0.5,0.5,0.6,0.8c0.1,0.4,0.2,0.8,0.2,1.2V101.4z
				 M88.8,100.9c0-0.6-0.1-1.1-0.4-1.5c-0.2-0.3-0.6-0.5-1-0.5c-0.4,0-0.8,0.2-1,0.5c-0.3,0.4-0.4,0.8-0.4,1.5v0.5
				c0,0.6,0.1,1.1,0.4,1.4c0.2,0.4,0.6,0.5,1,0.5c0.4,0,0.8-0.2,1-0.5c0.2-0.3,0.4-0.8,0.4-1.5V100.9z"/>
			<path class="st7" d="M94.6,98.6v3.5c0,0.3-0.1,0.6-0.2,0.9c-0.1,0.3-0.3,0.5-0.6,0.6c-0.2,0.1-0.5,0.2-0.8,0.2
				c-0.5,0-0.9-0.1-1.2-0.4c-0.3-0.3-0.4-0.7-0.5-1.2v-3.5h0.4v3.5c0,0.4,0.1,0.8,0.3,1c0.2,0.2,0.5,0.4,0.9,0.4s0.7-0.1,0.9-0.4
				c0.2-0.2,0.3-0.6,0.3-1v-3.5H94.6z"/>
			<path class="st7" d="M99.4,101.2h-2.1v2.1h2.5v0.4h-2.8v-5.1h2.8v0.4h-2.4v1.9h2.1V101.2z"/>
		</g>
		<g>
			<path class="st8" d="M36.3,74.2h-4.9v18.1h2.2v-7.1h2.2c2.4,0,4.3-0.5,5.6-1.5c1.3-1,2-2.4,2-4.2C43.4,75.9,41,74.2,36.3,74.2z
				 M39.8,82.4c-0.9,0.6-2.3,0.9-4.2,0.9h-2V76h2.4c1.7,0,3,0.3,3.8,0.9c0.8,0.6,1.2,1.5,1.2,2.7C41.1,80.8,40.7,81.8,39.8,82.4z"/>
			<path class="st8" d="M59.3,74.2h-1.8L50,92.4h2.1l0.1-0.3l3.1-7.4h0l2.2-5.6c0.3-0.9,0.6-1.8,0.8-2.6c0,0.1,0,0.1,0.1,0.2
				c0,0,0,0,0,0c0.1,0.2,0.1,0.5,0.2,0.7v0c0.2,0.6,0.4,1.2,0.6,1.7l2.2,5.6l0,0l3,7.1l0,0l0.1,0.3l0.1,0.3h2L59.3,74.2z"/>
			<path class="st8" d="M93.6,74.2l-3,11.1c-0.4,1.7-0.8,3.1-0.9,4.3c-0.3-1.6-0.6-3-1-4.3l-3.5-11.1h-2.3l-3.4,11
				c-0.5,1.4-0.8,2.9-1,4.4c-0.2-1.3-0.5-2.7-0.9-4.2l-3-11.2h-2.3l5,18.1h2.2l3.7-12c0.4-1.3,0.7-2.5,0.9-3.6
				c0,0.2,0.1,0.7,0.3,1.5c0.2,0.8,0.4,1.5,0.6,2l3.8,12.1h2.2l5-18.1H93.6z"/>
			<path class="st8" d="M113.7,84.4c-0.7-0.8-2.1-1.5-4.1-2.2c-1.2-0.4-2-0.8-2.6-1.1c-0.6-0.3-1-0.7-1.2-1.1
				c-0.2-0.4-0.4-0.9-0.4-1.5c0-0.8,0.3-1.5,1-2c0.6-0.5,1.6-0.7,2.7-0.7c1.5,0,3,0.3,4.5,0.9l0.7-1.8c-1.6-0.7-3.3-1-5.2-1
				c-1.8,0-3.2,0.4-4.3,1.2s-1.6,1.9-1.6,3.3c0,1.3,0.4,2.4,1.1,3.2s2,1.5,3.8,2.1c1.3,0.4,2.2,0.8,2.8,1.1c0.6,0.3,1,0.7,1.3,1.1
				c0.3,0.4,0.4,0.9,0.4,1.5c0,0.9-0.4,1.7-1.1,2.2c-0.7,0.5-1.8,0.8-3.3,0.8c-0.9,0-1.8-0.1-2.7-0.3c-0.9-0.2-1.8-0.4-2.5-0.7v2
				c1.2,0.5,2.9,0.8,5.1,0.8c2.1,0,3.7-0.4,4.9-1.3c1.2-0.9,1.8-2.1,1.8-3.7C114.8,86.2,114.4,85.2,113.7,84.4z"/>
		</g>
	</g>
	<text transform="matrix(1 0 0 1 132.6777 83.2754)" class="st0 st9 st10">WE’RE HIRING!</text>
</g>
<g id="Layer_1">
</g>
<g id="Layer_2">
	<text transform="matrix(0.9985 0 0 1 50 150.1895)"><tspan x="0" y="0" class="st9 st11">At</tspan><tspan x="8.3" y="0" class="st12 st11"> </tspan><tspan x="12.3" y="0" class="st12 st13">paws</tspan><tspan x="45" y="0" class="st9 st11">, our staff is </tspan><tspan x="0" y="25" class="st12 st14">         </tspan><tspan x="42.8" y="25" class="st12 st15">passionate</tspan><tspan x="159.3" y="25" class="st9 st15"> </tspan><tspan x="164.2" y="25" class="st9 st11">about </tspan><tspan x="190.7" y="25" class="st12 st15">animals</tspan><tspan x="275.3" y="25" class="st9 st11">,  </tspan><tspan x="0" y="50" class="st9 st13">healthy and nutritional food and all natural remedies! </tspan></text>
	<text transform="matrix(1 0 0 1 95 221.3564)"><tspan x="0" y="0" class="st9 st13">If you are passionate about </tspan><tspan x="123.8" y="0" class="st12 st13">dogs</tspan><tspan x="153.4" y="0" class="st9 st13"> and </tspan><tspan x="175.9" y="0" class="st12 st13">cats</tspan><tspan x="199.6" y="0" class="st9 st13"> and </tspan><tspan x="0" y="18" class="st9 st13">love meeting fellow</tspan><tspan x="86.5" y="18" class="st12 st13"> animal lovers</tspan><tspan x="176.2" y="18" class="st9 st13">, </tspan><tspan x="0" y="36" class="st12 st13">come join our team</tspan><tspan x="120.8" y="36" class="st9 st13">!</tspan></text>
	<text transform="matrix(1 0 0 1 50 290.7588)" class="st12 st15">Skills, Drive &amp; Desire Wanted!</text>
	<text transform="matrix(1 0 0 1 95 314.2656)" class="st9 st13">If that’s you, send in your resume!</text>
	<g>
		<text transform="matrix(1 0 0 1 50 341.1836)"><tspan x="0" y="0" class="st9 st13">Ideal Candidate would work 4 days a week, </tspan><tspan x="0" y="16.8" class="st9 st13">with one of the days being Saturday</tspan></text>
	</g>
	<text transform="matrix(1 0 0 1 95 379.2812)" class="st12 st13">Please email resume to: tracy@paws.ws</text>
	<rect x="97.7" y="126.8" class="st3" width="21" height="10.2"/>
</g>
</svg>
