<?xml version="1.0" encoding="utf-8"?>
<!-- Generator: Adobe Illustrator 22.1.0, SVG Export Plug-In . SVG Version: 6.00 Build 0)  -->
<svg version="1.1" id="Layer_1" xmlns="http://www.w3.org/2000/svg" xmlns:xlink="http://www.w3.org/1999/xlink" x="0px" y="0px"
	 width="200px" height="133.7px" viewBox="0 0 200 133.7" enable-background="new 0 0 200 133.7" xml:space="preserve">
<g>
	<path d="M30.1,88.1"/>
	<path fill="#F4EDC6" d="M156.6,43.2C169.7,113.8,53,134.9,39.9,65C26.9-4.9,143.4-27.5,156.6,43.2z"/>
	<path fill="#F4EDC6" d="M143.2,102c0,41.5-90.1,41.4-89.8,0C53.6,60.5,143.2,60.6,143.2,102z"/>
	<path d="M124.3,92.6c3.6,22.7-56,23.1-52.3,0C74.5,76,121.6,76,124.3,92.6z"/>
	<g>
		<path fill="none" stroke="#000000" stroke-width="6" stroke-miterlimit="10" d="M98.7,110c1.7,15.8,23.4,16.2,31.9,5.8"/>
		<path fill="none" stroke="#000000" stroke-width="6" stroke-miterlimit="10" d="M98,110.1c-2.3,15.6-24,15.7-32.1,4.8"/>
	</g>
	<g>
		<path d="M82.1,50.5c0,13.6-12.4,13.6-12.4,0C69.6,37.5,82.1,35.7,82.1,50.5z"/>
		<path fill="#FFFFFF" d="M73.6,43.2c0.9-2.3,2-2.4,3.2-0.2C75.8,45.3,74.8,45.4,73.6,43.2z"/>
	</g>
	<g>
		<path d="M124.5,50c0,13.6-12.4,13.6-12.4,0C112.1,37,124.5,35.2,124.5,50z"/>
		<path fill="#FFFFFF" d="M116,42.7c0.9-2.3,2-2.4,3.2-0.2C118.3,44.8,117.2,44.9,116,42.7z"/>
	</g>
	<path fill="#DDD6AB" d="M38.9,88.7c-4.6,0.7-35.3-44-36.8-49.2c-7.8-26.9,46-36.2,66.1-32.2c-13.8,11.5-22.6,26.4-26,44.1
		C41.6,54.7,41.9,88.2,38.9,88.7z"/>
	<path fill="#DDD6AB" d="M199,33.6c1.1-9.9-24.5-21-32.3-23.8c-11.7-4.2-24.8-4.8-36.9-2.3c12.7,10.6,21.4,24.2,25.1,40.4
		c1,4.1,1.7,40.7,4.2,41.1C164.9,89.9,198.2,40.5,199,33.6"/>
</g>
</svg>
